<svg xmlns="http://www.w3.org/2000/svg" width="73.309" height="73.31" viewBox="0 0 73.04 73.04" shape-rendering="geometricPrecision" text-rendering="geometricPrecision" image-rendering="optimizeQuality" fill-rule="evenodd" clip-rule="evenodd"><path d="M36.52 0c20.17 0 36.52 16.35 36.52 36.52S56.69 73.04 36.52 73.04 0 56.69 0 36.52 16.35 0 36.52 0z" fill="#00a8e7"/><path d="M36.52 3.77c18.09 0 32.75 14.66 32.75 32.75S54.61 69.27 36.52 69.27 3.77 54.61 3.77 36.52 18.43 3.77 36.52 3.77z" fill="#0e62ac"/><path d="M21.39 25.37v9.83l-10.74-9.9.05 22.27 5.37.06-.03-9.07 10.93 9.07-.11-22.11-5.48-.16zm10.49 6.71v15.53h-2.45V32.08h2.45zm-2.37 3.6v-3.53h8.07v3.53h-8.07zm.19 11.96v-3.18h7.88v3.18H29.7zm6.77-9.29v3.69h-5.21v-3.69h5.21zm10.55-5.92h.08l3.97 5.31-.7 2.96-.3-3.15 2.56-5.38h3.35l.03.06-5.64 15.75-.16-.1-2.99-7.99v-.03l-2.81 7.99h-.19l-5.53-15.66v-.03l3.26-.1 1.86 4.2.92 2.51-.84-1.53 3.13-4.84zm14.51 15.05c-.76 0-1.38-.27-1.89-.8-.5-.53-.76-1.23-.76-2.1 0-.87.25-1.58.76-2.13.5-.53 1.13-.8 1.89-.8s1.39.27 1.89.8c.5.55.76 1.26.76 2.13 0 .87-.25 1.57-.76 2.1-.5.53-1.13.8-1.89.8zm-2.75-22.59h5.4l-.3 15.94h-4.69l-.4-15.94z" fill="#fefefe" fill-rule="nonzero"/></svg>