<svg xmlns="http://www.w3.org/2000/svg" width="73.297" height="74.454" viewBox="0 0 73.1 74.25" shape-rendering="geometricPrecision" text-rendering="geometricPrecision" image-rendering="optimizeQuality" fill-rule="evenodd" clip-rule="evenodd"><path d="M29.7 6.28c-2.56-.26-5.33-4.11-9.33-2.6-3.2 1.21-3.36 5.32-3.66 8.88-3.14.13-11.74-2.05-10.17 6.58.4 2.19 1.25 3.09 1.4 4.77-2.67 1.11-6.42 1.88-7.46 4.74-1.5 4.16 2.5 6.51 3.6 8.36-.85 2.22-8.41 6.84-.49 11.66 1.47.9 3.24.97 4.56 1.76-.17 1.29-1.03 2.27-1.42 4.34-.33 1.78-.35 3.84.53 5.19 1.87 2.89 6.57 1.89 8.03 1.95 2.8.11.9 1.35 2.35 5.35 2.84 7.84 10.34.87 11.98.61 1.54 2.31 3.12 6.47 7.01 6.38 4.05-.09 5.09-4.08 7.02-6.43 2.12.4 11.92 9.81 12.67-5.99 3.63-.7 7.37 1.19 9.62-1.94.99-1.37.88-3.33.54-5.04-.3-1.54-1.34-3.75-1.34-4.58 2.6-1.23 6.55-1.58 7.61-4.92 1.38-4.37-3-6.22-3.76-8.34.98-1.42 8.18-6.97.84-11.24-1.48-.86-3.31-1.16-4.58-1.88-.04-1.66 4.93-10.75-3.3-11.63-2.57-.27-3.86.32-4.82.19-2.54-.36.55-6.6-4.33-8.73-1.71-.75-3.7-.33-5.14.38-1.27.63-2.74 1.83-4.02 2.17C42.32 4.98 40.67 0 36.62 0c-3.7 0-5.45 3.62-6.93 6.28z" fill="#b0cb1f"/><path d="M30.37 9.28c-2.31-.23-4.81-3.71-8.42-2.35-2.89 1.09-3.03 4.81-3.31 8.01-2.84.12-10.6-1.85-9.18 5.94.36 1.98 1.13 2.79 1.26 4.31-2.41 1-5.8 1.69-6.73 4.28-1.35 3.75 2.26 5.88 3.25 7.55-.77 2-7.6 6.18-.45 10.53 1.33.81 2.92.87 4.12 1.59-.15 1.16-.93 2.05-1.28 3.92-.3 1.61-.31 3.47.48 4.69 1.69 2.61 5.93 1.71 7.25 1.76 2.53.1.81 1.22 2.12 4.83 2.56 7.08 9.34.78 10.81.55 1.39 2.09 2.82 5.84 6.33 5.76 3.66-.08 4.6-3.69 6.34-5.8 1.92.36 10.76 8.85 11.44-5.41 3.28-.64 6.66 1.07 8.69-1.75.89-1.24.79-3.01.49-4.55-.27-1.39-1.21-3.39-1.21-4.14 2.34-1.11 5.92-1.43 6.87-4.44 1.25-3.94-2.71-5.61-3.39-7.53.89-1.28 7.38-6.29.76-10.15-1.34-.78-2.99-1.05-4.13-1.7-.04-1.5 4.45-9.7-2.98-10.5-2.32-.25-3.48.29-4.35.17-2.29-.32.49-5.95-3.91-7.88-1.54-.67-3.34-.29-4.64.34-1.15.56-2.48 1.65-3.63 1.96-1.19-1.16-2.69-5.66-6.33-5.66-3.34 0-4.92 3.27-6.26 5.67z" fill="#009846"/><path d="M45.41 38.83l-.01 10.33c.01 4.18 4.78 4.41 4.76-.53v-9.54c0-1.85.23-3.71-2.03-3.93-2.8-.27-2.74 1.76-2.73 3.67zM23.02 27.17l.15 10.99c1.69.8 1.23.9 3.73.58 1.46-1.81.83-7.18.83-9.46 0-4.19.94-7.92-2.99-7.3-2.37.38-1.72 3.04-1.72 5.18zm6.33 27.81l-3.42.03c.1-1.84 7.28-15.84 8.57-18.11 2.4-4.19 6.59-14.51 8.82-17.85l3.47-.03c.18 1.61-7.5 16.11-8.44 18.01l-6.66 13.48c-1.01 1.89-1.18 2.95-2.34 4.47zM18.7 37.5c-.56-2.87-.4-14.32.86-16.27 1.18-1.82 4.14-2.79 7.65-2.24 2.98.47 4.48 2 4.88 4.58.47 3.04.61 14.14-.79 16.09-1.29 1.8-3.82 2.82-7.61 2.32-2.97-.39-4.58-2.35-4.99-4.48zm22.26 12.72c-.33-2.12-.04-6.16-.04-8.48.01-3.46-.96-11.44 9.07-9.44 6.04 1.2 4.53 7.85 4.53 13.68 0 2.65.45 5.52-1.37 7.43-1.44 1.51-4.4 2.47-7.57 1.74-2.83-.66-4.21-2.27-4.63-4.93z" fill="#fefefe"/></svg>