<svg xmlns="http://www.w3.org/2000/svg" width="75.68" height="75.679" viewBox="0 0 77.72 77.72" shape-rendering="geometricPrecision" text-rendering="geometricPrecision" image-rendering="optimizeQuality" fill-rule="evenodd" clip-rule="evenodd"><path d="M38.86 0c21.46 0 38.86 17.4 38.86 38.86s-17.4 38.86-38.86 38.86S0 60.32 0 38.86 17.4 0 38.86 0z" fill="#ffed00"/><path d="M38.86 4.01c19.24 0 34.85 15.6 34.85 34.85s-15.6 34.85-34.85 34.85S4.01 58.11 4.01 38.86 19.61 4.01 38.86 4.01z" fill="#613084"/><path d="M51.49 58.13c2.28-.01 1.81.18 1.81-2.16v-9.62c0-3.41.38-3.44-1.26-3.42l-23.71.02c-4.43 0-4.07-.34-4.08 1.44l.02 13.73 27.22.01zm3.59-27.63c-.18-.02-.53-.01-.73-.01l-4.06-.1c-.43-.03-.81-.05-1.3-.07-.21-.01-.5-.02-.7-.05l-1.41.01c-.33.03-.82.09-1.26.1-3.44.08-16.98-.33-19.12.18-1.22.29-4.56-.72-5.05.43l-.07 8.75 34.75.01V32.8c.01-.62.1-1.08-.07-1.62-.16-.51 0-.18-.28-.52l-.69-.18zm.69.18c.29.35.12.01.28.52.17.54.08.99.07 1.62v6.95l-34.75-.01.07-8.75c.49-1.14 3.84-.14 5.05-.43 2.14-.51 15.68-.11 19.12-.18.44-.01.93-.07 1.26-.1l1.41-.01c.2.03.5.04.7.05.49.02.87.04 1.3.07l4.06.1c.2 0 .55-.01.73.01l.69.18zm-23.34-.37c-1.65-.01-1.64-.57-2.44-1.47-.61-.69-1.07-1.31-1.42-2.31-.83-2.39.93-3.82 2.98-4.05 3.18-.36 4.58 3.82 5.07 6.34.39 2.04-.19 1.52-4.2 1.49zm8.42-.04c-.13-1.92 1.05-4.94 1.96-6.13 1.67-2.19 3.93-2.2 5.6-.69 2.11 1.91-.3 5.21-1.73 6.52-.55.51-.84.37-1.77.36-1.31-.01-2.77.07-4.06-.05zm-13.63 0l-5.82.08-.1 9.45 33.75.04c1.81 0 1.3-.03 1.3-4.88l-.02-3.92c-.2-1.22.23.75-.08-.3-.28-.94-4.05-.28-5.94-.5.03-.65 3.63-4.78.42-8.42-.61-.69-1.47-1.17-2.4-1.55-1.26-.51-3.68-.91-5.06-.11-1.58.92-1.93.82-3.07 2.84l-1.37 2.47c-.42-.35-.92-1.79-1.41-2.46l-1.85-2.09c-.73-.5-.52-1.04-2.63-1.26-1.27-.14-2.56.04-3.51.41-3.16 1.23-4.77 4.32-3.41 7.57.27.66 1.16 2.16 1.18 2.65z" fill="#fefefe"/></svg>