<svg xmlns="http://www.w3.org/2000/svg" width="18.598" height="42.329" viewBox="0 0 69.8 158.86" shape-rendering="geometricPrecision" text-rendering="geometricPrecision" image-rendering="optimizeQuality" fill-rule="evenodd" clip-rule="evenodd"><path d="M26.43 14.18c-1.99 1.27-2.84 1.04-5.93 3.42-2 1.54-3.1 2.69-4.62 4.75-2.31 3.13-3.41 5.95-4.23 9.84-.28 1.32-.17 3.14-.52 4.39-2.63.96-4.44-.47-7.62 1.76-4.45 3.12-4.63 9.22-.74 12.78 2.51 2.31 3.92 1.67 7.36 2.28-2.04 1.14-2.94.85-5.52 3.45-1.51 1.52-2.81 3.26-3.58 5.78-1.06 3.47-.9 13.62-.65 17.7 2.63.38 7.71.1 10.59.09 8.61-.02 6.96 5.86 4.8 7.65-2.22 1.83-10.19.26-15.43.97v13.14c4.55.62 13.14-.66 15.15.73.95.65 1.9 1.96 1.93 3.5.16 6.2-8.94 3.91-16.94 4.36l-.14 12.72c7.46.95 16.98-2.32 17.09 4.26.11 6.4-8.76 3.83-16.96 4.35-.34 1.36-.21 10.9-.1 12.82.26 4.28 1.72 7.13 3.84 9.37 5.38 5.68 12.66 4.43 21.85 4.43h26.28c5.82 0 10.68-.35 14.37-5.4 1.07-1.46 1.66-2.58 2.25-4.51 1.27-4.15.64-20.21.64-25.73V70.51c0-6.39-.3-10.64-5.16-14.7-1.78-1.49-2.34-1.33-4.24-2.41 3.37-.6 4.6-.19 6.97-2.41 4.96-4.65 2.49-12.82-4.18-14.05-1.56-.29-4.1.07-4.54-.52-.37-1.21-.22-2.74-.49-4.07-1.64-8.25-6.91-14.95-14.98-18.05-.19-3.4.53-7.03-1.14-10.05-3-5.4-10.67-5.87-14.14-.28-1.81 2.92-1.1 6.52-1.27 10.19z"/></svg>