<svg xmlns="http://www.w3.org/2000/svg" width="45.508" height="41.591" viewBox="0 0 47.2 43.14" shape-rendering="geometricPrecision" text-rendering="geometricPrecision" image-rendering="optimizeQuality" fill-rule="evenodd" clip-rule="evenodd"><defs><style>.fil0{fill:#2b2a29}</style></defs><g id="Layer_x0020_1"><g id="_2407608472336"><path class="fil0" d="M27.13 9v.12c-.03.11-.02.06-.06.13 0 .29 0 .11-.06.18 0 .28 0 .12-.06.18v.06l-.06.12v.12l-.06.12v.12l-.06.12v.12l-.06.12c-.02.52-.22 1.18-.24 1.82-.01.3-.02.73.01 1.03.03.28.11.59.11.85l.06.06v.18l.06.12v.06l.06.12v.06l.06.12c.06.07.06-.11.06.18l.06.12.06.12.06.12.06.12c.14.1.32.41.45.58.17.22.37.35.52.57.21.06.14.02.24.18.17.04.09-.01.18.12.17.04.09-.01.18.12l.12.06.12.06.12.06.12.06.12.06h.06l.12.06h.06l.12.06h.06l.12.06h.12l.06.06h.18l.12.06h.24l.12.06h1.63c.07-.06-.11-.06.18-.06h.24l.06-.06c.69-.01 1.58-.48 2.18-.61l.06-.06h.12l.06-.06h.06l.06-.06h.06l.12-.06c.07-.06-.11-.06.18-.06l.12-.06 2.61-1.27c3.08-1.38 6.39-1.58 8.06 1.64.47.9.71 2.11.67 3.21-.03 1.02-.4 2.42-.73 3.15-.81 1.81-2.44 2.15-4.28 2.51-.31.06-.56.16-.87.16-.01.01-.03.01-.04.02-.01.02-.03.02-.04.02-.08.02-.08.02-.17.02-.07.06.11.06-.18.06h-.06c-.07.06.1.06-.18.06-.1.07.1 0-.16.08-.14.04-.03.02-.2.04-.07.06.11.06-.18.06-.07.06.11.06-.18.06l-1.19.69c-.19.15-.16.22-.39.28l-.06.06-.06.06-.06.06-.06.06-.06.12-.06.06-.06.06-.06.06-.06.12-.06.06-.06.12-.06.12-.06.06v.06l-.06.06v.06l-.06.12-.06.12v.06l-.06.12v.12l-.06.06c-.03.39-.12.71-.12 1.15 0 .43.06.79.06 1.15l.06.06v.18l.06.06v.12l.06.12v.06l.06.12v.06l.06.06v.06l.06.06v.06l.06.12v.06l.06.06.12.24.06.06v.06l.06.06.06.12.06.06c.2.4.5.69.72 1.03l.06.06.06.06.06.12.06.06.06.06.06.06.06.06.06.06.06.12.06.06.06.06.06.06.06.06.06.06c.27.18.58.56.83.8l.82.88c1.35 1.53 2.65 4.13.39 5.51-.27.17-.91.37-1.31.39-1.93.09-3.71-1.14-4.72-2.01l-3.35-3.38-.06-.06-.06-.06-.06-.06-.06-.06-.06-.06c-.35-.51-1.39-1.34-1.94-1.88-.29-.29-.68-.58-1.02-.86-.32-.27-.76-.58-1.1-.78l-.06-.06h-.06l-.06-.06h-.06l-.06-.06-.12-.06-.06-.06-1.69-.62c-.09-.03-.03 0-.14-.05-.17-.07-.04-.01-.12-.07h-.18c-.11-.03-.07-.02-.13-.06H25c-.29 0-.12 0-.18-.06-.29 0-.54-.04-.8-.05-.26-.01-.5.05-.78.05l-.12.06H23c-.07.06.1.06-.18.06-.07.06.11.06-.18.06-.12.11-.09.1-.3.12l-.07.06c-.23.18-.34.19-.64.45-.23.2-.38.43-.62.59l-.06.06c-.04.17.01.09-.12.18l-.06.06-.06.12-.06.06v.06l-.06.06-.06.06v.06l-.06.06v.06l-.06.06v.06l-.06.06c-.13.29-.36.71-.42 1.03l-.06.06v.12l-.06.06v.06l-.06.12v.06l-.06.12v.06l-.06.12v.06c0 .29 0 .11-.06.18 0 .29 0 .11-.06.18-.01.32-.43 1.62-.55 1.99-1.73 5.23-6.53 2.84-6.6.01-.03-1.26.31-2.09.7-3.12l.39-.94c0-.29 0-.12.06-.18l.06-.12v-.12l.06-.06c.02-.41.24-1.08.29-1.64.07-.78-.02-1.15-.11-1.82l-.06-.06v-.12l-.06-.12-.06-.12-.06-.12-.06-.12c-.18-.13-.3-.41-.5-.59-.1-.09-.19-.16-.31-.24-.18-.12-.23-.1-.35-.26-.29-.02-.51-.2-.91-.24a5.55 5.55 0 00-.47-.04c-.1 0-.34.04-.55.04h-.12c-.07.06.1.06-.18.06H10l-.06.06h-.12l-.06.06-.3.06-.06.06h-.12l-.06.06h-.06l-.06.06-.24.06-.06.06h-.06l-.06.06h-.06l-.06.06H8.5c-.15.2-2.24 1.28-2.45 1.37-3.89 1.54-6.98-.91-5.82-4.24 1.02-2.93 4.11-4.22 6.97-4.67 1.18-.19 2.38-.16 3.72-.16-.06.12-.09.28-.12.42l.18.73.06.06v.06l.06.06.06.06.3.3.79.24h.18c.06-.04 0-.03.13-.05.05-.01.12-.01.18-.01h.06l.12-.06h.06l.12-.06.12-.06c.09-.13.01-.08.18-.12.11-.16.2-.21.31-.35.12-.16.09-.2.29-.43 0-.28 0-.12.06-.18v-.06c0-.29 0-.12.06-.18l-.01-1.03-.06-.06v-.12l-.06-.12v-.06l-.06-.12v-.06l-.06-.06v-.06l-.06-.12-.06-.06-.06-.12-.06-.06-.06-.12-.06-.06-.06-.06-.06-.06-.06-.06-.06-.06-.06-.06-.06-.06-.06-.06-.06-.06-.06-.06-.12-.06-.06-.06-.06-.06c-.4-.23-1.18-.7-1.7-.79l-.06-.06h-.12l-.06-.06h-.06l-.12-.06h-.06l-.12-.06h-.12l-.12-.06h-.06c-.29 0-.11 0-.18-.06h-.12c-.11-.03-.07-.02-.13-.06-.28-.01-1.75-.43-2.07-.54-1.18-.39-2.52-1.14-3-2.34-.3-.76-.3-1.5.08-2.18.61-1.1 2.02-1.69 3.75-1.41.82.14 1.36.38 2.02.65l1.34.66c.07.03.12.06.2.1l.22.14.12.06.12.06.12.06.12.06h.06l.06.06h.06l.06.06h.12l.06.06c.4.16 1.35.56 1.76.61l.06.06h.18l.12.06h.24l.12.06c.88 0 1.41.05 2.2-.23.8-.29.94-.5 1.5-.86l.06-.06.06-.06.06-.06.06-.06.06-.06.06-.06.06-.06v-.06l.06-.06.06-.06.06-.06.06-.12.06-.06.06-.12c.04-.17-.01-.09.12-.18l.06-.12.06-.12.06-.12.06-.12.06-.12v-.06l.06-.12.06-.12v-.06l.06-.12v-.12l.06-.12c.19-1.29.36-2.58.36-4-.05-.07-.02 0-.05-.13-.01-.06-.01-.1-.02-.17v-.37c.01-2.17.03-4.96 2.24-6.24 1.4-.81 3.26-.34 4.23 1.16.37.58.68 1.47.68 2.41-.01 1.16-.13 1.8-.38 2.72-.04.16-.63 2.11-.78 2.32zM10.94 22.4z"/><path class="fil0" d="M21.19 7.3c-.01 1.42-.18 2.71-.36 4l-.06.12v.12l-.06.12v.06l-.06.12-.06.12v.06l-.06.12-.06.12-.06.12-.06.12-.06.12c-.04.17.01.09-.12.18l-.06.12-.06.06-.06.12-.06.06-.06.06-.06.06v.06l-.06.06-.06.06-.06.06-.06.06-.06.06-.06.06-.06.06c-.56.37-.7.58-1.5.86-.78.28-1.31.23-2.2.23l-.12-.06h-.24l-.12-.06h-.18l-.06-.06c-.41-.04-1.36-.45-1.76-.61l-.06-.06h-.12l-.06-.06h-.06l-.06-.06h-.06l-.12-.06-.12-.06-.12-.06-.12-.06c-.62-.05-3.78-2.13-6.01-1.22-1.16.47-2.11 1.84-1.42 3.2.78 1.55 2.21 2.12 3.89 2.6l.75.22c.09.03.03 0 .14.05.16.07.04.01.12.06h.12c.11.03.06.02.13.06.29 0 .11 0 .18.06h.06l.12.06h.12l.12.06h.06l.12.06h.06l.06.06h.12l.06.06c.52.09 1.3.55 1.7.79l.06.06.06.06.12.06.06.06.06.06.06.06.06.06.06.06.06.06.06.06.06.06.06.06.06.06.06.12.06.06.06.12.06.06.06.12v.06l.06.06v.06l.06.12v.06l.06.12v.12l.06.06.01 1.03c0 .29 0 .11-.06.18v.06c0 .29 0 .12-.06.18-.02.23-.09.3-.21.46-.12.16-.2.27-.4.33-.09.13-.01.08-.18.12l-.12.06-.12.06h-.06l-.12.06h-.06c-.07.04 0 .03-.13.06-.06.01-.12.01-.18 0h-.18c-.38 0-.63-.02-.79-.24-.2-.05-.25-.11-.3-.3l-.06-.06-.06-.06v-.06l-.06-.06-.18-.73c-.62-.41-.43-.19-1.15-.25-1.12-.09-.46.01-1.28 0-1.5-.01-4.37.83-5.71 1.81-.21.15-.35.29-.54.43-2.38 1.83-3.01 6.05.61 6.85 2.64.58 4.65-1.32 5.76-1.57h.06l.06-.06h.06l.06-.06h.06l.06-.06.24-.06.06-.06h.06l.06-.06h.12l.06-.06.3-.06.06-.06H10l.06-.06h.12c.07-.06-.11-.06.18-.06h.12l.09-.03c.07-.02.07-.02.15-.03.48-.09.88-.03 1.3.1.11.03.15.05.22.08.1.05.11.06.18.12.43.1 1.05.66 1.15 1.09l.06.12.06.12.06.12.06.12v.12l.06.06c.09.67.18 1.03.11 1.82-.05.56-.27 1.23-.29 1.64l-.06.06v.12l-.06.12c0 .29 0 .11-.06.18-.01.64-.99 2.54-.97 4 .03 1.83 2.14 3.58 4.22 2.7.75-.31 1.42-1.18 1.78-1.91.13-.26.26-.61.37-.9l.6-1.71c.06-.12.02-.05.06-.12 0-.29 0-.12.06-.18 0-.29 0-.12.06-.18v-.06l.06-.12v-.06l.06-.12v-.06l.06-.12v-.06l.06-.06v-.12l.06-.06c.07-.32.29-.74.42-1.03l.06-.06v-.06l.06-.06v-.06l.06-.06v-.06l.06-.06.06-.06v-.06l.06-.06.06-.12.06-.06c.04-.17-.01-.09.12-.18l.06-.06c.06-.24.38-.48.56-.65.16-.15.51-.42.77-.44.13-.11.09-.1.3-.12.07-.06-.11-.06.18-.06.07-.06-.11-.06.18-.06h.12l.12-.06c.28 0 .52-.05.78-.05.26.01.5.05.8.05.29 0 .11 0 .18.06h.24c.11.03.07.02.13.06h.06c.43.01 1.31.37 1.72.58l.22.14.06.06.12.06.06.06h.06l.06.06h.06l.06.06c.34.2.78.51 1.1.78.34.28.73.57 1.02.86.54.54 1.59 1.37 1.94 1.88l.06.06.06.06.06.06.06.06.06.06c.21.06.29.2.44.35l2.09 2.03c.61.59 2 1.78 2.74 2.17.61.32 1.66.76 2.61.73 1.89-.06 3.24-1.78 2.28-3.68-.7-1.39-2.77-3.55-2.83-3.78l-.06-.06-.06-.06-.06-.06-.06-.06-.06-.06-.06-.12-.06-.06-.06-.06-.06-.06-.06-.06-.06-.06-.06-.12-.06-.06-.06-.06c-.22-.34-.53-.63-.72-1.03l-.06-.06-.06-.12-.06-.06v-.06l-.06-.06-.12-.24-.06-.06v-.06l-.06-.12v-.06l-.06-.06v-.06l-.06-.06v-.06l-.06-.12v-.06l-.06-.12v-.12l-.06-.06v-.18l-.06-.06c0-.37-.07-.72-.06-1.15 0-.44.1-.76.12-1.15l.06-.06v-.12l.06-.12V29l.06-.12.06-.12v-.06l.06-.06v-.06l.06-.06.06-.12.06-.12.06-.06.06-.12.06-.06.06-.06.06-.06.06-.12.06-.06.06-.06.06-.06.06-.06c.22-.33 1.09-.93 1.58-.97.07-.06-.11-.06.18-.06.07-.06-.11-.06.18-.06.15-.13.1-.12.36-.12.07-.06-.11-.06.18-.06h.06c.07-.06-.11-.06.18-.06.01-.01.03-.04.04-.02.01.01.03-.02.04-.02.08-.02.08-.02.17-.02.07-.05-.01-.01.13-.06l1.36-.33c3.24-.92 3.87-1.98 4.14-5.31.1-1.2-.23-2.89-.88-3.84l-.43-.54c-2.02-2.11-4.65-1.51-7.07-.43-.38.17-2.46 1.09-2.71 1.11l-.12.06c-.07.06.11.06-.18.06l-.12.06h-.06l-.06.06h-.06l-.06.06h-.12l-.06.06c-.6.13-1.49.6-2.18.61l-.06.06h-.24c-.07.06.11.06-.18.06h-.3l-.09.04c-.01 0-.03.01-.05.01h-.76c-.13-.03-.06 0-.13-.05h-.3l-.12-.06h-.24l-.12-.06h-.18l-.06-.06h-.12l-.12-.06h-.06l-.12-.06h-.06l-.12-.06h-.06l-.12-.06-.12-.06-.12-.06-.12-.06-.12-.06c-.17-.04-.09.01-.18-.12-.17-.04-.09.01-.18-.12-.21-.06-.14-.02-.24-.18-.24-.06-.41-.3-.56-.48-.15-.18-.36-.44-.42-.68l-.06-.12-.06-.12-.06-.12-.06-.12c-.06-.07-.06.11-.06-.18l-.06-.12v-.06l-.06-.12v-.06l-.06-.12v-.18l-.06-.06c0-.26-.08-.57-.11-.85-.03-.29-.02-.73-.01-1.03.02-.64.22-1.29.24-1.82l.06-.12v-.12l.06-.12v-.12l.06-.12v-.12l.06-.12v-.06c0-.29 0-.12.06-.18 0-.29 0-.12.06-.18v-.12c.03-.11.02-.06.06-.13.01-.51 1.19-3.43 1.02-4.96C28 2.48 27.49.93 25.89.35c-1.68-.61-3.16.46-3.87 1.79-.31.58-.53 1.59-.61 2.36-.09.87-.19 1.93-.19 2.84z"/></g></g></svg>