<svg xmlns="http://www.w3.org/2000/svg" width="33.911" height="49.011" viewBox="0 0 26.19 37.86" shape-rendering="geometricPrecision" text-rendering="geometricPrecision" image-rendering="optimizeQuality" fill-rule="evenodd" clip-rule="evenodd"><path d="M13.02 35.49c-2.18 0-2.17-3.18 0-3.18 2.02 0 2 3.18 0 3.18zm.42 2.37h-.78c-1.17-.13-2.33-.83-2.92-2.04-.16-.32-.34-.84-.34-1.28l.36-4.3c.05-.49.04-.88.11-1.37l.5-5.57c-1.49-.35-2.51-.95-3.71-1.76-.55-.37-.98-.83-1.45-1.29-.84-.83-1.66-2.22-2.1-3.3-.72-1.78-.11-1.32-.95-1.71-1.86-.87-2.67-3.17-1.8-4.98.2-.42.39-.73.71-1.07.55-.59 1.56-1.11 2.42-1.13-.14-.26-.21-.29-.35-.54-.86-1.58-.68-3.21.54-4.52.56-.6 1.57-1.15 2.39-1.15 1.76 0 1.81.24 3.11 1.11.44-.91.15-.94 1.2-1.98C11.2.16 12.1 0 13.17 0c1.56 0 3.28 1.56 3.4 2.96.81-.22.69-1.11 3.18-1.11 1.24 0 2.61 1.11 3.11 2.22.3.67.4 1.32.28 2.2-.12.87-.51 1.25-.79 1.79.67 0 1.11.05 1.57.27.83.4 1.46.98 1.88 1.82.98 1.95.11 4.22-1.85 5.13-1.14.53-.42-.23-1.14 1.6-.72 1.84-1.99 3.5-3.56 4.65-1.89 1.38-2.63 1.28-3.63 1.76.01.39.12 1 .15 1.41.02.42.04.94.11 1.37.18 1.22.35 4.18.5 5.56.2 1.87.68 3.87-.9 5.26-.48.42-.39.35-.98.65-.32.17-.68.27-1.05.31zM6.74 9.39c1.18-.03 2.33-.9 2.89-1.77.16-.24.43-.8.44-1.18.27.07 2.09 1.96 4.56.72.79-.4.67-.53 1.06-.79.42 1.82 1.79 3.03 3.77 3.03-.61 1.15-.81 1.01-.81 2.66 0 1.36.88 2.41 1.7 2.96-.37.78-.24 1.03-.98 2.13l-.67.88c-.16.18-.18.27-.37.44-.18.16-.26.19-.45.37-2.48 2.37-7.21 2.39-9.8.07-.59-.53-1-.88-1.48-1.62-.3-.45-.92-1.58-.97-2.2.81-.19 1.92-1.73 1.92-3.03 0-1.62-.21-1.53-.81-2.66z"/></svg>