<svg xmlns="http://www.w3.org/2000/svg" width="50.241" height="38.64" viewBox="0 0 342.78 263.63" shape-rendering="geometricPrecision" text-rendering="geometricPrecision" image-rendering="optimizeQuality" fill-rule="evenodd" clip-rule="evenodd"><path d="M234.54 216.16c-1.73-13.04 8.07-23.34 18.97-24.58 12.8-1.46 22.96 7.9 24.38 19.03 1.65 12.88-8.14 22.82-18.85 24.34-12.88 1.82-23.03-7.6-24.51-18.78zm-21.58-56.96c-2.71-12.33 7.47-23.56 17.69-25.26 13.45-2.24 23.69 7.25 25.44 17.78 2.22 13.33-7.31 23.31-17.55 25.19-13.42 2.47-23.25-7.07-25.58-17.71zm-2.94-83.22c6.42-1.41 12.69 1.55 16.45 4.46 14.98 11.58 8.66 36.15-10.22 38.69-13.13 1.77-23.63-7.76-24.84-18.54-.79-7.02 1.23-12.64 4.78-16.93 3.56-4.31 6.95-6.17 13.84-7.68zm-11.09-28.42c-15.64 3.49-17.8 14.4-24.48 29.32-11.2 25.02-23.01 49.63-33.94 74.3-2.93 6.61-5.85 12.93-8.49 18.55-2.95 6.29-6.85 12.92-5.42 21.08 2.35 13.38 11.2 16.46 19.94 20.42 2.85 1.29 6.28 2.86 9.45 4.31l92.9 42.4c6.37 2.95 12.63 6.85 21.36 5.34 7.97-1.37 12.81-5.93 15.85-10.89 2.34-3.82 38.99-84.83 42.56-92.75 2.74-6.08 5.52-12.35 8.47-18.59 3.04-6.41 6.58-12.46 5.41-21.4-.88-6.73-6.1-12.83-11.04-15.81-2.61-1.57-6.05-2.88-9.05-4.28-3.64-1.71-5.94-2.64-9.47-4.32-23.2-11.05-50.65-23.24-74.26-33.93-6.79-3.07-12.21-5.64-18.59-8.48-6.37-2.84-13.04-7.1-21.22-5.27zM65.79 169.71c-1.63-13.38 7.27-22.87 18.37-24.79 12.28-2.12 23.36 7.32 24.84 18.35 1.73 12.94-7.09 23.03-18.46 24.81-12.62 1.97-23.44-7.73-24.74-18.37zM28.85 90.14C27.27 77.97 36.6 66.71 47.52 65.7c13.36-1.23 23.36 7.74 24.61 18.8 1.49 13.17-7.88 23.12-18.63 24.46-12.76 1.59-23.16-7.38-24.64-18.83zM125.86 29c12.88-2.84 23.36 7.49 25.21 17.35 2.55 13.5-6.96 23.35-17.32 25.47-12.26 2.52-23.76-6.34-25.52-17.29-2.08-12.9 5.47-22.85 17.63-25.53zm-15.44 175.04c.19-1.72-1.81-6.59-2.01-10.09-.52-9.16 5-18.57 9.19-27.62 10.59-22.86 20.35-45.16 30.81-67.39l23.07-50.49c3.18-6.97 3.74-3.6-2.55-17.08-2.67-5.72-5.32-11.34-7.83-16.82-5.99-13.1-19.09-17.99-31.96-12.05-5.54 2.55-11.5 5.35-16.84 7.85L28.56 49.38C17.06 54.72 5 57.78 1.02 70.7c-2.51 8.12.07 14.14 2.93 20.18l46.92 100.55c5.32 11.48 8.66 23.3 23.46 25.36 7.92 1.1 13.26-2.15 19.33-5.03 4.89-2.32 11.64-5.87 16.76-7.72z" fill="#010101"/><path d="M234.54 216.16c1.48 11.18 11.63 20.6 24.51 18.78 10.71-1.51 20.49-11.45 18.85-24.34-1.42-11.12-11.58-20.48-24.38-19.03-10.91 1.25-20.7 11.54-18.97 24.58zm-21.58-56.95c2.34 10.64 12.17 20.18 25.58 17.71 10.25-1.89 19.77-11.86 17.55-25.19-1.75-10.53-11.99-20.02-25.44-17.78-10.22 1.7-20.41 12.92-17.69 25.26zm-2.95-83.22c-6.89 1.51-10.28 3.38-13.84 7.68-3.55 4.29-5.56 9.9-4.78 16.93 1.21 10.78 11.71 20.3 24.84 18.54 18.89-2.55 25.2-27.11 10.22-38.69-3.76-2.91-10.03-5.87-16.45-4.46zM65.79 169.71c1.3 10.64 12.12 20.34 24.74 18.37 11.37-1.78 20.19-11.87 18.46-24.81-1.47-11.03-12.55-20.48-24.84-18.35-11.09 1.92-20 11.41-18.37 24.79zM28.85 90.14c1.48 11.45 11.88 20.42 24.64 18.83 10.75-1.34 20.12-11.29 18.63-24.46-1.25-11.06-11.25-20.03-24.61-18.8-10.92 1.01-20.25 12.26-18.67 24.44zm97-61.14c-12.16 2.68-19.71 12.64-17.63 25.53 1.76 10.95 13.26 19.81 25.52 17.29 10.36-2.13 19.87-11.98 17.32-25.47-1.86-9.86-12.33-20.19-25.21-17.35z" fill="#fbfbfb"/></svg>