<svg xmlns="http://www.w3.org/2000/svg" width="43.423" height="42.449" viewBox="0 0 58.15 56.84" shape-rendering="geometricPrecision" text-rendering="geometricPrecision" image-rendering="optimizeQuality" fill-rule="evenodd" clip-rule="evenodd"><path d="M8.72 22.96c0 .86.1 1.52.35 2.2.1.28.25.57.36.83.11.27.31.57.36.82-.66 0-1.1.06-1.72.06-1.35 0-4.22-.08-5.22.18-1.16.29-2.41 1.54-2.68 2.72-.09.37-.14 1.22-.16 2.27v7.41c0 .15.23.34.34.43.39.35 1.07.28 1.39-.12.2-.24.29-.34.51-.56 1.22-1.22 2.6-1.94 4.57-1.51 2.87.62 4.66 3.75 3.39 6.57-.13.3-.26.48-.44.75-1.49 2.25-4.54 2.87-6.67 1.26-.58-.44-.44-.34-.94-.84-.69-.69-.4-.82-1.38-.82-.37 0-.77.46-.77.83v8.19c0 .41.79 1.72 1.37 2.19l.72.53c.18.11.88.49 1.12.49h23.73c.53 0 1.81-.96 2.26-1.53.31-.39.48-.81.64-1.26.46-1.38.23-5.5.25-7.23.01-.51.06-.46-.22-.73-1.25-1.21-1.86 1.09-4.76 1.09-.67 0-1.39-.22-1.86-.45-.3-.15-.44-.23-.72-.41-1.18-.78-2.11-2.29-2.11-3.76 0-1.25.29-2.21 1-3.09.53-.66 1.21-1.23 2.08-1.54 3.34-1.2 4.62 1.08 5.53 1.08 1.03 0 1.07-.63 1.07-1.54l.06-3.68v-.95c0-.42-.06-.59-.06-.95-.02-1.88-.15-3.03-1.75-4.24-.25-.19-.96-.64-1.28-.68-.24-.03-.74-.01-1-.01-.41 0-.62-.05-.95-.06-.64-.02-1.32 0-1.96 0-.73 0-1.23-.06-1.96-.06.98-1.86 1.35-3.01.98-5.13-.09-.49-.22-.97-.37-1.35-.32-.78-.8-1.47-1.39-2.05-1.24-1.23-2.22-1.74-3.93-2-.3-.05-.55-.01-.85-.04-1.41-.15-2.81.4-3.89 1.11-.39.26-.6.48-.96.76-.42.33-1.2 1.44-1.45 1.99-.29.65-.59 1.91-.59 2.85zM32.69 5.99c-.53-.14-1.43-1.78-4.39-1.78-1.91 0-3.68.92-4.71 2.41-1.36 1.96-1.41 4.7-.06 6.69.22.32.4.5.66.76.56.56.85.75 1.6 1.13 1.19.6 1.73.57 3.05.57.25 0 .33-.04.48-.05.2-.01.2.05.47.05-.02.23-.12.43-.18.65l-.57 1.92c-.26.92-.56 1.85-.56 2.94 0 1.35.99 2.44 2.12 2.92l3.81 1.23c-.51.96-1.72 1.97-1.72 4.15 0 1.09.06 1.73.55 2.71.6 1.19 1.57 2.11 2.75 2.71 1.01.51 1.79.51 2.93.51 2.9 0 5.4-2.83 5.4-5.76 0-.58-.12-.92-.12-1.48.31.07.72.2 1.02.29l3.13.9c.83.18 1.44.22 2.28-.04.68-.21 1.19-.6 1.63-1.1.69-.8 1.09-2.84 1.46-3.94l.6-2.07c.11-.39.19-.68.3-1.06.24-.83.44-1.16-.02-1.66-1.07-1.17-2.16 1.54-5.11.54-1.04-.35-1.8-1.14-2.24-2.09-.37-.78-.34-2.28.02-3.03.36-.76 1.14-1.53 1.9-1.9 1.92-.92 3.99-.09 4.97 1.66.09.15.1.2.17.36.33.71.44.97 1.23.97.6 0 .84-.88 1.02-1.42.27-.81 1.59-5.1 1.59-5.88v-.16c0-.75-.02-.96-.39-1.7-.24-.48-.45-.68-.81-1.03-.46-.46-1.92-.86-2.6-1.07-1.86-.59-3.72-1.13-5.61-1.69-2.81-.84-7.1-2.14-9.97-2.85-.59-.15-1.12-.3-1.65-.33h-.42c-.53.04-1.07.22-1.67.68-.52.39-.86.78-1.13 1.42-.12.29-1.18 3.51-1.21 3.89z"/></svg>