<svg xmlns="http://www.w3.org/2000/svg" width="39.902" height="42.037" viewBox="0 0 238.69 251.46" shape-rendering="geometricPrecision" text-rendering="geometricPrecision" image-rendering="optimizeQuality" fill-rule="evenodd" clip-rule="evenodd"><defs><style>.fil0{fill:#000}.fil1{fill:#fff}</style></defs><g id="Layer_x0020_1"><g id="_2407443372208"><path class="fil0" d="M130.25 227.51c-4.83 3.79-17.11 3.9-21.85-.02-.12-2.54-.2-4.84-.64-7.33-.39-2.19-1.18-4.37-1.21-6.46 4.27.21 7.79 1.02 12.77 1.06 4.8.03 8.5-.74 12.85-.94-.67 5-1.67 7.98-1.91 13.68zm45.04-38.43c12.56-2.82 23.35 9.14 18.95 20.93-3.72 9.98-21.91 17.59-33.53 19.92-1.6.32-3.29.46-5.12.56-2.2.12-3.35.52-3.68-1.29-1.49-8.15 6.46-24.06 11.23-31.04 2.85-4.17 5.99-7.7 12.13-9.08zm-118.78-.03c13.72-2.82 19.73 9.89 24.23 18.03 2.2 3.98 4.72 11.04 5.47 15.62.28 1.7.5 3.14.53 4.91.03 2.27.22 2.7-1.97 2.88-3.05.25-6.87-.52-9.52-1.11-10.05-2.24-23.55-9.15-28.24-14.87-8.08-9.84-1.96-23.1 9.5-25.46zM41 150.48c-1.51 1.47-4.07 2.74-5.96 4.01-7.41 4.98-17.48 2.85-21.8-3.44-4.8-7-2.15-16.18 5.41-19.81 1.68-.8 5.41-2.48 7.14-2.69 2.65 3.03 5.52 7.72 7.81 11.08 1.76 2.58 6.41 8.48 7.4 10.85zm156.45 0c.21-1.21 14.24-20.44 15.82-21.86 4.43.87 9.83 3.67 12.47 7.77 5.66 8.79-.65 22.13-15.02 20.72-4.43-.43-9.63-4-13.27-6.63zm-25.71-3.71c7.51 3.06 24.76 18.22 35.43 20.38 29.5 5.97 44.31-32.27 17.47-45.38-7.98-3.9-29.08-12.16-39.39-16.38-5.24-2.14-8.85-4.8-12.92-.22-5.7 6.43-11.52 11.24-21.42 15.17-21.25 8.44-57.27 7.35-75.51-6.63-4.14-3.17-5.98-5.18-9.3-8.77-4.04-4.38-8.39-1.34-13.33.69-10.35 4.27-30.67 12.17-38.78 16.13-21.26 10.38-16.28 37.63 1.45 44.06 4.9 1.77 11.23 2.41 16.74 1.17 9.83-2.22 27.81-17.44 34.7-20.23-.46 1.87-8.79 17.33-10.4 20.55-1.68 3.38-3.3.88-11.81 3.84-19.21 6.69-28.9 30.62-19.17 49.63 11.74 22.93 63.32 41.95 78.13 22.59 1.06-1.39 1.72-3.3 2.85-4.8 4.59.71 6.77 2.41 12.81 2.41 6.01 0 8.2-1.66 12.81-2.42 2.22 2.9.9 3.5 5.79 7.75 2.58 2.24 5.32 3.34 9.2 4.25 8.03 1.89 16.57.49 23.9-1.53 68.1-18.71 50.69-77.32 11.98-80.16l-11.27-22.12z"/><path class="fil0" d="M80.88 42.96c1.95.74 2.5 2.45 5.65 3.51 11.21 3.75 15.31-8.39 18.27-9.89 3.62 2.17 5.34 10.56 14.52 10.52 9.09-.04 11.02-8.89 14.52-10.54 2.82 1.34 6.75 13.43 17.94 9.98 3.18-.98 4.38-3.15 5.98-3.6 5.67 12.36 7.19 33.34.39 45.23-6.61 11.57-20.17 16.55-38.82 16.55-30.44 0-44.17-12.9-43.28-39.21.23-6.95 2.17-16.93 4.85-22.57zm-2.24-18.81c-2.47-.31-6.3-1.72-9.32-2.31-10.73-2.09-20.9-.39-30.39 3.58-10.17 4.26-19.11 12.69-23.85 22.8-2.68 5.71-4.22 12.09-4.25 18.98-.03 8.29 9.25 6.13 16.45 5.51 7.27-.63 13.63-1.81 20.43-3.36 3.23-.74 5.97-1.68 9.15-2.69 3.04-.96 5.55-2.42 8.51-3.34-2.09 34.89 18.55 51.91 53.94 51.91 35.41 0 55.97-16.96 53.95-51.92 5.5 1.67 8.84 4.05 18.06 6.12 6.64 1.49 13.15 2.67 20.4 3.3 7.93.69 16.36 2.81 16.05-6.38-.23-6.7-1.62-12.81-4.36-18.42-7.94-16.31-24.89-26.47-43.45-26.94-11.21-.28-14.12 2.38-19.98 3.16-2.54-2.93-4.82-6.37-7.33-8.95C144.57 6.92 132.45 0 119.32 0c-9.94 0-18.13 3.65-24.58 7.99-8.42 5.67-9.57 8.45-16.1 16.15z"/><path class="fil1" d="M98.03 85.73c-1.72-4.79 3.3-8.78 7.76-6.31 4.13 2.27 5.58 3.89 11.81 4.31 5.03.34 9.43-.64 12.94-2.86 1.36-.86 3.23-2.44 5.76-2.14 2.22.26 4.01 1.98 4.43 3.75 1.77 7.42-12.76 11.51-19.68 11.75-4.92.17-9.48-.44-13.62-1.96-3-1.11-8.49-4.02-9.4-6.54zm37.8-26.8c-1.7-7.13 9.21-8.8 10.42-2.42 1.36 7.17-9.04 8.21-10.42 2.42zm-32.98-.41c-1.56 6.81-11.76 4.85-10.46-2.01 1.23-6.49 11.95-4.51 10.46 2.01zM80.88 42.96c-2.67 5.64-4.61 15.62-4.85 22.57-.88 26.31 12.84 39.21 43.28 39.21 18.65 0 32.21-4.99 38.82-16.55 6.8-11.89 5.29-32.88-.39-45.23-1.6.45-2.8 2.62-5.98 3.6-11.19 3.45-15.12-8.64-17.94-9.98-3.49 1.65-5.43 10.49-14.52 10.54-9.18.04-10.9-8.36-14.52-10.52-2.95 1.5-7.06 13.64-18.27 9.89-3.15-1.06-3.7-2.77-5.65-3.51zm94.41 146.11c-6.14 1.38-9.28 4.91-12.13 9.08-4.77 6.98-12.72 22.88-11.23 31.04.33 1.82 1.48 1.41 3.68 1.29 1.82-.1 3.52-.24 5.12-.56 11.61-2.33 29.81-9.94 33.53-19.92 4.4-11.79-6.39-23.75-18.95-20.93zm-118.78-.03c-11.46 2.36-17.58 15.62-9.5 25.46 4.69 5.72 18.2 12.63 28.24 14.87 2.65.59 6.47 1.36 9.52 1.11 2.19-.18 2-.62 1.97-2.88-.03-1.77-.25-3.21-.53-4.91-.75-4.58-3.27-11.64-5.47-15.62-4.5-8.14-10.51-20.85-24.23-18.03zm140.94-38.57c3.63 2.63 8.84 6.2 13.27 6.63 14.38 1.41 20.69-11.93 15.02-20.72-2.64-4.09-8.04-6.9-12.47-7.77-1.58 1.42-15.61 20.66-15.82 21.86zm-156.45 0c-.99-2.37-5.65-8.27-7.4-10.85-2.29-3.36-5.15-8.06-7.81-11.08-1.74.21-5.46 1.89-7.14 2.69-7.56 3.62-10.21 12.81-5.41 19.81 4.32 6.29 14.39 8.42 21.8 3.44 1.89-1.27 4.46-2.53 5.96-4.01z"/><path class="fil0" d="M98.03 85.73c.91 2.52 6.39 5.43 9.4 6.54 4.14 1.52 8.7 2.13 13.62 1.96 6.92-.24 21.45-4.34 19.68-11.75-.42-1.77-2.21-3.49-4.43-3.75-2.53-.29-4.4 1.29-5.76 2.14-3.51 2.21-7.91 3.2-12.94 2.86-6.23-.42-7.68-2.04-11.81-4.31-4.46-2.46-9.48 1.52-7.76 6.31z"/><path class="fil1" d="M108.39 227.49c4.74 3.92 17.02 3.81 21.85.02.25-5.71 1.25-8.69 1.91-13.68-4.34.2-8.05.97-12.85.94-4.98-.03-8.5-.84-12.77-1.06.03 2.08.82 4.26 1.21 6.46.44 2.49.52 4.79.64 7.33z"/><path class="fil0" d="M102.84 58.52c1.49-6.52-9.22-8.5-10.46-2.01-1.3 6.86 8.9 8.82 10.46 2.01zm32.98.41c1.37 5.79 11.78 4.75 10.42-2.42-1.21-6.38-12.11-4.7-10.42 2.42z"/></g></g></svg>