<svg xmlns="http://www.w3.org/2000/svg" width="59.578" height="33.888" viewBox="0 0 113.27 64.43" shape-rendering="geometricPrecision" text-rendering="geometricPrecision" image-rendering="optimizeQuality" fill-rule="evenodd" clip-rule="evenodd"><defs><style>.fil0{fill:#000}</style></defs><g id="Layer_x0020_1"><g id="_2407484032896"><path class="fil0" d="M56.16 27.02c1.11-.22 7.84-.19 9.24-.06 3.3.29 3.19 4.66.44 5.22-1.03.21-8.14.19-9.37.05-3.16-.35-3.28-4.62-.32-5.21zm4.44-19c3.22-.55 8.65 2.33 10.65 3.72 2.23 1.55 5.73 4.8 6.83 7.36.41.53.24-.68.37.67l-31.35-.05.05-12.09c2.29-.17 12.09-.51 13.44.4zM21.08 19.08c.04-1.09 1.51-5.86 2-7.13.68-1.78 2.66-4.01 4.84-3.93.29-.28.01-.16.54-.34l11.38-.07-.07 12.15-19.01-.03.31-.64zM30.03-.01c-13.37 0-14.25 11.2-16.97 19.67-.83 2.59-2.86.75-4.85 7.14 2.67.55 6.76-.88 6.75 2.79-.02 3.46-4.07 2.62-6.91 2.67l-.04 3.84c-2.67.88-4.08.87-5.83 2.97C1.04 40.44-.15 42.8.03 45.44c.45 6.62 5.37 8.31 10.96 8.26.58-6.31.34-9.22 5.02-14.8 2.29-2.73 7.32-6.44 12.71-6.44 7 0 10.65 1.24 15.7 6.61 4.5 4.78 4.28 10.01 4.85 14.64l19.16-.12c.33-7.3 1.47-11.02 5.28-15.11 8.06-8.65 20.42-7.9 27.67.13 5.01 5.55 4.63 9.25 5.25 15.09 3.98 0 6.57-.15 6.57-4.62 0-10.07 1.21-12.74-5.47-12.96-.24-3.31.34-5.78-.69-8.87-3.13-9.4-12.84-7.48-20.23-7.58C81.13 7.36 71.55-.02 57.7-.02H30.04z"/><path class="fil0" d="M28.55 47.99c5.25-2.35 8.63 6.1 3.29 8.47-2.68 1.19-5.08-.5-5.82-2.38-.94-2.39-.11-4.91 2.52-6.09zm13.15 6.05c.95-7.25-3.88-12.84-9.73-13.86-6.78-1.19-12.65 4.12-13.45 10.18-.97 7.32 3.94 13 9.83 13.93 6.87 1.08 12.56-4.19 13.35-10.25zm44.5-6.19c5.81-1.76 8.09 7.03 2.59 8.81-5.61 1.81-8.13-7.13-2.59-8.81zm-10.31 6.19c.75 5.85 6.33 11.25 13.16 10.28 5.99-.85 10.9-6.46 10.06-13.75-.7-6.07-6.36-11.45-13.26-10.42-5.92.88-10.9 6.62-9.96 13.9z"/><path d="M78.08 19.1c-1.11-2.56-4.6-5.82-6.83-7.36-2.01-1.39-7.43-4.27-10.65-3.72-.24.06-11.79-.15-13.22-.18v11.59h29.93c.92-.13.35.05.77-.33zm-57.01-.01c.45.68 7.76.33 8.95.33 3.17 0 6.38.06 9.54-.02l-.01-11.5c-3.83-.19-8.09.26-11.63.13-2.18-.08-4.16 2.15-4.84 3.93-.49 1.28-1.96 6.05-2 7.13zm35.09 7.93c-2.97.59-2.84 4.86.32 5.21 1.23.13 8.34.16 9.37-.05 2.74-.56 2.86-4.93-.44-5.22-1.4-.12-8.14-.16-9.24.06zM86.2 47.85c-5.55 1.68-3.02 10.61 2.59 8.81 5.51-1.78 3.22-10.57-2.59-8.81zm-57.65.14c-2.63 1.18-3.46 3.7-2.52 6.09.74 1.88 3.13 3.58 5.82 2.38 5.34-2.38 1.96-10.83-3.29-8.47z" fill="#fff"/><path d="M78.08 19.1c-.42.38.15.2-.77.33H47.38V7.84c1.43.03 12.98.25 13.22.18-1.35-.91-11.15-.56-13.44-.4l-.05 12.09 31.35.05c-.13-1.35.04-.14-.37-.67zm-57.01-.01l-.31.64 19.01.03.07-12.15-11.38.07c-.53.17-.25.06-.54.34 3.54.13 7.81-.32 11.63-.13l.01 11.5c-3.16.08-6.38.02-9.54.02-1.19 0-8.5.35-8.95-.33z" fill="#c6c6c6"/></g></g></svg>