<svg xmlns="http://www.w3.org/2000/svg" width="36.391" height="38.155" viewBox="0 0 29.88 31.33" shape-rendering="geometricPrecision" text-rendering="geometricPrecision" image-rendering="optimizeQuality" fill-rule="evenodd" clip-rule="evenodd"><defs><style>.fil3{fill:#6c6c6c}.fil1{fill:#888}</style></defs><g id="Layer_x0020_1"><g id="_2407696980928"><path d="M18.23 25.04c.01-.07 0-.12.03-.19.06-.21.04-.1.08-.15.34-1.29 1.82-2.51 3.55-2.26 1.47.22 2.74 1.49 2.77 3.14.06 3.55-4.97 4.63-6.28 1.12a.076.076 0 01-.02-.04l-.06-.24c-.1-.62-.04-.82-.05-1.38zm-6.69-.34c.03.05.02-.04.08.15.02.07.02.13.03.19-.02.57.05.77-.05 1.38-.02.17.02 0-.02.16-.02.07-.04.09-.04.08 0-.01-.02.02-.02.04-.47 1.25-1.81 2.44-3.65 2.11-1.43-.26-2.69-1.61-2.63-3.28.05-1.64 1.32-2.89 2.81-3.09 1.71-.23 3.17 1 3.5 2.26zm-.3-10.65c.02-.12-.01-.03.03-.15.06-.19.02-.04.07-.12.37-.48.48-1.33 1.28-.92.53.27 1.08.59 1.61.84.18-.15.32-.36.67-.37.37-.01.56.18.67.38.29-.09.76-.38 1.05-.53.26-.13.82-.55 1.13-.42.54.24 1.44 2.05.68 3.56-.91 1.81-1.22.53-2.87-.04-.1.2-.3.39-.66.38-.37-.01-.47-.21-.67-.37-1.57.75-1.89 1.36-2.45.64-.65-.84-.8-1.65-.53-2.89zm.02-3.92c-.14-.22-.07-.78-.04-1.04l.09-.31c.07-1.19 1.05-2.26 2.06-2.47l.31-.11c.52-.01.93-.12 1.52-.09 1.35.06 2.54.5 3.09 1.8.62 1.46.59 4.07-1.97 3.85-.08-.01-.12-.01-.19-.04-.09-.04-.05-.03-.1-.07-.77-.2-.63-.64-.63-1.01 0-.48-.04-1.14.02-1.59.13-.14.17-.13.28-.23.07-.07.16-.19.23-.29.12-.17.25-.45.26-.71.02-.65-.68-.75-1.28-.75-.62 0-1.3.12-1.24.8.05.6.45.91.77 1.18.01.45.08 1.91-.02 2.23-.35.47-1.34.68-2.05.37-.46-.2-1.14-.8-1.09-1.5zm5.34-5.56c.65-.3 1.02.72.42.96-.67.27-1.1-.65-.42-.96zm-3.68-.03c.7-.2.93.8.36 1-.73.26-1.04-.8-.36-1zm6.86-2.44c.4-.27.71-.59 1.48-.46 1.78.29 1.77 2.94.1 3.23-.14-.19-.32-.94-.68-1.51l-.9-1.25zM8.53 4.78l-.07.11-.11-.07c-.86-.21-1.48-1.44-.87-2.42.6-.97 1.91-1.03 2.57-.3-.05.12-1.38 1.53-1.53 2.68zm-.16 3.46c.02.04.04.05.07.16.02.07.02.13.02.19.13.53.34.97.58 1.41.26.46.75 1.08.81 1.2-.44.2-.98.55-1.41.79l-6.93 3.96c-.97.56-1.56 1.28-1.51 2.79.1.19.07.18.09.33.08.65.66 1.22 1.01 1.49.56.42 1.1.5 1.95.49.04-.02-.02-.01.11-.06.02-.01.06-.02.08-.02.08-.02.14-.01.19-.02l.28-.1c.29-.15.51-.28.79-.43.2-.11.61-.44.77-.37l-.1.25c-.08.32-.21.84-.47 1.05-.69.57-1.68 1.96-1.71 2.75l-.13.36c-.01.36-.1.74-.11 1.16 0 .44.09.78.1 1.17l.13.36c.02.39.4 1.09.58 1.4.28.47.51.74.86 1.09.52.52 1.8 1.42 2.5 1.44l.37.13c.33.02.63.09 1 .1 1.61.04 2.83-.53 3.99-1.5.2-.17.33-.33.53-.55.86-.92-.19-.61 2.11-.59 2.22.02 1.25-.4 2.11.59a5.83 5.83 0 003.43 1.97c1.08.2 1.49-.02 1.99.02.07-.07-.03-.01.09-.06.02-.01.1-.03.13-.04.09-.02.17-.05.26-.07.35-.01 1.14-.41 1.41-.58.46-.29.75-.52 1.09-.86.53-.53 1.4-1.77 1.44-2.49l.13-.36c.01-.43.12-.82.1-1.33-.02-.45-.08-.78-.16-1.21-.02-.03-.03-.01-.06-.12-.04-.12 0 0-.03-.16-.24-.86-.89-1.89-1.45-2.42-.12-.11-.33-.24-.41-.36-.08-.11-.35-.97-.4-1.14-.03-.04-.12.04-.03-.13.16.02.1.05.13.09.34.26 1.03.61 1.45.82l.28.1c.07.01.15.01.23.03.21.05.11.04.15.07 1.09.02 1.52-.13 2.18-.67.44-.36.87-1.13.87-2 .01-1.84-1.44-2.35-2.64-3.06l-7.25-4.18c.33-.57.67-.71 1.18-2 .37-.96.38-1.59.45-2.68 1.39-.33 2.49-1.37 2.61-3.03.11-1.54-1.11-3.06-2.29-3.28l-.32-.1c-.7-.09-1.18-.1-1.83.16-.84.33-1 .69-1.31.87-.84-.47-1.55-.82-2.63-.97-1.4-.19-1.95.01-3.14.3l-.25.11c-.44.12-.79.42-1.13.54-.37-.26-.48-.52-1.18-.81-1.57-.65-3.24 0-4.06 1.33-.59.97-.62 2.11-.12 3.15.49 1.01 1.23 1.4 2.21 1.73.02.7.05 1.11.17 1.78z"/><path class="fil1" d="M11.25 10.13c-.02-.52.02-.85.05-1.35l-.09.31c-.03.26-.1.82.04 1.04zm11.21 21.13c.11-.01.14-.01.26-.05.02-.01.09-.03.12-.04.12-.06.02 0 .09-.07-.08.02-.17.04-.26.07-.02.01-.11.03-.13.04-.13.05-.02-.01-.09.06zM2.87 24.47l.13-.36c-.1.09-.01-.11-.1.12-.03.08-.03.16-.03.24zM8.46 8.59c-.01-.07 0-.12-.02-.19-.03-.11-.05-.12-.07-.16.02.19.02.21.1.35z"/><path d="M24.61 20.08c.03-.06-.07-.06.1-.04-.03-.04.03-.07-.13-.09-.09.17-.01.09.03.13z" fill="#3d3d3d"/><path class="fil3" d="M.09 19.08c-.01-.15.02-.15-.09-.33.02.2 0 .18.09.33z"/><path class="fil1" d="M7.31 31.23l-.37-.13c.06.06-.06.03.17.1.08.02.12.02.2.03zm19.57-4.06c.1-.11 0 .12.09-.14.03-.07.03-.15.04-.22l-.13.36zm-23.89 0l-.13-.36c.01.05.01.12.03.18.06.2.04.11.1.18z"/><path class="fil3" d="M26.83 21.06c-.05-.03.06-.02-.15-.07-.08-.02-.16-.02-.23-.03l.39.1z"/><path class="fil1" d="M26.96 24.27c-.02-.11.01-.04-.03-.15 0-.01-.01-.03-.02-.04 0-.01-.02-.03-.02-.04 0-.01-.02-.03-.02-.04.02.17-.01.04.03.16.04.1.04.09.06.12z"/><path class="fil3" d="M3.05 21.06l.39-.1c-.06 0-.12 0-.19.02-.02 0-.06.01-.08.02-.14.05-.07.04-.11.06zm15.18 3.98l.11-.34c-.04.05-.02-.06-.08.15-.02.08-.02.12-.03.19zm-6.58 0c-.01-.06 0-.12-.03-.19-.06-.19-.05-.1-.08-.15l.11.34z"/><path class="fil1" d="M13.36 6.31c.09-.01.11 0 .19-.03s.07-.04.12-.08l-.31.11z"/><path class="fil3" d="M21.94.16c-.09-.06.09 0-.11-.07-.08-.02-.12-.02-.21-.03l.32.1z"/><path class="fil1" d="M16.31 11.75l-.29-.11c.05.05.01.04.1.07.07.03.11.03.19.04z"/><path class="fil3" d="M8.35 4.83l.11.07.07-.11c-.1.05-.02.03-.17.04zm2.89 9.22l.09-.27c-.05.08-.01-.07-.07.12-.04.12-.01.04-.03.15zm.27 12.65c.01-.01.02-.05.02-.04 0 .01.02-.01.04-.08.05-.16 0 .01.02-.16l-.09.28z"/><path class="fil1" d="M12.47.53l.25-.11c-.17.03-.02-.03-.14.03-.18.08-.01-.01-.1.07z"/><path class="fil3" d="M18.37 26.7l-.09-.28.06.24c0 .01.02.02.02.04z"/><path class="fil1" d="M5.18 20.31l.09-.25zm21.26.65l-.28-.1zm-23.01 0l.28-.1z"/></g></g></svg>