<svg xmlns="http://www.w3.org/2000/svg" width="36.141" height="36.141" viewBox="0 0 39.94 39.94" shape-rendering="geometricPrecision" text-rendering="geometricPrecision" image-rendering="optimizeQuality" fill-rule="evenodd" clip-rule="evenodd"><defs><style>.fil0{fill:#000}</style></defs><g id="Layer_x0020_1"><g id="_2407521049312"><path class="fil0" d="M12.84 25.67H27.1v2.85H12.84v-2.85zm8.56-7.85c0-.45.17-1.12.33-1.45.18-.37.45-.8.72-1.07 2.24-2.24 6.08-.59 6.08 2.52 0 3.6-5.04 5.08-6.8 1.45-.16-.33-.33-1.01-.33-1.45zm-9.98 0c0-2.51 2.73-4.34 5.02-3.23.37.18.8.45 1.07.72 1.37 1.37 1.37 3.66 0 5.03-.27.27-.7.54-1.07.72-.88.43-2.02.43-2.9 0-.88-.43-1.36-.9-1.78-1.78-.16-.33-.33-1.01-.33-1.45zm-4.28-5.28v20.25h25.67V12.54c0-2.79-2.63-5.42-5.42-5.42H12.56c-1.55 0-2.97.86-3.76 1.66-.79.79-1.66 2.21-1.66 3.76zm-5.71 27.4h37.08v-5.71H1.43zM0 18.33v6.13c0 1.32 1.32 2.64 2.64 2.64h3.07V15.69H2.64C1.32 15.69 0 17.01 0 18.33zm34.23 8.77h3.07c1.32 0 2.64-1.32 2.64-2.64v-6.13c0-1.32-1.32-2.64-2.64-2.64h-3.07V27.1zM14.34 5.71h11.27c0-2.62-2.58-5.71-5.28-5.71h-.71c-2.73 0-5.28 3.11-5.28 5.71zM1.43 3.35v.43c0 .81.75 1.63 1.43 1.78v8.7h1.43v-8.7c.77-.18 1.43-1.08 1.43-1.78v-.43c0-.92-1.01-1.93-1.93-1.93h-.43c-.92 0-1.93 1.01-1.93 1.93z"/><path class="fil0" d="M12.84 17.62v.43c0 .92 1.01 1.93 1.93 1.93h.43c.92 0 1.93-1.01 1.93-1.93v-.43c0-.92-1.01-1.93-1.93-1.93h-.43c-.92 0-1.93 1.01-1.93 1.93zm9.98 0v.43c0 .92 1.01 1.93 1.93 1.93h.43c.92 0 1.93-1.01 1.93-1.93v-.43c0-.92-1.01-1.93-1.93-1.93h-.43c-.92 0-1.93 1.01-1.93 1.93z"/></g></g></svg>