<svg xmlns="http://www.w3.org/2000/svg" width="87.91" height="96.1" viewBox="0 0 341.79 373.64" shape-rendering="geometricPrecision" text-rendering="geometricPrecision" image-rendering="optimizeQuality" fill-rule="evenodd" clip-rule="evenodd"><path d="M159.37 59.38C119.13 66.13 92 89.6 80.08 123.91c-8.75 25.19-6.32 55.46 7.05 78.32 7.29 12.47 11.93 17.71 22.01 26.55 28.82 25.29 72.46 30.78 108.93 10.34 6.61-3.71 14.7-9.91 20.3-15.04 2.35-2.16 3.63-4.34 5.79-6.71 33.72-37.11 30.34-100.77-11.7-136.2-16-13.48-44.15-26.63-73.08-21.78zm-2.18-16.17c25.77-4.1 57.83 4.39 78.17 19.59 2.73 2.04 5.66 3.87 8.07 5.94 1.45 1.25 2.13 2.38 3.62 3.7 6.17 5.46 3.25 3.29 7.31 7.44 32.36 33.09 38.29 89.4 14.39 131.2-4.76 8.32-12.09 18.16-18.29 24.37-29.14 29.18-75.74 40.7-115.39 26.95-16.48-5.71-32.1-15.44-44-27.34-6.72-6.72-12.6-14.95-17.96-23.96-15.63-26.23-19.2-62.47-8.8-91.91 7.98-22.59 16.41-33.16 30.91-47.08 1.36-1.31 1.85-2.11 3.27-3.32 16.62-14.09 35.5-21.88 58.7-25.57zM176.61-.01h-11.37c-28.34 19.79-23.1 34.61-51.42 29.85-10.1-1.7-26.76-6.56-35.09-.67-9.2 6.5-8.87 17.72-10.86 31.03-2.34 15.67-2.31 19.96-14.93 26.3-7.34 3.69-22.16 10-27.26 14.64-19.59 17.81 14.18 40.5 11.25 59.84-1.86 12.31-19.49 30.84-17.07 43.79 1.13 6.07 4.81 10.2 8.76 12.56 8.78 5.27 19.01 8.91 27.8 14.11 20.27 11.99 3.97 48.39 25.78 57.32 7.57 3.1 27.95-1.89 36.63-3.29 25.61-4.13 32.07 31.18 52.04 31.32 19.93.14 26.6-34.98 51.52-31.4 8.74 1.26 28.76 6.15 36.23 3.79 11.47-3.61 12.52-14.46 14.47-27.45 2.1-13.95 1.56-23.39 11.47-29.7 8.39-5.35 19.1-8.97 27.75-14.15 24.74-14.81-3.99-39.18-7.3-56.28-3.77-19.47 30.07-41.35 11.88-59.72-5.49-5.54-18.84-10.88-26.98-14.93-17.83-8.86-13.89-17.18-18.51-44.07-4.09-23.75-28.57-15.45-42.73-13.17-22.24 3.58-22.58-2.24-40.13-20.13-8.32-8.48-3.76-3.71-11.93-9.6zM51.12 373.63h13.16l69.03-69.12c-5.27-9.56-11.98-6.64-24.32-4.65-15.84 2.54-36.38 7.36-47.48-13.9-3.97-7.6-4.17-18.04-5.91-27.03-2.87 1.77-40.08 39.58-43.3 42.85-2.72 2.77-8.88 8.18-10.8 11.27-3.69 5.92.04 12.34 4.71 14.23 3.61 1.46 13.27 2.82 17.67 3.6l16 3.15c1.77.76.39-.13 1.52.96 1.26 1.55 4.95 25.04 6.05 30.48 1 4.95 1.49 5.03 3.67 8.17zm226.49 0h13.12c2.37-3.5 2.74-3.27 3.82-8.76 1.55-7.92 4-24.32 5.75-30.22 7.01-3.59 28.44-3.92 35.88-7.6 4.94-2.44 7.78-9.14 3.57-14.85l-42.87-43.19c-1.66-1.69-8.33-9.66-10.66-9.65-1.54 9.34-2.12 19.52-6.13 27.05-11.19 20.99-32.05 15.9-47.81 13.36-12.48-2.01-18.23-4.62-23.67 4.7l51.8 51.76c5.34 5.3 12.73 11.94 17.22 17.39zM156.47 197.41c4.07 0 9.25-.74 9.25-7.15 0-7.15-7.89-7.03-11.59-7.03h-29.46c5.06-6.9 6.53-8.26 19.23-18.49 15.17-12.33 20.22-21.2 20.22-31.07 0-8.88-4.69-17.14-12.33-21.45-6.29-3.57-15.41-3.7-17.63-3.7-23.42 0-30.08 17.14-30.08 25.15 0 5.06 3.7 7.28 7.15 7.28 5.42 0 6.66-3.95 9.12-11.1.86-2.46 4.93-8.75 13.56-8.75 6.41 0 13.81 3.95 13.81 13.07 0 8.38-5.92 13.93-18.74 24.66-10.6 8.88-25.03 20.83-25.03 30.45 0 6.41 6.04 8.14 10.73 8.14h41.79zm81.37-43.27c0-21.08-4.07-29.1-8.63-35.01-2.84-3.7-9.49-10.48-22.32-10.48-30.21 0-30.82 32.3-30.82 45.86 0 42.53 23.79 44.38 31.07 44.38 10.6 0 19.73-5.55 25.03-14.92 4.81-8.38 5.67-19.72 5.67-29.83zm-16.64-1.11c0 19.23-1.97 33.66-14.3 33.66-12.45 0-14.18-15.53-14.18-33.16 0-17.26 1.73-32.67 14.18-32.67 11.34 0 14.3 12.08 14.3 32.18z" fill="#898989"/></svg>