<svg xmlns="http://www.w3.org/2000/svg" width="88.032" height="114.401" viewBox="0 0 217.32 282.42" shape-rendering="geometricPrecision" text-rendering="geometricPrecision" image-rendering="optimizeQuality" fill-rule="evenodd" clip-rule="evenodd"><path d="M182.86 169.99h22.38c.03 2.27-.29 5.15-.62 7.07-1.03 5.93-2.35 13.01-4.85 18.22-.51 1.07-.66 1.35-1.09 2.59l-2.53 5.16c-.55.9-.83 1.63-1.42 2.59-.55.91-.86 1.28-1.41 2.26l-3.16 4.54c-.61.76-1.15 1.6-1.63 2.39-1.02-.26-1.2-.47-2.05-.95-.74-.41-1.22-.56-2.05-.96l-12.94-5.44c.7-2.92 1.6-5.37 2.22-8.5.64-3.23 1.17-5.64 1.65-9.04.71-5.02 1.51-9.57 1.49-14.58-.01-2.16.34-2.99.32-5.34h5.72zm-19.78-43.46l3.74 16.67c.15.73 1.83 16.22 1.5 17.63l-.21.45c-.9.79-27.51.3-31.09.32-7.48.04-6.39.52-6.34-3.31v-27.41H133l30.07-4.35zm-47.09 3.99c2.17 0 3.5.33 5.98.34v16.72c0 .85.28 13.07-.35 13.71-.77.79-31.3.29-34.44.33-1.87.02-3.31.53-3.27-1.2l1.85-17.94 3.77-15.96 6.34 1.35c4.72 1.08 8.68 1.65 13.43 2.01 2.43.18 3.86.65 6.69.65zm-68.93 30.47c0-1.8.52-5.13.87-6.86.46-2.24.72-4.5 1.13-6.58 1.05-4.53 3.35-10.69 5.24-15.13l1.86-3.81c.8-1.63 6.7-10.9 7.94-11.8.95.24 3 1.48 4.06 1.96l8.53 3.49c1.72.57 2.38 1.14 4.15 1.55.01 2.15-.65 2.8-1.1 4.63-.98 3.98-3.72 18.64-3.94 22.81-.11 2.18.02 8.73-.67 10.03-1.75.9-23.05.37-27.09.34-.93-.22-.49.05-1-.64zm130.1-.27c-.04-2.38-.34-3.85-.34-6.51 0-3.07-.66-5.43-.95-8.03l-2.6-15.46c-.58-2.54-1.27-4.47-1.83-6.91 1.74-.41 2.79-.98 4.49-1.54 1.82-.6 2.66-1.03 4.32-1.7l8.27-3.76c.72 1.04 1.62 2.17 2.42 3.27 1.83 2.53 6.09 9.68 7.39 12.68l3.79 10.25c.46 1.41.75 2.88 1.13 4.23.46 1.61.73 2.84.98 4.7.25 1.85.6 3.07.71 5 .37 6.39 2.95 4.68-17.41 4.71-1.9 0-3.79-.01-5.69-.02-4.1-.02-4.12.58-4.67-.91zm-46.49-74.01c5.22 0 7.32 1.39 11.13 4.25 3.04 2.28 8.81 8.76 10.72 12.02l7.55 15.15c-1.92.15-4.6 1.1-6.86 1.5-7.69 1.37-14.39 2.19-22.55 2.19l.03-33.44-.03-1.67zm-38.1 31.41c.1-1.2 1.51-4.31 2.09-5.56l5.47-9.92c1.85-3.2 7.63-9.51 10.81-11.93 3.85-2.94 5.78-4.01 11.04-4v35.11c-10.28.04-19.6-1.34-29.4-3.7zm76.23-2.32c-1.39-2.61-2.5-6.87-5.75-12.31-2.07-3.47-2.65-4.99-5.34-8.37-.54-.69-1.36-1.84-1.61-2.71 2.03.5 8.97 4.37 11.12 5.59.72.41.99.64 1.62 1.04l7.97 5.75c1.67 1.46 4.94 3.81 5.34 5.34l-1.78.87c-5.35 2.58-8.17 3.16-11.57 4.81zm-98.64-5.7c1.29-2.3 9.62-8.74 11.92-10.12 4.23-2.52 9.93-6.5 14.48-7.58-1.14 2.05-2.56 3.47-3.87 5.48-4.24 6.52-8.88 17.46-9.18 17.91-1.29-.69-10.21-4.03-13.35-5.69zm-34.79 50.89v6.66l.34 6.75-.02 1.59.68 1.35 5.99-.01h5.38c0-8.99-3.87-7.36 8.03-7.36h13.38c1 0 4.67-.15 5.36 0 1.21.25.98.27 1.04 1.63.03.8-.04 1.91-.04 2.76 0 1.62.24 1.74.31 2.96h6.81l1.91.01c-.3-1.27-.34-1.3-.34-2.97l-.26-3.09c.07-1.66 1.24-1.31 5.31-1.3h26.76c.93 0 4.37-.14 5-.01 1.23.25.98.25 1.04 1.64.03.78-.04 1.88-.04 2.71l-.02 16.73c.06.05.16.05.19.15l5.28 3.76c2.68 2.21 1.2 1.81 3.26 2.8l-.02-23.45v-4.33h32.11c7.66 0 5.36-.91 5.33 5.36-.01 3.44-1 11.94-1.82 15.57-.4 1.75-.58 2.97-.88 4.79-.27 1.63-.73 2.84-1.17 4.52-1.09 4.27-.46 4.94-2.71 4.51-7.98-1.55-19.68-3.85-27.87-3.99l3.36 3.71c.66.58.73.65 1.36 1.31l2.35 2.33c3.94 3.75 2.66 2.26 11.06 3.66l8.29 1.74c-.48 2.04-4.18 8.73-4.12 9.63.08 1.17 1.35 1.69 2.41 4.45.62 1.62 1.39 3.87 1.39 5.98l7.04-13.05c.75-1.49 1.24-3.19 2.01-4.67 2.88.65 12.26 5.24 13.36 5.32-.14 1.47-.04.81-1.35 2.01-3.9 3.56-4.05 3.78-8.74 7.32l-12.34 7.05.01 10.32.01 2.39c1.05-.24 2.11-.87 3.03-1.32l5.09-2.23c3.05-1.45 12.88-7.85 15.56-10.2.61-.54.71-.52 1.31-1.03l3.68-3.34c3.49-3.49 8.17-8.29 10.98-12.42l6.42-9.97c.38-.65.46-.95.75-1.59.53-1.15 1.17-1.93 1.68-3.01l2.79-6.57c.65-1.33.78-2.15 1.18-3.5 1.43-4.84 3.11-9.28 3.71-15.02.51-4.84 1.91-12.28 1.16-17.21-.24-1.58-.08-2.94-.16-4.54-.07-1.53-.52-2.54-.67-3.94-.04-1.78-.68-5.38-1.07-7.03-.34-1.41-1.07-5.25-1.6-6.45-.14-1.55-2.39-7.26-3.09-8.91-3.77-8.84-3.48-8.12-8.2-15.89-.54-.89-.99-1.54-1.61-2.4-.77-1.08-.97-1.11-1.71-2.3-.67-1.09-1.06-1.31-1.78-2.24l-3.6-4.43c-1.26-1.42-2.73-2.39-3.76-3.92l-.38-.35-22.02-15.72c-6.12-2.7-7.38-3.71-14.84-5.88-14.14-4.12-29.8-5.51-44.1-2.22-2.32.54-4.6.84-6.79 1.58-2.19.73-4.29 1.21-6.33 2.02l-16.69 8.06c-2.96 1.58-10.46 7.2-13.21 9.87l-.49.51c-.41.41-.11.15-.51.49l-8.15 8.57c-6.58 8.05-11.35 16.15-15.17 25.96-2.53 6.49-5.83 20.09-5.8 27.34zm73.57 47.78c0-1.72-.47-2.05.99-2.35.21-.04 5.22-.31 6.26.44.08.06.27.26.34.33l.17.17.17.17.17.17c.35.34.5.47.85.82l13.46 12.96c1.26.99 2.24 2.07 3.43 3.26 2.11 2.09 2.58 1.83 2.59 3.78-.75.39-1.12.68-2.34.68h-18.06c-7.4-.05-8.11.77-8.04-3.02l.02-17.41zm-101-14.26v45.04l142.81.01c-.05-8.58-.16-9.75-7.46-16.31l-3.94-3.75-.17-.17-.17-.17c-4.05-3.91-16.72-17.15-19.89-19.24-2.69-1.78-6.35-1.17-10.86-1.2-5.72-.04-7.49.89-7.73-1.28-.07-.67.03-2.29.03-3.07 0-1.77-.14-2.94-.62-4.04-.56-1.29-1.28-1.55-2.07-2.56l-2-1.06-6.66-.34H15.58c-2.36.23-4.46.91-5.7 2.3-1.34 1.51-1.94 3.04-1.97 5.84zm0 53.37v6.71c0 2.79-.05 3.98.43 6.37l.64 1.32c.66.93 1.34 1.58 2.36 2.27 1.38.93 2.15.75 4.25.75l8.4.02c.86-1.86-.19-1.59 2.31-6.38 5.09-9.77 20.09-13.24 29.01-4.91 1.63 1.52 2.75 2.74 3.87 4.82 1.09 2.02 2.21 3.45 2.23 6.46h37.47c.93-1.9.67-5.89 6.28-11.13 6.96-6.5 18.41-6.47 25.24.01 1.43 1.36 3.09 2.96 3.93 4.76 1.15 2.45 1.14 2.02 1.83 4.85.48 1.97-.28 1.06.85 1.5 5.79 0 10.26 1.06 12.5-2.88 1.3-2.29 1.26-3.08 1.24-6.46-.02-2.68-.02-5.38-.02-8.07v-4.32H9.14l-1.17.33v3.99zm27.76 21.09c0-1.46 0-2.48.47-3.55.71-1.58 2.25-3.14 3.91-3.76 6.89-2.58 12.85 5.33 8.76 10.75-1.1 1.46-2.52 2.64-4.62 3.08-3.92.84-8.52-2.48-8.51-6.52zm6.63 13.38c1.35-.01 2.33.1 3.53-.21 1.1-.28 1.78-.58 2.88-.76l1.83-1.2c7.54-4.45 9.49-17.19.03-23.77-8.71-6.06-22.65.31-21.94 12.9.22 3.89 2.17 7.02 4.26 9.12 2.17 2.17 5.14 3.91 9.4 3.92zm74.95-21.1c.32-.01 1.36.01 1.68.03 7.27.6 8.54 11.59.96 13.99-6.79 2.15-11.76-5.98-8.4-10.74 1.23-1.74 2.35-2.45 4.07-2.94l1.69-.34zm-13.72 5.72c.01 16.25 16.51 18.65 23.69 11.97 8.41-7.83 5.35-23.21-8.52-24.81-4.88-.56-10.88 2.75-13.39 7.25-.46.82-1.78 4.56-1.78 5.6zM21.26 72.38c2.12.01 5.31.59 8.38.99 3.97.51 24.4 2.73 25.22 3.33-.64.78-2.36.93-3.57 1.33-9.4 3.14-18.16 7.13-25.95 14.05-12.37 10.98-14.96 23.93-18.48 29.16-.3-1.23 1.07-8.25 1.55-10.13 3.43-13.5 7.46-19.22 17.2-30.16-1.02-2.54-3.84-6.4-4.34-8.57zm-3.06 6.4c-7.44 9.15-11.31 12.53-15.19 24.65C.42 111.5-.42 119.67.2 128.2c.96 12.99 5.66 26.11 12.89 37.31 1.3 2.02 7.46 11.21 9.41 11.65-1.91-3.58-2.74-3.59-4.87-9.03-1.27-3.24-2.27-6.14-2.92-9.08C10.07 138.14 15.74 121.27 33 105c2.88 2.86 9.01 13.18 12.69 17.42 1.15-1.58 9.22-22.82 10.47-26.16l7.59-19.48c.53-1.29.85-2.21 1.29-3.35.54-1.42.95-1.81.99-3.21-1.54-.5-40.64-4.41-42.99-4.58-4.99-.35-9.5-1.19-14.4-1.37l9.56 14.5zm134.86-23.91c6.11-3.37 10.25 7.55 4.33 9.59-7.13 2.45-9.99-6.46-4.33-9.59zm-73.68-.13c6.12-2.97 9.71 6.68 4.24 9.5-6.5 3.35-10.53-6.45-4.24-9.5zm35.89-7.69c11.26-4.15 17.12 13.08 6.24 17.17-11.34 4.26-17.58-12.99-6.24-17.17zm-9.14-4.3c-1.24-.66-5.31-3.74-5.96-4.5-3.81-4.47 12.45-12.78 16.92-11.21 1.79 15.06-1.45 10.91-6.05 13.08-1.83.86-2.94 1.9-4.91 2.63zm13.34-15.74c6.62-.8 15.94 5.05 17.42 9.31-1.27 2.98-3.72 3.58-5.53 5.93-3.32-.17-9.19-3.03-12.11-4.35l.21-10.89zM67.19 48.77c-1.25 4.97 2.55 4.05 5.64 5.66-.28 3.54-2.16 5.26-.2 9.13 1.21 2.38 3.55 4.59 6.34 5.11 10.53 1.96 10.74-7.05 12.44-9.79 5.26-.19 5.23 3.66 11.99 7.91 4.22 2.66 8.73 4.25 15.2 4.08 6.23-.16 10.48-1.6 14.88-4.38 7.9-4.99 5.38-7.7 11.86-7.64 2.11 5.93 3.27 11.61 12.29 9.77 2.44-.5 4.9-2.7 5.98-4.82 1.42-2.8.46-6.68.17-9.39 3.16-1.67 7.12-1.07 5.52-5.99-6.21-1.37-18.79.88-24.1-.69-1.27-1.01.36-4.24-1.77-9.11-4.34-9.96-13.66-12.82-14.93-15.04 1.85-.22 3.85-.27 5.69-.43l3.98-.59c.11-.03.35-.01.43-.2.08-.18.29-.12.41-.22-.59-1.94-.54-1.51-3.39-1.8-1.57-.16-3.16-.34-4.61-.45-3.11-.23-6.27.14-9.39-.28L119.63.14c-3.42-.06-3.43-.94-3.82 2.12-.39 3.14-.49 16.03-1.65 17.13-1.71 1.63-13.8-1.28-17.77 2.18 2.64 2.9 7.27 1.94 11.41 1.86-.91 1.89-4.43 3.06-6.24 4.32-1.96 1.36-3.74 2.95-5.26 4.93-3.91 5.1-4.16 8.07-5 15.35-4.52.22-21.37-.76-24.1.71z" fill="#9732d6"/></svg>