<svg xmlns="http://www.w3.org/2000/svg" width="75.236" height="90.596" viewBox="0 0 1028.82 1238.85" shape-rendering="geometricPrecision" text-rendering="geometricPrecision" image-rendering="optimizeQuality" fill-rule="evenodd" clip-rule="evenodd"><defs><style>.fil0{fill:#898989}</style></defs><g id="Layer_x0020_1"><g id="_2714627034816"><path class="fil0" d="M331.43 670.98c-.62 1.81-3.67 3.51-5.78 5.12-2.09 1.58-3.98 3.34-5.99 4.96-14.8 12-28.79 31.82-31.77 34.35-2.39 4.58-5.71 8.55-8.59 12.9l-22.58 39.43c-4.71 9.6-8.9 18.84-13 28.98-1.4 3.45-9.82 27.43-11.92 29.87.23 2.41-8.06 30.46-9.6 34.18-.77 4.15-2.02 8.81-2.93 12.91-.43 1.97-.76 3.85-1.26 5.96-.71 3.06-.39 2.88-1.87 4.8.47 4.38-.95 9.49-1.94 13.75-2 17.93-5.14 34.98-6.61 53.02-1.54 18.99-2.34 37.32-2.64 56.44l-.04 18.37.29 7.55c1.58-2.01 3.68-5.91 5.64-7.11 4.74-13.77 49.92-64.99 61.86-77.48 14.05-14.7 60.41-54.57 78.81-60.7 4.53-5.45 42.05-19.96 51.86-23.11 12.99-4.18 52.11-13.54 64.33-11.38 2.19-1.34 7.8-1.32 11.01-.7 1.26 19.93.12 80.89.12 105.34 0 15.63-2.1 36.81 4.18 49.25 13.25 26.23 49.16 33.14 72.81 20.91 11.29-5.85 44.55-42.31 53.3-51.68 23.02-24.65 53.49-55.07 77.41-79.56l130.71-132.16c4.57-4.67 8.54-8.69 13.14-13.31 4.11-4.12 8.42-9.72 13.07-12.7v-.6c-3.86-3.2-6.83-6.88-10.43-10.68l-92.84-95.18c-6.71-6.93-13.64-13.59-20.41-20.65l-36-37c-3.17-3.31-3.48-2.98-4.16-5.89-2.53-.67-2.04-.51-5.19-3.93-3.45-3.75-11.78-11.6-13.52-14.78l.27.41c-4.44-3.06-6.34-5.4-9.38-8.65-3-3.21-6.38-5.61-8.23-9.59l-.43-.46c-3.79-1.99-6.16-5.49-9.16-8.65-3.17-3.35-5.88-5.6-8.64-9.57-1.98.71-.72.4-.63-.59-2.99-1.39-2.67-1.52-4.93-3.94-1.5-1.62-2.43-2.6-3.98-4.21-2.92-3.04-5.94-5.34-7.81-9.11-1.47-.37-.99.02-1.33-1.39-3.94-2.13-8.63-8.39-12.71-12.35-.42-.4-1.66-1.57-1.88-1.82-1.98-2.25-.45-.05-1.77-2.47-1.41-.4-.09.61-1.46-.65-1.39-1.27-.26-.05-.6-1.53-2.83-1.37-2.69-1.61-4.89-3.94-1.36-1.45-2.14-2.28-3.54-3.74-2.77-2.91-5.53-5.09-7.36-8.62l-15.05-10.94c-6.8-3.52-10.98-4.36-18.79-6-20.99-1.3-36.02 3.79-46.95 14.31-12.58 12.1-12.89 24.68-12.89 46.96-.01 39.99-.01 79.99-.01 119.99-32.31.93-54.81 4.12-83.23 13.45-36.09 11.85-53.41 28.94-64.09 33.64z"/><path class="fil0" d="M18.45 485.49c-1.85 4.42-6.84 6.53-11.88 14.71-4.68 7.58-3.62 11.6-6.58 18.68v677.9c3.1 6.37 2.72 11.14 7.27 18.4 2.02 3.23 3.04 4.37 5.43 6.96 1.84 2.01 4.76 3.77 5.41 6.04 6.3 3.01 9.06 6.37 18.1 8.53l7.03 2.12c3.91-1.21 9.48-.56 13.98-.59h647.82l19.94-.97c1.19-.7 6.07-1.89 8.15-2.82 3.68-1.64 5.15-3.17 8.36-3.82 1.55-3.1.21-1.46 3.04-2.58.1-.16.27-.37.34-.43.06-.07.27-.35.35-.44 8.79-9.82 13.67-12.56 17.08-31.4l.23-292.13c-2.49 1.21-2.63 1.49-4.69 2.52l-13.64 13.84c-1.99 4.02-11.47 12.9-14.77 16.31-5.81 6-42.71 43.98-46 45.84-1.18 2.92-8.16 9.47-11.45 12.99l-3.86 3.06c-3.48 8.73-1.31 125.07-1.57 145.28l-571.6-.04c-1.24-22.65-.09-48.49-.14-71.51-.05-23.81.22-47.66.03-71.45-.37-47.58.03-95.31.03-142.91l.79-285.43 18.69.02h152.43l161.36-.03c1.54-5.98.59-39.39.51-48.01-.16-15.88-.16-32.05-.01-47.93-34.3-.97-70.32-.28-104.76-.1l-262.01-.02c-41.43.07-33.62 8.01-43.47 9.43z"/><path class="fil0" d="M646.78 464.58h116.04c37.37.02 26.14-4.43 26 26.12-.07 16.77-4.87 58.25-8.85 75.9-1.93 8.55-2.84 14.47-4.32 23.34l-.1.59 35.66 34.88c1.75-6.2 3.43-12.55 4.84-19.62 3.12-15.74 5.72-27.51 8.04-44.06 3.45-24.49 7.37-46.66 7.27-71.11-.06-10.55 1.65-14.56 1.53-26.03h136.99c.15 11.09-1.4 25.1-3.03 34.46-5.04 28.91-11.48 63.46-23.66 88.85-2.5 5.22-3.2 6.56-5.33 12.63l-12.32 25.17c-2.69 4.36-4.08 7.93-6.94 12.64-2.69 4.44-4.2 6.26-6.9 10.99l-15.4 22.13c-2.98 3.71-5.59 7.82-7.95 11.63-5-1.26-5.85-2.32-10.02-4.63-3.59-1.98-5.95-2.72-10-4.69l-13.48-5.67 66.16 64.72c7.7-8.74 14.9-17.59 20.54-25.9l31.29-48.62c1.83-3.14 2.24-4.63 3.67-7.78 2.59-5.63 5.72-9.4 8.19-14.67l13.59-32.04c3.18-6.48 3.79-10.46 5.75-17.06 6.99-23.63 15.16-45.28 18.08-73.23 2.46-23.6 9.29-59.88 5.65-83.91-1.17-7.73-.39-14.34-.77-22.12-3.32-69.99-35.92-147.49-71.35-205.87-2.64-4.32-4.83-7.49-7.86-11.71-8.75-12.2-17.31-25.01-27.15-36.27C871.65 97.55 777.66 38.7 713.29 19.97 671.62 7.72 627 1.98 582.5.22c-103.85-4.1-221.22 48.77-298.96 118.8l-39.75 41.8c-32.1 39.25-55.36 78.76-73.98 126.61-11.04 28.36-25.11 84.55-27.84 121.35l56.95-1c.96-18.56 3.85-42.79 8.07-64.92 6.95-36.46 45.21-122.15 74.73-137.57 4.6 1.16 14.64 7.2 19.8 9.56l41.6 17.02c8.4 2.78 11.61 5.57 20.22 7.53.06 10.47-3.16 13.68-5.35 22.6-4.78 19.4-18.13 90.89-19.2 111.25-.33 6.38-.23 20.46-.83 32.06l41.55-.74c5.49-54.68 14.09-105.49 26.15-151.97l30.94 6.55c25.95 5.94 71.02 13.03 98.09 12.97 10.57.01 17.08 1.59 29.16 1.65l-.01 16.27v65.23c0 2.6.54 27.36.18 46.02l17.74-.31 65.01 63.6zm-335.62-292c6.27-11.23 46.9-42.64 58.13-49.34 20.64-12.3 48.41-31.68 70.64-36.97-23.86 30.22-63.14 92.46-63.65 114.07-6.29-3.37-49.78-19.66-65.11-27.77zm481.02 27.8c-18.63-34.89-27.67-67.51-54.08-100.86-2.66-3.35-6.62-8.97-7.86-13.21 9.89 2.46 43.74 21.28 54.23 27.24 3.5 1.98 4.83 3.14 7.92 5.07l38.85 28.04c8.14 7.14 24.08 18.57 26.04 26.01l-8.68 4.25c-26.12 12.6-39.86 15.4-56.43 23.47zm-371.72 11.3c.49-5.86 7.35-21.02 10.19-27.09 22.72-41.2 40.31-76.7 79.37-106.54 18.78-14.35 28.19-19.55 53.82-19.52l-.02 171.2c-50.13.18-95.57-6.56-143.36-18.06zM606.25 58.5c25.45 0 35.71 6.78 54.29 20.75 45.12 33.92 64.86 83.86 89.11 132.49-9.34.74-22.41 5.35-33.44 7.33-37.53 6.67-70.17 10.69-109.97 10.69l.14-163.09-.13-8.17zm226.73 360.9c-.2-11.58-1.67-18.77-1.67-31.73-.06-41.64-16.66-106.35-26.23-148.25 8.51-1.97 13.61-4.77 21.91-7.49 8.89-2.91 12.96-5.04 21.05-8.3l40.33-18.31c3.51 5.09 7.91 10.58 11.79 15.94 33.75 46.68 69.95 123.59 73.28 180.44 1.8 31.16 9.35 22.09-89.94 22.25-9.24.02-18.48-.06-27.73-.1-19.98-.09-20.07 2.82-22.79-4.44zm-68.66-166.73c7.49 33.41 31.93 140.11 25.55 167.29l-1.01 2.17c-4.39 3.84-134.13 1.46-151.62 1.58-36.47.21-31.16 2.56-30.91-16.16l.02-133.65c56.75 1.12 108.85-7.06 157.97-21.23z"/></g></g></svg>