<svg xmlns="http://www.w3.org/2000/svg" width="86.648" height="86.672" viewBox="0 0 884.4 884.65" shape-rendering="geometricPrecision" text-rendering="geometricPrecision" image-rendering="optimizeQuality" fill-rule="evenodd" clip-rule="evenodd"><path d="M115.23 578.44c11.61 0 15.23-.05 25.92 5.3 15.53 7.76 28.58 25.31 28.58 45.22 0 42.25-53.26 68.7-86.14 35.63-6.76-6.8-10.89-13.98-13.58-23.32-6.43-22.3 5.84-46.69 25.92-57.15 4.54-2.37 12.51-5.67 19.31-5.67zm415.52-238.42H118.06c-17.03 0-29.76-6.04-36.1-20.09-6.57-14.59-2.35-22.85.57-39.27l13.81-71.33c2.12-10.62 7.01-37.48 9.45-47.33 1.02-4.14 2.25-6.86 4.2-9.98 2.22-3.55 3.64-4.86 6.49-7.7 3.82-3.81 12.78-8.07 20.3-8.07h374.65c11.51 0 20.48 5.88 25.48 12.56 5.93 7.93 7.21 17.02 9.49 28.55 4.26 21.58 8.69 42.1 12.95 63.68l9.75 47.58c2.56 12.79 4.93 19.01-.23 31.66-1.91 4.67-4.86 7.82-8.18 11.13-7.7 7.65-19.05 8.64-29.96 8.64zM412.11 101.61H234.44c-15.88 0-30.09-14.13-30.09-32.36 0-7.62.44-10.65 3.24-17.2 6.35-14.84 21.11-18 35.93-18h158.95c13.34 0 20.91 1.78 28.47 7.86 14.39 11.56 16.06 45.29-6.32 56.3-2.6 1.28-8.68 3.39-12.5 3.39zM-.01 343.43v339.46c0 12.87 5.63 25.51 10.67 33.61 3.86 6.21 7.5 9.95 12.73 14.51 2.31 2.02 7.4 6.32 10.09 6.94 0 14.08-1.37 44.98 1.77 55.01 4.75 15.2 16.8 23.33 33.43 23.33h66.42c10.66 0 19.59-3.64 25.14-8.93 5.6-5.34 10.06-13.83 10.06-24.57v-34.62h237.85v-72.66c0-15.14 1.91-30.8 4.99-42.69 1.72-6.64 3.49-12.11 5.88-17.98l17.36-42.23c6.91-17.27 25.04-65.75 31.48-76.37 5.83-9.59 13.14-19.13 21.33-26.36 7.74-6.81 11.96-9.56 20.89-14.86 12.02-7.13 30.88-12.81 47.35-12.81H646V341.74c0-5.51-3.76-19.56-5.25-27.1-8.83-44.48-18.83-89.51-27.73-134.07-2.86-14.34-13.05-68.19-16.61-80.45-7.19-24.75-17.62-43.27-35.71-61.36C538.11 16.18 504.42.02 470.02.02H175.97c-18.58 0-39.77 6.19-52.77 11.93-16.28 7.19-35.14 20.07-46.49 34.12-1.2 1.5-2.33 2.78-3.61 4.34-11.72 14.27-19.39 31.18-23.71 49.51-2.06 8.76-3.89 18.54-5.63 27.3L5.16 315.68C3.45 324.26 0 335.67 0 343.45zm816.29 438.23c-46.2 0-44.66-67.56-1.13-67.56 10.44 0 18.09 2.53 25.4 9.8 3.08 3.06 4.82 5.44 6.57 9.89 4.95 12.6 2.81 29.69-6.69 38.51-5.57 5.17-13.77 9.35-24.15 9.35zm-305.96 0c-10.16 0-18.47-3.51-23.98-8.38-13.43-11.86-13.61-38.28-.3-50.53 14.96-13.76 46.34-11.83 54.86 10.73 3.46 9.15 3.56 18.61.3 27.96-4.47 12.81-17.34 20.22-30.88 20.22zm306.53-136.24h-307.1c-5.75 0-10.78-6-10.78-13.06 0-3.91 21.7-58.53 24.25-64.86 1.06-2.64 1.79-4.77 2.84-7.38 4.73-11.75 9.46-32.77 26.84-32.77h219.68c5.97 0 14.57 6.65 18.28 11.25 2.63 3.29 23.53 59.47 25.35 64.33 1.86 4.99 3.62 9.33 5.52 14.34 1 2.62 5.35 13.18 5.35 15.09 0 5.49-5.12 13.06-10.22 13.06zm-378.62 35.2v133.96c0 2.02 1.11 1.71 3.41 1.71v34.62c0 10.83 5.21 20.91 11.34 25.55 13.68 10.38 30.64 7.94 51.1 7.94 13.38 0 20.06-1.21 29.53-8.5 3.16-2.43 6.36-7.58 7.94-11.36 4.3-10.35 2.84-35.35 2.84-48.25h237.28v35.19c0 10.83 5.23 20.15 11.26 25.07 12.56 10.2 32.3 7.85 51.18 7.85 28.08 0 40.31-12.22 40.31-40.31v-60.74c0-2.02-1.1-1.7-3.41-1.7V676.63c0-4.44 1.14-10.03 1.14-18.73 0-19.93-20.04-64.31-27.58-83.12-3.66-9.18-6.94-17.65-10.62-26.84-6-15-13.11-38.6-24.1-49.69-5.12-5.16-7.43-8.05-14.79-12.45-10.78-6.46-22.24-10.11-37.01-10.11H555.18c-26.04 0-51.47 15.36-62.44 37.46-3.89 7.84-14.1 34.12-17.67 43.07-7.72 19.3-29.71 68.82-33.47 87.44-2.3 11.47-3.34 22.98-3.34 36.96z" fill="#9732d6"/></svg>