<svg xmlns="http://www.w3.org/2000/svg" width="112.677" height="60.484" viewBox="0 0 782.31 419.94" shape-rendering="geometricPrecision" text-rendering="geometricPrecision" image-rendering="optimizeQuality" fill-rule="evenodd" clip-rule="evenodd"><path d="M93.39 20.08c0 9.72 4.64 16.45 12.05 19.17 16.32 5.97 158.99.18 164.51 3.26.73.41 6.14 6.25 7.27 7.45 5.01 5.27 5.7 17.95-.83 24.7-4.12 4.28-2.34 6.55-9.72 6.55-10.92-.01-21.88-.01-32.79-.08-6.1-.03-8.87.89-15.16.85l-112.56.84c-13.65 0-35.1-1.89-42.15 6.01-6.64 7.46-6.89 20.65.43 28.51 4.8 5.16 3.25 5.74 12.18 5.64 35.41-.4 70.7.83 105.38.83h71.05c24.12 0 45.87.83 70.25.83 1.92 7.54 9.58 4.62 9.58 20.07 0 8.43-6.15 16.45-12.62 18.57-7.3 2.39-80.95 1.51-91.95 1.51-10.86 0-18.75.84-29.54.84l-62.29-.03c-4.38.49-12.75 9.27-12.75 19.27 0 8.38 3.45 13.67 9.32 18.68 2.93 2.5 5.3 1.4 12.23 1.4l67.06.83c13.95 0 34.3-1.23 35.39 19.57.38 7.34-2.81 15.98-8.78 18.36-4.54 1.81-18.78 3.11-24.99 3.09l-136.53-.02c-7.77 0-47.66.78-52.01 2.37-13.68 4.97-14.9 27.95-2.56 35.58 5.59 3.45 14.16 3.04 22.65 3.04 17.07-.01 32.59.83 50.29.83 142.58 0 285.07-1.21 427.08-.83 7.54.02 7.66.7 13.05-2.22 7.64-4.14 12.3-6.72 17.9-13.04 15.53-17.55 11.36-28.04 11.36-50.82 0-10.98.8-18.98.8-30.12 0-22.22.56-130.22-.21-136.12-2.67-20.37 3.17-26.09-19.53-47.3-7.43-6.93-24.66-5.63-32.83-6.59-9.89-1.16-27.9-.76-38.45-.7-4.9.03-6.9-.68-10.77-.85H114.82l-8.64.01c-2.5 0-12.77 11.45-12.77 20.07zm529.69 190.07c13.38.81 119.58 1.07 125.22-.86 8.96-14.43-30.54-102.02-65.79-101.89-17.46-1.86-42.13-1.38-60.09-.78.94 16.53.15 35.55.15 52.35 0 11.73-1.38 41.56.51 51.18zM142.89 345.48c0 11.5 3.08 18.29 8.64 25.25 3.11 3.89 14.24 10.72 20.89 10.72 5.14-23.13 4.02-23.6 16.75-41 8.04-10.99 25.05-18.39 38.33-18.39 21.46 0 29.69 2.45 45.7 19.03 4.88 5.05 7.71 10.15 10.71 17.21 2.31 5.42 5.31 16.42 5.85 23.15 5.97 0 11.08.36 15.96-.84 2.57-5.62-.41-21.75 17.35-40.38 13.22-13.86 22.91-18.18 44.12-18.18 31.07 0 55.08 30.81 55.08 59.39h179.61c.89-4.01 1.17-7.57 2.05-12.07.71-3.58 2.35-8.56 3.54-11.36 8.24-19.39 27.83-35.97 50.29-35.97 21.46 0 30.73 4.21 44.12 18.19 8.15 8.5 16.55 24.42 16.55 41.21 19.88 0 41.37 3.19 52.9-8.98 10.49-11.06 10.95-14.92 10.96-29.12v-1.27c-.03-12.33-9.65-15.42-5.36-23.93 4.45-8.82 5.33-15.34 5.36-28.09v-49.49c-.87-48.96-7.31-88.69-46.08-129.54-6.15-6.48-20.32-17.37-27.91-21.79-8.29-4.83-26.87-14.85-36.14-14.83-13.72.04-55.16-1.95-62.56 1.42-11.73 5.36-20.58 16.19-20.51 30.38l-.73 154.82c-.02 6.63-2.12 7.92-3.92 12.62-6.2 16.21-19.38 26.2-33.38 33.62-6.25 3.31-4.83 3.11-13.83 3.06-52.48-.24-114.08-1.61-164.47-.02l-146.86.86c-6.45-.04-9.5.88-15.96.84-8.75-.05-39.52-.72-47.16 1.61-10.49 3.18-19.9 18.2-19.9 31.85zm221.92 74.45c13.95 0 26.52-9.54 32.49-22.85 19.69-43.98-44.94-76.92-65.76-30.42-4.46 9.97-4.17 20.73-.17 30.6 2.88 7.1 11.47 16.39 18.37 19.23 3.6 1.48 10.37 3.44 15.07 3.44zm292.97-.84h6.39c20.98 0 40.04-26.57 29.79-52.13-14.29-35.63-66.91-28.51-69.11 13.34-1.12 21.32 15.72 38.79 32.93 38.79zm-430.27 0h6.38c16.01 0 32.74-16.73 32.74-33.45 0-10.4-.07-17.99-6.99-26.98-4.06-5.28-8.39-9.27-15.13-11.75-16.45-6.06-29.17-1.61-38.78 8.39-23.51 24.48-4.62 63.8 21.77 63.8zM0 16.72c0 8.5.2 16.23 8.91 21.62 7.22 4.47 40.9 5.46 50.04-.84C74.4 26.85 68.07 1.69 50.29.83c-4.04-.19-10.3-.7-16.98-.84h-6.34C17.02.23 7.42 1.72 3.95 6.65 2.08 9.32 0 12.13 0 16.73zm33.53 168.14c0 13.77 8.09 20.08 20.76 20.08h31.93c9 0 15.97-9.19 15.97-20.91 0-8.91-8.03-18.4-16.76-18.4-12.1 0-38.62-2.23-45.34 4.35-3.82 3.74-6.55 9.3-6.55 14.89z" fill="#898989"/></svg>