<svg xmlns="http://www.w3.org/2000/svg" width="87.571" height="77.56" viewBox="0 0 215.54 190.9" shape-rendering="geometricPrecision" text-rendering="geometricPrecision" image-rendering="optimizeQuality" fill-rule="evenodd" clip-rule="evenodd"><defs><style>.fil0{fill:#9732d6}</style></defs><g id="Layer_x0020_1"><g id="_2715440350128"><path class="fil0" d="M5.51 133.3c.92 1.2 15.29 33.3 16.99 37.05 3.45 7.61 6.88 3.5 12.86-.45 2.15-1.42 4.47-3.04 6.63-4.37 6.6-4.07 9.88-1.54 15.7 1.45 9.04 4.65 35.94 19.47 43.45 21.95 14.69 4.86 22.89-.05 32.8-6.68 17.22-11.53 34.95-22.89 52.54-34.33 7.79-5.73 20.03-12.86 26.72-23.39 2.35-3.69 4.28-10.91-1.23-14.4-3.09-1.89-8.65-1.88-12.2-.47-5.64 2.24-20.98 13.22-26.14 16.73-5.28 3.58-11.45 7.62-17.14 11.51-6.12 4.18-10.43 8.03-19.67 9.01-4.18.44-9.86.15-14.26.15-15.26 0-24.73.66-39.73-3.1-1.39-.35-4.96-.99-5.72-1.66-1.28-1.12-.65-4.04 1.97-3.57 3.79.69 7.48 1.97 11.52 2.69 4.09.73 8.37 1.44 12.71 1.69h28.64c9.34-.75 13.66-9.58 9.64-16.23-3.43-5.68-10.07-5.65-15.36-6.18-8.02-.81-21.77-3.69-28.74-7.03-6.07-2.91-9.64-13.34-25.59-17.22-17.62-4.29-30.6 1.3-46.33 8.19l-14.94 6.6c-.81.37-4.13 2.09-6.98 3.51-7.52 3.75-1.63 9.39 1.86 18.55zm107.44-55.25l-8.5.03-.1-5.44c-4.54-1.43-6.92-2.03-9.5-5.18-1.71-2.08-3.91-7.39-3.37-11.08l8 .01c.39 3.57.17 6.36 4.58 8.51 3.02 1.48 8.15 1.38 11.01-.32 2.9-1.73 4.26-6.42 1.49-8.96-2.16-1.99-6.69-2.67-9.92-3.42-7.26-1.68-13.37-4.13-14.07-12.44-.36-4.23 1.24-7.9 3.1-10.15 2.29-2.77 4.54-3.63 8.64-4.66l.09-7.64 8.56-.01.1 7.64c4.1 1.2 5.91 1.97 8.25 4.63 1.41 1.6 4.04 6.05 3.49 9.42l-7.97-.01c-.65-2.1-.37-6.06-6.05-7.08-3.98-.72-8.41.51-9.64 3.63-3.34 8.49 7.06 8.8 15.16 11.19 7.99 2.36 11.68 9.55 9.06 16.74-1.88 5.16-5.92 7.91-11.11 9.02-2.31.49-.71 1.02-1.29 5.58zm43.54-30.03c-.1-27.15-21.4-48.1-48.14-48.01-26.39.09-47.5 21.76-47.4 47.78.09 26.31 21.44 47.53 47.63 47.59 25.93.06 48.01-21.05 47.91-47.36z"/><path class="fil0" d="M145.95 139.23c1.07-.41 22.56-14.84 23.87-15.74 3.93-2.71 8.14-5.35 12.01-7.93l11.85-7.86c-.32-4.63-6.74-7.84-12.2-7.94-5.46-.11-11.4 2.91-14.91 5.12-4.19 2.64-8.21 5.51-11.95 7.98-1.64 1.08-10.76 7.14-11.71 8.06.24.88.81 1.15 1.42 1.85.5.58.96 1.19 1.36 1.83 1.71 2.75 2.69 6.74 1.84 10.08-.5 1.97-1.45 3.82-1.57 4.54zm-31.21-24.7c8.43 2.51 15.46 1.53 20.43 2.76 4.55 1.13 2.01 2.23 9.22-2.74 3.89-2.68 7.34-5.15 11.08-7.5 1.95-1.23 3.69-2.54 5.6-3.79 1.28-.85 4.76-3 5.55-3.89-.03-.05-.09-.17-.11-.13-.02.04-.09-.11-.11-.13-1.08-1.02-4.8-2.38-6.14-2.82-8.76-2.92-15.08-.75-22.26 3.62l-17.4 10.8c-.99.62-5.26 2.94-5.85 3.84z"/></g></g></svg>