<svg xmlns="http://www.w3.org/2000/svg" width="77.34" height="77.411" viewBox="0 0 125.99 126.11" shape-rendering="geometricPrecision" text-rendering="geometricPrecision" image-rendering="optimizeQuality" fill-rule="evenodd" clip-rule="evenodd"><path d="M84.66 92.64h17.65c.17 2.41.31 16.02-.1 17.73H84.42l.24-17.73zm-31.5 0h17.65c.17 2.41.31 16.02-.1 17.73H53.16l-.01-17.73zm-29.51 0h17.68l.01 17.73H23.79l-.14-17.73zM84.66 65.1h17.71l-.02 17.69H84.67l-.01-17.69zm-31.5 0h17.52l.17 17.69H53.17l-.01-17.69zm-29.51 0h17.68l.02 17.69H23.57l.09-17.69zm63-15.82c-5.66.42-12.79.05-18.61.05H26.22c-1.14.15-6.42 5.91-7.41 6.89L7.21 67.8c-1.3 1.28-1.33.9-1.31 3.37.05 4.52.2 45.04-.09 47.06H-.01v7.87h125.99v-7.87h-5.76c-.47-3.09-.13-97.29-.13-100.23 0-19.65 2.08-17.9-19.56-17.9-3.44 0-9.19-.62-11.48 1.13-3.01 2.28-2.41 5.75-2.41 10.22v37.82z" fill="#898989"/></svg>