<svg xmlns="http://www.w3.org/2000/svg" width="85.124" height="78.886" viewBox="0 0 235.84 218.56" shape-rendering="geometricPrecision" text-rendering="geometricPrecision" image-rendering="optimizeQuality" fill-rule="evenodd" clip-rule="evenodd"><g fill="#9732d6"><path d="M119.15 218.56c-11.53 0-21.97-4.67-29.52-12.23-7.56-7.56-12.23-17.99-12.23-29.52 0-11.53 4.67-21.97 12.23-29.52 7.56-7.56 17.99-12.23 29.52-12.23 11.53 0 21.97 4.67 29.52 12.23 7.56 7.56 12.23 17.99 12.23 29.52 0 11.53-4.67 21.97-12.23 29.52-7.56 7.56-17.99 12.23-29.52 12.23zm-23.68-18.07c6.06 6.06 14.43 9.81 23.68 9.81s17.62-3.75 23.68-9.81c6.06-6.06 9.81-14.43 9.81-23.68s-3.75-17.62-9.81-23.68c-6.06-6.06-14.43-9.81-23.68-9.81s-17.62 3.75-23.68 9.81c-6.06 6.06-9.81 14.43-9.81 23.68s3.75 17.62 9.81 23.68z" fill-rule="nonzero"/><path d="M62.71 128c-2.19 10.03-11.96 19.02-24.61 16.45-10.22-2.07-19.11-12.42-16.46-25.19 2.04-9.82 12.14-19.07 24.81-16.39 9.94 2.1 19.03 12.5 16.26 25.13zm-20.23 79.9l9.99-15.98c8.89-13.5 22.39-37.03 27.99-51.62 5.92-15.43 5.2-28.63-3.82-41.12-18.43-25.56-53.79-22.63-69.17.33-8.88 13.26-9.61 25.12-3.43 41.22 5.92 15.43 23 44.64 33.1 59.5 1.66 2.43 3.7 6.03 5.34 7.67zm96.26-161.04c-2.19 10.03-11.96 19.02-24.61 16.45-10.22-2.07-19.11-12.43-16.46-25.19 2.04-9.82 12.14-19.07 24.81-16.39 9.94 2.1 19.03 12.5 16.26 25.13zm-20.23 79.9l9.99-15.98c8.89-13.5 22.39-37.03 27.99-51.62 5.92-15.43 5.2-28.63-3.82-41.12-18.43-25.56-53.79-22.63-69.17.33-8.88 13.26-9.61 25.12-3.43 41.22 5.92 15.43 23 44.64 33.1 59.5 1.66 2.44 3.7 6.03 5.34 7.67zm95.76 4.19c-2.19 10.03-11.96 19.02-24.61 16.45-10.22-2.07-19.11-12.43-16.46-25.19 2.04-9.82 12.14-19.07 24.81-16.39 9.94 2.1 19.03 12.5 16.26 25.13zm-20.23 79.9l9.99-15.98c8.89-13.5 22.39-37.03 27.99-51.62 5.92-15.43 5.2-28.63-3.82-41.12-18.43-25.56-53.79-22.63-69.17.33-8.88 13.26-9.61 25.12-3.43 41.22 5.92 15.43 23 44.64 33.1 59.5 1.66 2.44 3.7 6.03 5.34 7.67z"/></g></svg>