<svg xmlns="http://www.w3.org/2000/svg" width="113.303" height="113.349" viewBox="0 0 1145.08 1145.55" shape-rendering="geometricPrecision" text-rendering="geometricPrecision" image-rendering="optimizeQuality" fill-rule="evenodd" clip-rule="evenodd"><path d="M538.95 137.58c92.24-7.58 187.33 16.16 261.79 63 38.15 24 33.27 23.19 62.03 46.2 35.94 28.76 74.18 82.2 95.86 122.14 25.63 47.21 44.05 107.21 48.93 168.73 19.98 252.51-171.73 451.52-400.43 469.9-252.27 20.27-450.89-172-469.56-400.05-7.77-94.87 15.92-186.4 62.9-263.24 24.2-39.57 65.87-88.11 102.88-115.13 72.74-53.08 135.13-83.3 235.59-91.55zM502.09 2.89l-38.21 6.94C309.01 40.47 171.84 133.01 88.79 265.09c-15.98 25.42-29.72 51.78-43.16 82.06-83.37 187.7-50.21 430.44 80.89 584.86 4.81 5.67 9.32 12.36 14.52 17.95 18.68 20.08 34.71 37.31 55.76 55.54 3.17 2.75 4.71 3.78 8.46 7.04 48.31 42.13 118.51 80.06 180.99 102 15.83 5.55 31.62 8.78 47.26 14.17 7.99 1.38 31.81 4.81 36.49 8.86 9.29-1.1 32.71 3.98 43.88 5.13 16.1 1.65 33.14 2.49 49.41 2.77 87.88 1.47 172.99-17.45 249.59-52.75 247.82-114.18 380.41-385.43 316.07-657.46-15.07-63.72-30.48-90.47-57.57-144.9-6.11-10.34-14.24-22.42-19.95-33.19l-.21-2.12c-5.28-3.01-19.43-24.89-22.25-30.37-3.36-1.65-5.06-5.06-7.39-8.25-.19-.26-.47-.63-.66-.89l-3.56-4.25c-21.55-26.43-36.56-42.45-61.94-64.91-5.34-4.72-8.87-7.94-13.98-12.2l-12.46-11.5c-14.18-5.14-88.71-79.59-243.06-111.84-8.22-1.72-37.13-4.52-41.68-7.91-8.04 1.12-17.96-.53-25.46-1.58-32.22-1.42-59.9-2.19-92.26.08l-24.43 1.45z" fill="#2ba02d"/></svg>