<svg xmlns="http://www.w3.org/2000/svg" width="57.339" height="52.19" viewBox="0 0 1008.11 917.59" shape-rendering="geometricPrecision" text-rendering="geometricPrecision" image-rendering="optimizeQuality" fill-rule="evenodd" clip-rule="evenodd"><path d="M354.64 627.24l34.63 23.49c23.52 17.19 63.78 36.43 93.18 36.43 73.81 0 84.59-2.23 141.75-40.33 10.31-6.88 19.88-13.57 30.04-20.37l198.79 198.28-695.65.25 197.25-197.76zM500.93 0h.14c32.48.01 55.97 4.97 81.6 20.13l380.18 228.81c5.1 3.4 10.45 6.77 15.43 10.29 13.87 9.79 29.84 38.14 29.84 45.27v512.28c0 25.52-2.3 41.52-12.53 57.41-8.53 13.24-20.97 26.12-35.46 33.47-18.94 9.61-32.68 8.9-60.02 8.9-12.65 0-21.64 1.02-33.72 1.03H497.78c-67.66 0-132.25-1.03-199.44-1.03H97.75c-8 0-30.12 1.52-36.41-1.65-1.65-.83-2.49-1.43-3.93-2.24-18.81-10.53-32.99-18.75-44.46-37.83-7.13-11.85-11.92-22.65-11.87-37.5.01-5.68-.78-6.59-1.04-11.21V304.48c.01-3.81 6.01-14.03 7.89-17.83 5.12-10.35 12.78-21.74 22.34-28.06l77.34-48.16c21.43-12.83 41.19-25.32 62.61-38.2 21.41-12.87 41.35-25.18 62.75-38.06l157.78-94.25C427.71 17.6 453.49.01 500.97 0zM92.59 757.11c0-6.67-1.13-291.84 1.26-299.23 1.25-3.89 4.29-.19 10.26 3.79 3.92 2.62 7.38 4.92 11.11 7.41l68.1 45.06c15.24 10.16 30.01 19.66 45.27 29.83 6.57 4.39 42.4 27.44 45.05 31.07-2.96 4.42-7.16 7.68-11.06 11.58l-10.78 11.84c-16.78 18.13-49.35 49.32-67.91 67.88-6.64 6.64-86.26 87.4-91.3 90.78zm643.95-184.13c3.3-.88 18.98-12.58 22.21-14.82 7.64-5.3 14.59-9.72 22.23-14.81l44.23-29.84c3.21-2.13 85.99-57.68 90.32-58.84v300.38l-90.22-89.8c-2.25-2.68-2.55-3.53-5.18-6.14-2.15-2.14-3.54-3.51-5.67-5.64-21.35-21.35-41.16-40.55-61.71-62.76-5.3-5.74-12.87-11.41-16.21-17.74zM493.77 93.61c35.82 0 27.52-3.02 52.66 12.15L818.9 269.45c16.61 9.94 32.91 20.03 49.38 29.83l36.57 23.1c12.64 8.39 10.69 6.74 10.69 18.11 0 2.96-6.99 6.39-11.32 9.26l-87.85 58.22c-17.05 11.36-33.29 21.84-50.2 33.12L565.99 574.2c-19.26 12.84-35.18 21.4-61.93 21.4-12.95 0-24.92-3-34.85-6.29-10.35-3.42-18.48-9.38-27.07-15.1-16.92-11.28-33.08-22.05-49.99-33.32-33.56-22.37-66.62-44.08-100.19-66.46L91.57 341.52c4.78-9.95-6.49-6.31 17.69-22.42 8.53-5.69 16.41-10.35 25.1-16.05 4.3-2.83 7.85-4.57 12.15-7.4l38.35-23.38c17.3-10.31 33.57-20.35 50.68-30.59l215.5-129.11c14.29-8.61 28.26-18.96 42.75-18.96z" fill="#7a2d80"/></svg>