<svg xmlns="http://www.w3.org/2000/svg" width="113.799" height="108.352" viewBox="0 0 1097.41 1044.88" shape-rendering="geometricPrecision" text-rendering="geometricPrecision" image-rendering="optimizeQuality" fill-rule="evenodd" clip-rule="evenodd"><defs><style>.fil0{fill:#9732d6}</style></defs><g id="Layer_x0020_1"><g id="_2675844420752"><path class="fil0" d="M493.33 7.38c-258.49 71.4-151.25 448.66 102.69 386.44 90.18-22.09 172.3-121.48 141.67-241.99C714.38 60.09 614.56-26.11 493.33 7.38z"/><path class="fil0" d="M564.42 961.41l.17-427.39c61.01-50.52 248.81-82.69 344.86-94.92l-.16 448.85c-42.34 12.1-128.92 17.12-178.22 27.85-54.42 11.84-121.23 38.34-166.65 45.61zM178.68 440.24c139.99 6.02 230.26 47.61 342.24 86.6l2.21 435.44c-51.15-10.27-107.63-33.2-163.03-45.14-59.25-12.76-120.91-21.64-181.61-27.19l.19-449.72zm-66.49-37.31l1.57 548.43c126.32 12.02 211.41 17.68 330.59 57.73 19.68 6.62 86.35 34.99 96.01 35.78 9.62.79 161.38-53.72 198.99-62.25 81.57-18.5 151.19-18.89 229.57-31.57 9.87-24.8 5.98-105.15 6.02-135.2l-1.16-447.48c-225.8-.28-406.15 90.84-428.6 92.17-.87.05-161.2-55.25-197.17-63.06-70.92-15.4-160.42-29.18-235.29-29.07l-.52 34.52zm906.99 352.59c36.19-10.65 75.8-57.87 78.1-110.12 2.55-58.03-35.91-106.3-78.08-118.03l-.02 228.15z"/><path class="fil0" d="M477.2 605.75c-34.93-7.54-75.47-24.02-117.22-33.47-44.63-10.11-88.61-13.91-133.8-22.55l-.34-38.97c62.77-3.72 203.25 32.5 252.62 54.41l-1.26 40.58zm.65 74.01c-36.25-6.96-78.56-23.65-119.5-33.29-38.68-9.1-96.86-12.03-127.39-23.1-8.17-17.09-5.67-15.09-4.11-38.98 76.39-1.77 182.53 30.35 251.33 54.18l-.32 41.19zm1.17 75.22c-33.78-4.04-84.77-24.75-123.93-33.74-42.54-9.76-86.43-11.98-128.61-21.68l-.8-39.06c58.16-2.54 207.67 31.95 252.85 55.32l.5 39.16zm-1.12 74.64c-33.01-5.43-79.96-23.38-118.88-32.73-46.7-11.22-89.18-12.96-133.2-23.11l.53-39.48c73.56-.69 191.42 28.45 251.74 55.24l-.19 40.08zm-.71 33.55l-.62 43.58c-90.77-30.07-150.38-36.25-249.96-56.66l-.79-39.26c68.67-4.21 189.25 31.17 251.38 52.33zm315.06-325.88c18.66-8.81 46.86-21.95 65.49-13.11-7.29 23.83 3.9 2.38-20.66 19.66 13.83 8.75 37.77 10.46 26.51 36.16-2.73 6.24-18.24 13.9-24.54 15.37-35 8.15-26.56-3.76-30.07-6.06 8.81-7.01 10.36-.26 30.6-20.06l-30.67-15.57-16.46 52.76c-29.45.71-7.26 9.76-23.67-12-8.86 14.13-7.9 18.28-29.39 23.61l-11.43-51.58-31.11 10.42 23.3 9.02-20.72 16.92c17.17 12.82 8.2 1.74 29.48 19.67l-53.53 10.71.25-71.99 65.77-15.57 10.04 28.17 17.34-34.87 17.05 23.53 6.4-25.2zM647 604.16c3.44-28.98-5.74-30.46 16.92-36.94 3.8 12.15 5.7 51.99 2.62 65.69-12.95 22.1-27.86-10.25-35.39-20.07-3.41 22.28 7.31 15.62-13.11 37.04-16.44 1.37-11.39-39.86-7.39-72.71 17.36-1.02 14.33 7.67 36.35 26.99zm-37.46 107.21c83.87-19.46 154.15-49.59 252.61-52.05l.28 35.27c-8.52 5.81 2.67 1.09-15.57 7.03l-50.44 8.14c-86.57 13.23-135.4 37.23-186.99 46.4l.12-44.79zm-.14 88.09c8.95-22.7-2.97-9.34 21.34-20.08 46.51-20.57 184.36-44.08 231.31-45.99l-1.4 39.86c-23.24 8.54-96.35 16.01-127.98 22.98-41.93 9.24-83.39 26.81-123.43 33.49l.17-30.26zm2.11 65.55c46.87-28.05 186.83-54.23 250.85-55.82.44 58.28 7.25 39.78-60.7 49.62-87.93 12.73-121.02 31.57-192.49 47.77l2.33-41.57zM78.22 755.52C42.03 744.87 2.42 697.65.12 645.4c-2.55-58.03 35.91-106.3 78.08-118.03l.02 228.15z"/></g></g></svg>