<svg xmlns="http://www.w3.org/2000/svg" width="31.197" height="29.958" viewBox="0 0 12.52 12.02" shape-rendering="geometricPrecision" text-rendering="geometricPrecision" image-rendering="optimizeQuality" fill-rule="evenodd" clip-rule="evenodd"><defs><style>.fil3{fill:#6c6c6c}.fil1{fill:#888}</style></defs><g id="Layer_x0020_1"><g id="_2407422996880"><path d="M7.64 9.61c0-.03 0-.04.01-.07.03-.08.02-.04.03-.06.14-.5.76-.96 1.49-.87.62.08 1.15.57 1.16 1.2.03 1.36-2.08 1.78-2.63.43 0-.01-.01-.01-.01-.01l-.03-.09c-.04-.24-.02-.31-.02-.53zm-2.8-.13c.01.02.01-.01.03.06.01.03.01.05.01.07-.01.22.02.29-.02.53-.01.07.01 0-.01.06-.01.03-.02.04-.02.03l-.01.01c-.2.48-.76.94-1.53.81-.6-.1-1.12-.62-1.1-1.26.02-.63.55-1.11 1.18-1.19.72-.09 1.33.38 1.47.87zm-.12-4.09c.01-.04-.01-.01.01-.06.02-.07.01-.02.03-.05.15-.18.2-.51.54-.35.22.1.45.23.67.32.07-.06.13-.14.28-.14.15 0 .23.07.28.14.12-.04.32-.15.44-.2.11-.05.34-.21.47-.16.23.09.6.79.29 1.37-.38.69-.51.2-1.2-.01-.04.08-.12.15-.28.15-.16 0-.2-.08-.28-.14-.66.29-.79.52-1.02.25-.27-.32-.33-.63-.22-1.11zm.01-1.5c-.06-.08-.03-.3-.02-.4l.04-.12c.03-.46.44-.87.86-.95l.13-.04c.22-.01.39-.05.64-.04.56.02 1.06.19 1.29.69.26.56.25 1.56-.82 1.48-.03-.01-.05 0-.08-.02-.04-.01-.02-.01-.04-.03-.32-.08-.27-.24-.27-.39 0-.18-.02-.44.01-.61.06-.05.07-.05.12-.09.03-.03.07-.07.09-.11.05-.06.11-.17.11-.27.01-.25-.28-.29-.54-.29s-.54.05-.52.31c.02.23.19.35.32.45.01.17.03.73-.01.85-.15.18-.56.26-.86.14-.19-.08-.48-.31-.46-.58zm2.24-2.13c.27-.11.43.28.18.37-.28.1-.46-.25-.18-.37zm-1.54-.01c.29-.08.39.31.15.38-.31.1-.44-.31-.15-.38zM8.3.81c.17-.1.3-.22.62-.18.74.11.74 1.13.04 1.24-.06-.07-.13-.36-.29-.58L8.29.81zM3.59 1.84l-.03.04-.04-.03c-.36-.08-.62-.55-.37-.93.25-.37.8-.4 1.08-.12-.02.04-.58.59-.64 1.03zm-.07 1.33c.01.01.02.02.03.06.01.03.01.05.01.07.06.2.14.37.24.54.11.18.31.41.34.46-.19.08-.41.21-.59.3L.65 6.12c-.41.21-.65.49-.63 1.07.04.07.03.07.04.13.03.25.28.47.42.57.24.16.46.19.82.19.02-.01-.01-.01.05-.02.01 0 .03-.01.03-.01.03-.01.06-.01.08-.01L1.58 8c.12-.06.21-.11.33-.16.08-.04.26-.17.32-.14l-.04.1c-.03.12-.09.32-.2.4-.29.22-.7.75-.72 1.05l-.06.14c0 .14-.04.28-.04.45 0 .17.04.3.04.45l.06.14c.01.15.17.42.24.54.12.18.21.28.36.42.22.2.75.55 1.05.55l.15.05c.14.01.26.04.42.04.67.01 1.19-.2 1.67-.58.08-.06.14-.13.22-.21.36-.35-.08-.23.88-.22.93.01.52-.15.88.23.37.39.85.66 1.44.75.45.07.63-.01.83.01.03-.03-.01 0 .04-.02.01 0 .04-.01.05-.01l.11-.03c.15 0 .48-.16.59-.22.19-.11.31-.2.46-.33.22-.2.59-.68.6-.96l.06-.14c0-.16.05-.31.04-.51-.01-.17-.03-.3-.07-.46-.01-.01-.01-.01-.03-.05-.02-.05 0 0-.01-.06-.1-.33-.37-.72-.61-.93-.05-.04-.14-.09-.17-.14a3.68 3.68 0 01-.17-.44c-.01-.01-.05.01-.01-.05.07.01.04.02.05.04.14.1.43.23.61.32l.12.04c.03 0 .06 0 .1.01.09.02.04.02.06.03.46.01.64-.05.91-.26.19-.14.36-.43.37-.77 0-.71-.6-.9-1.1-1.18l-3.04-1.6c.14-.22.28-.27.49-.77.16-.37.16-.61.19-1.03.58-.13 1.04-.53 1.09-1.16.05-.59-.47-1.17-.96-1.26L9.05.03c-.29-.04-.49-.04-.77.06-.35.13-.42.26-.55.33-.35-.18-.65-.31-1.1-.37-.59-.07-.82 0-1.32.11l-.1.04c-.18.05-.33.16-.47.21-.15-.1-.2-.2-.5-.31-.66-.25-1.36 0-1.7.51-.25.37-.26.81-.05 1.21.2.39.52.54.93.66.01.27.02.42.07.68z"/><path class="fil1" d="M4.71 3.89c-.01-.2.01-.32.02-.52l-.04.12c-.01.1-.04.32.02.4zm4.7 8.1c.05 0 .06-.01.11-.02.01 0 .04-.01.05-.02.05-.02.01 0 .04-.03-.03.01-.07.02-.11.03-.01 0-.05.01-.05.01-.05.02-.01 0-.04.02zM1.2 9.39l.06-.14c-.04.03 0-.04-.04.05-.01.03-.01.06-.01.09zM3.55 3.3c0-.03 0-.05-.01-.07-.01-.04-.02-.05-.03-.06.01.07.01.08.04.13z"/><path d="M10.31 7.7c.01-.02-.03-.02.04-.01-.01-.01.01-.03-.05-.04-.04.06 0 .03.01.05z" fill="#3d3d3d"/><path class="fil3" d="M.04 7.32c-.01-.06.01-.06-.04-.13.01.08 0 .07.04.13z"/><path class="fil1" d="M3.06 11.98l-.15-.05c.02.02-.03.01.07.04.03.01.05.01.08.01zm8.2-1.56c.04-.04 0 .05.04-.05.01-.03.01-.06.02-.09l-.06.14zm-10.01 0l-.06-.14c0 .02 0 .05.01.07.03.08.02.04.04.07z"/><path class="fil3" d="M11.24 8.08c-.02-.01.02-.01-.06-.03-.03-.01-.07-.01-.1-.01l.16.04z"/><path class="fil1" d="M11.29 9.31c-.01-.04.01-.01-.01-.06 0-.01-.01-.01-.01-.02s-.01-.01-.01-.02c0 0-.01-.01-.01-.02.01.06-.01.02.01.06.02.04.02.03.03.05z"/><path class="fil3" d="M1.28 8.08l.16-.04c-.02 0-.05 0-.08.01-.01 0-.03.01-.03.01-.06.02-.03.01-.05.02zm6.36 1.53l.05-.13c-.02.02-.01-.02-.03.06-.01.03-.01.05-.01.07zm-2.76 0c0-.02 0-.05-.01-.07-.02-.07-.02-.04-.03-.06l.05.13z"/><path class="fil1" d="M5.6 2.42c.04 0 .05 0 .08-.01.04-.01.03-.02.05-.03l-.13.04z"/><path class="fil3" d="M9.19.06c-.04-.02.04 0-.05-.03-.03-.01-.05-.01-.09-.01l.13.04z"/><path class="fil1" d="M6.83 4.51l-.12-.04c.02.02 0 .01.04.03.03.01.05.01.08.02z"/><path class="fil3" d="M3.5 1.85l.04.03.03-.04c-.04.02-.01.01-.07.02zm1.21 3.54l.04-.1c-.02.03 0-.03-.03.05-.02.05 0 .01-.01.06zm.11 4.85c0-.01.01-.02.01-.01 0 0 .01-.01.02-.03.02-.06 0 0 .01-.06l-.04.11z"/><path class="fil1" d="M5.22.2l.1-.04c-.07.01-.01-.01-.06.01-.08.03 0 0-.04.03z"/><path class="fil3" d="M7.69 10.24l-.04-.11.03.09.01.01z"/><path class="fil1" d="M2.17 7.79l.04-.09zm8.91.25L10.96 8zm-9.64 0L1.56 8z"/></g></g></svg>