<svg xmlns="http://www.w3.org/2000/svg" width="31.411" height="28.917" viewBox="0 0 12.68 11.67" shape-rendering="geometricPrecision" text-rendering="geometricPrecision" image-rendering="optimizeQuality" fill-rule="evenodd" clip-rule="evenodd"><path d="M1.06 1.81c0-.47.29-.76.8-.76h5.42c.62 0 1 .37 1 .93v7.9c0 .46-.31.74-.8.74H1.77c-.46 0-.71-.25-.71-.66V1.81zm8.26 8.56c.05-.31.01-6.92.01-7.56 0-1.02.19-2.21-1.19-2.68-.39-.14-.84-.1-1.28-.1C6.4.03 1.71 0 1.39.05.68.15.12.66.03 1.32c-.04.32-.01 7.92-.01 8.84 0 .41.09.71.31.96.55.63 1.09.55 2.17.55.49 0 5.11.03 5.47-.02.72-.1 1.26-.61 1.36-1.28zm2.65-4.9c.72-.04.69-.27.69-.85 0-.83.03-2.16 0-2.93-.03-.61-.74-.45-1.07-.48-.17-.4-.15-.76-.43-1.09-.34-.4-.62.35-.7.62-.47 1.54-.52 3.85-.51 5.49.01.9.06 1.92.2 2.8h1.62c.19-1.16.17-2.36.21-3.56zM2.1 3.68c-.46.09-.56.75.21.74.64 0 4.87.03 5.11-.01.41-.07.57-.75-.23-.74-.6 0-4.89-.03-5.08.01zm-.35 1.96c.05.42.6.34 1.03.34h2.8c.44 0 .97.05.91-.43-.05-.42-.6-.33-1.04-.33-.41 0-3.26-.04-3.44.03-.14.05-.27.2-.25.4zm.29-3.49c-.24.07-.39.3-.23.56.14.24.44.19.79.19.31 0 1.78.03 1.95-.02.21-.07.37-.31.22-.56-.14-.23-.43-.19-.79-.19-.32 0-1.75-.03-1.94.02zm8.2 7.5c.15 1 .49 1.48.5 1.56.03.19-.06.47.21.46.29-.01.14-.32.2-.5.01-.03.15-.2.23-.44.11-.29.23-.75.27-1.08h-1.42z" fill="#2b2a29"/></svg>