<svg xmlns="http://www.w3.org/2000/svg" width="29.16" height="36.968" viewBox="0 0 10.92 13.84" shape-rendering="geometricPrecision" text-rendering="geometricPrecision" image-rendering="optimizeQuality" fill-rule="evenodd" clip-rule="evenodd"><path d="M7.46 12.16c0-.39.32-.65.59-.65.24 0 .38 0 .56.16.37.31.25.9-.2 1.06a.72.72 0 01-.74-.13.585.585 0 01-.22-.43zm-4.09-.04c0-.32.33-.62.61-.62h.22c.16 0 .41.17.5.38.11.24.07.49-.13.67-.19.17-.33.24-.65.19-.32-.05-.56-.33-.56-.62zm2.61-.62c.3 0 .46 0 .68.23l.09.14c.25.5-.32 1.06-.88.84l-.11-.05c-.05-.03-.07-.04-.11-.07-.01-.01-.04-.03-.04-.04l-.02-.02-.02-.02c-.27-.29-.16-.76.16-.93.05-.03.18-.09.24-.09zM7 10.92c-.66 0-.95-.64-.55-1.06l.01-.01c.1-.1.25-.16.4-.19.58-.11 1.03.57.66 1.02-.02.03-.03.04-.06.06l-.03.03-.08.06c-.09.05-.25.11-.35.11zM4.86 9.65c.22 0 .4.05.54.16.26.21.32.64.02.92-.22.2-.5.23-.79.12a.497.497 0 01-.19-.13c-.16-.15-.2-.22-.19-.42.01-.16.01-.33.17-.46.11-.09.25-.21.45-.21zm2.61-1.21c0-.52.7-.86 1.17-.43.21.19.29.45.15.7-.05.1-.07.11-.15.18-.09.08-.07.08-.2.14-.1.04-.17.05-.28.06-.32.02-.69-.25-.69-.65zm-1.36-.62c.12 0 .2.01.29.05.13.05.11.05.2.13.16.14.22.26.22.49 0 .17-.13.34-.26.45-.05.04-.1.06-.17.09-.13.06-.27.06-.42.04a.638.638 0 01-.49-.87c.09-.21.3-.38.63-.38zm-2.73.62c0-.17.11-.35.21-.44l.09-.07c.25-.15.66-.16.88.06.08.09.11.1.16.23s.07.23.03.38c0 .01-.01.03-.01.04 0 .01-.01.04-.01.04a.6.6 0 01-.16.23l-.01.01-.06.04c-.02.01-.05.03-.07.04-.39.19-.84.04-1-.36-.03-.07-.05-.11-.05-.2zm-.24 5.39h5.97c.07 0 .16-.05.22-.08.49-.22.64-.61.64-1.09l.02-5.75h-7.7c0 .65.02 1.25.02 1.9v3.84c0 .31-.04.47.21.78.13.16.2.2.34.28l.13.07s.01 0 .01.01c.01 0 .02.01.03.01.05.02.04.03.11.03zM.76 2.08c.01.08.06.21.08.28l1.04 3c.03.1.06.19.09.27l.29.84h1.85c-.01-.11-.12-.35-.16-.47-.01-.04-.01-.04-.02-.07-.01-.04-.02-.03-.03-.08l-.35-1c-.02-.04-.02-.03-.04-.08L2.88 3c-.01-.04-.01-.05-.03-.09l-.4-1.07c-.04-.09-.07-.21-.12-.3l-.99.34-.1.04c-.05.02-.05.01-.11.03l-.39.14zM4.4.27c-.04.12-.01 5.89-.01 6.18l.47.01V.59C5.04.57 6.35.58 6.75.58c.14 0 .11.01.13.03-.04.14-.01.49-.01.65h-.55c-.22 0-.35 0-.35.21 0 .24.2.21.33.21h.57v1.01h-.55c-.22 0-.35 0-.35.21 0 .2.13.21.35.2.12 0 .15.02.26.02h.29v.97c-.48 0-.91-.08-.9.22.01.24.24.2.35.21.11 0 .14.02.26.02h.29v.97h-.55c-.22 0-.34.01-.35.21-.01.23.19.22.33.22h.57v.54h.49L7.35.55C7.34.49 7.34.44 7.33.36c0-.06-.03-.11-.04-.17H4.68c-.17 0-.21 0-.29.09zm5.85 1.51c.09.01.16.04.24.06v.75l-.61-.15c.01-.12.28-.51.37-.65zM8.09 6.46c.63 0 .48.1.65-.51l.9-3.06c.22 0 .55.1.77.15l-.27.95c-.01.03-.02.08-.03.12l-.42 1.41c-.06.17-.17.65-.24.83-.06.15.02.1.48.1l.5-1.76c.01-.04.02-.06.03-.1l.28-1c.01-.05.02-.05.04-.1.01-.04.02-.09.03-.12l.12-.45V.53c0-.1-.11-.21-.22-.21-.16 0-.23.15-.29.25l-.53.84-.02.04-.51.82c-.04.06-.07.1-.1.17l-.84 2.82c-.01.06-.01.07-.02.11-.01.04-.02.05-.03.1l-.19.64c-.01.04-.01.06-.03.11-.02.09-.05.13-.05.23zM.02 2.19c0 .22.02.17.08.38.02.06.03.09.05.14.01.05.02.11.03.15l.08.3c.02.07.02.08.03.16.02.11.04.12.06.3l.09.47c.08.35.14.9.24 1.25.02.06.04.1.04.15l.21.72c.06.19.2.56.49.41.23-.12-.06-.58-.15-1L.72 3.01C.66 2.74.6 2.43.49 2.19a.388.388 0 00-.06-.11c-.06-.08-.26-.11-.37 0-.05.05-.05.05-.05.1zm.84-.49c.09-.01.42-.12.53-.16l.53-.19c.2-.07.12-.16.01-.48C1.89.74 1.84.62 1.8.5c-.13-.42-.29-.5-.51-.52H1C.85-.02.67.16.6.25.39.51.5.71.58.98c.01.05.02.08.03.12.02.05.03.07.05.13.04.12.12.36.2.47zM6.88.6c-.02-.01.01-.03-.13-.03-.4 0-1.72-.01-1.89.01v5.87l-.47-.01c0-.29-.03-6.05.01-6.18h-.04v6.19h.51V.59h2.01z" fill="#2b2a29"/></svg>