<svg xmlns="http://www.w3.org/2000/svg" width="33.43" height="24.05" viewBox="0 0 14.36 10.33" shape-rendering="geometricPrecision" text-rendering="geometricPrecision" image-rendering="optimizeQuality" fill-rule="evenodd" clip-rule="evenodd"><path d="M3.3 2.83c-.28.05-.22.31-.22.57v.75c0 .27-.06.5.24.54.18.02 8.05 0 9.17 0 1.93 0 1.86.17 1.86-.59v-.75c0-.65-.03-.54-1.08-.54-.53 0-9.79-.02-9.98.01zm.01 2.81c-.29.05-.23.28-.23.56v.75c0 .67.01.56 1.06.56.52 0 9.81.02 9.99-.01.26-.04.22-.31.22-.55V6.2c0-.67.01-.57-1.06-.57H4.96c-.36 0-1.38-.04-1.66.01zM3.09.29v1.29c0 .23.13.29.36.29h10.59c.22 0 .33-.08.33-.29V.29c0-.21-.1-.29-.33-.29H3.43c-.23 0-.34.07-.34.29zm0 8.45v1.29c0 .22.11.29.34.29h10.62c.22 0 .32-.08.32-.29V8.74c0-.21-.1-.29-.33-.29H3.42c-.21 0-.32.09-.32.29zM.23 5.64c-.3.06-.22.35-.22.73 0 1.23-.15 1.14.8 1.14 1.34 0 1.25.14 1.25-.73 0-1.22.16-1.15-.8-1.15-.25 0-.82-.03-1.02.01zM.2 8.46c-.27.07-.19.38-.19.75 0 1.21-.14 1.11.82 1.11 1.32 0 1.23.15 1.23-.74 0-1.22.15-1.13-.83-1.13-.23 0-.86-.03-1.03.02zM.01 3.12v1.27c0 .41.37.31 1.01.31.66 0 1.04.1 1.04-.31V3.12c0-.21-.1-.3-.33-.3H.34c-.22 0-.32.09-.32.3zm0-2.83v1.29c0 .21.1.29.33.29h1.39c.23 0 .33-.08.33-.29V.29c0-.21-.11-.29-.33-.29H.34C.11 0 .01.08.01.29z"/></svg>