<svg xmlns="http://www.w3.org/2000/svg" width="28.184" height="29.277" viewBox="0 0 10.22 10.61" shape-rendering="geometricPrecision" text-rendering="geometricPrecision" image-rendering="optimizeQuality" fill-rule="evenodd" clip-rule="evenodd"><defs><style>.fil0{fill:#2b2a29}</style></defs><g id="Layer_x0020_1"><g id="_2407418629408"><path class="fil0" d="M2.2 1.29c0-.28.31-.81.67-.81.4 0 .84.35 1.08.58l.05.05c.1.09.19.2.29.3.04.04.05.07.09.11l.26.33c-.12 0-.22.02-.29.02-.19.01-.32.02-.53.02-.38 0-.7-.02-1.02-.11-.2-.06-.58-.23-.58-.49zM2.74 0h.22c.53.05 1.14.47 1.47.82l.72.84c.01-.04.09-.13.11-.16l.35-.44.33-.34c.03-.03.04-.04.07-.06.05-.05.09-.08.14-.12.1-.08.2-.15.31-.22.25-.15.56-.29.88-.32h.18c.05 0 .09.01.14.02.3.06.61.29.78.54.04.06.07.1.1.16.24.44.14.88-.19 1.16-.15.12-.55.32-.71.32l1.85.01c.25 0 .36-.02.52.09.1.07.21.23.22.41v2.02H5.52c0-.83-.01-1.64-.01-2.48-.05 0-.1.01-.17.01-.17 0-.39.03-.51.01l-.11.01v2.44H.02V2.69c.01-.17.12-.33.22-.4.15-.11.29-.1.53-.1h1.82l-.38-.14c-.12-.05-.22-.12-.32-.2-.36-.31-.28-.8-.07-1.19.13-.24.32-.44.55-.56.09-.05.22-.09.33-.11.02 0 .03-.01.05-.01zm3.63 1.86c-.25 0-.48-.02-.7-.02l.17-.21c.1-.12.25-.32.36-.41.04-.03.06-.07.1-.1.04-.03.06-.06.1-.09.21-.19.66-.56.97-.56.29 0 .52.21.64.45.26.52-.13.77-.57.86-.32.06-.7.08-1.07.08zm2.99 8.75c.19 0 .42-.23.42-.46V5.12H5.47v5.49h3.89zm-8.92-.48c-.01.16.09.34.21.41.08.04.14.06.21.07h3.88V5.14H.43v5z"/><path class="fil0" d="M.44 10.13v-5h4.31c-.02-.02.01-.01-.02-.01H.44v4.97c.01.04 0 .02.01.03zM0 4.73l.06.01h4.65V2.29c.05 0 .08.01.1-.02l-.11.01v2.44H0z"/></g></g></svg>