<svg xmlns="http://www.w3.org/2000/svg" width="30.728" height="36.619" viewBox="0 0 12.1 14.42" shape-rendering="geometricPrecision" text-rendering="geometricPrecision" image-rendering="optimizeQuality" fill-rule="evenodd" clip-rule="evenodd"><defs><style>.fil0{fill:#2b2a29}</style></defs><g id="Layer_x0020_1"><g id="_2443810682256"><path class="fil0" d="M5.71 11.49c.51-.11.94.2 1.03.56.12.45-.23.82-.63.91-1.09.23-1.54-1.21-.41-1.46zm2.46-1.61c.65-.11 1.16.31 1.24.77.11.56-.35 1.01-.86 1.1-.66.11-1.18-.31-1.27-.78-.11-.58.35-1 .88-1.08zM9.43 7.3c.75-.1 1.33.37 1.43.92.12.66-.43 1.18-1.05 1.26-.74.1-1.34-.38-1.43-.92-.11-.67.42-1.18 1.05-1.26zm-.75-2.39c.59-.13 1.08.22 1.2.64.15.52-.26.94-.7 1.05-1.28.31-1.8-1.39-.5-1.68zm-.25-1.05c-.07.17-.88 1.31-1 1.48-.36.5-1.2 1.6-1.63 2.1-.2.23-.35.45-.54.69-1.08 1.33-.79.78-.64 1.5.15.71-.08 1.4-.49 1.83-.36.39-.96.68-1.14 1.34-.19.7.44 1.24.95 1.44.75.28 1.5.17 2.28.01 2.61-.54 4.87-2.35 5.6-4.47.46-1.34.35-2.76-.39-3.87-.12-.18-.4-.55-.56-.69l-.5-.44c-.34-.26-1.42-.87-1.95-.92zm-8.3 8.96c.11-.46 2.33-3.58 2.63-3.99.38-.52 2.55-3.29 2.95-3.7l.15.09-.75.92c-1.37 1.7-2.31 2.94-3.62 4.73-.43.59-.98 1.46-1.36 1.96zm5.46-7.75c-.03.04-.07.08-.1.12l-1.38 1.7a53.46 53.46 0 00-2.97 4.03c-.23.35-.46.7-.67 1.06-.12.19-.21.35-.33.55-.09.16-.28.46.05.52.22.04.43-.26.53-.35l1.54-1.55c.48-.54.93-1.01 1.45-1.61.2-.23 2.92-3.51 3.11-3.89-.33-.19-.65-.44-1.11-.68l-.11.11zm-2.92.75c-.1-.44.24-.77.63-.83.48-.08.87.22.95.56.09.43-.25.77-.64.83-.49.08-.86-.22-.94-.55zm.31 2l1.69-2.13c.51-.61 1.01-1.23 1.54-1.81.09-.09.16-.17.23-.27-1.98.07-3.36.65-4.58 1.45C.6 5.89.3 7.53 2.3 7.7c.31.03.4.06.67.12zM7.7 2.78C7.78 1.97 9.09.33 10.23.2c-.08.07-.29.15-.41.23-.48.32-.31.24-.54.41-.57.44-1.14 1.36-1.15 2.17-.03-.01-.42-.21-.44-.23zm-.12.11c.38.09.64.35.85.5.35-.12.73-.41.9-.63.54-.69.16-1.87 1.25-2.5.13-.07.49-.2.54-.24-.85-.08-1.6.2-2.17.69-.08.07-.15.13-.22.2-.33.27-1.16 1.36-1.15 1.98zM6.01 4.77c.21-.3 1.33-1.44 1.4-1.54.1.02.14.02.19.08-.06.07-.14.15-.19.2L6.16 4.87c-.09-.03-.1-.04-.14-.09zm-.2.05l1.11.67c.19-.18.99-1.4 1.19-1.7.15-.23.16-.28-.25-.53-.09-.05-.22-.13-.32-.16-.14-.04-.12-.03-.2.03L5.81 4.81z"/><path class="fil0" d="M.13 12.82c.38-.5.93-1.37 1.36-1.96a113.5 113.5 0 013.62-4.73l.75-.92-.15-.09c-.4.41-2.57 3.18-2.95 3.7-.3.4-2.51 3.53-2.63 3.99zM7.7 2.78c.03.02.41.22.44.23.01-.81.58-1.73 1.15-2.17.22-.17.06-.1.54-.41.12-.08.33-.16.41-.23-1.15.14-2.45 1.78-2.53 2.58zM6.01 4.77c.04.05.05.06.14.09L7.4 3.5c.04-.04.13-.13.19-.2-.05-.06-.09-.06-.19-.08-.07.11-1.19 1.24-1.4 1.54z"/></g></g></svg>