<svg xmlns="http://www.w3.org/2000/svg" width="26.814" height="32.6" viewBox="0 0 9.26 11.26" shape-rendering="geometricPrecision" text-rendering="geometricPrecision" image-rendering="optimizeQuality" fill-rule="evenodd" clip-rule="evenodd"><defs><style>.fil0{fill:#010101}</style></defs><g id="Layer_x0020_1"><g id="_2407517789104"><path class="fil0" d="M.91 11.11c-.04-.17-.11-.27-.12-.48-.02-.39-.01-1.3 0-1.71 0-.43-.04-1.93.05-2.24.16-.54.66-.99 1.35-1.05.33-.03 4.71-.02 4.95.01.65.08 1.16.53 1.3 1.1.07.3.03.78.04 1.11v1.14c0 .52.08 1.73-.13 2.12.19-.03.44-.26.54-.36.52-.51.37-1.5.36-2.31V6.68c-.01-1.09.1-1.98-.61-2.96-.27-.37-.55-.66-.93-.91-.96-.65-1.63-.7-3.05-.7-1.46 0-2.09.04-3.08.69-.34.22-.69.57-.93.91-.26.37-.44.75-.55 1.25-.12.56-.07 2.73-.07 3.45 0 .43-.05 1.37.03 1.73.1.43.48.84.86.97z"/><path class="fil0" d="M2.32 7.74h4.61v.7H2.32v-.7zm5.36 2.95c.04-.19.01-2.24.01-2.62 0-.7.15-1.35-.37-1.64-.19-.11-.35-.1-.61-.1-.96.01-1.92-.01-2.88 0H2.39c-.43 0-.75.22-.83.56-.04.19-.02 2.25-.02 2.63 0 .28-.03 1.07.05 1.28.17.43.56.46.94.46.96 0 1.92-.01 2.88 0h1.44c.45 0 .74-.21.82-.57z"/><path fill="#f5f5f5" d="M2.32 8.44h4.61v-.7H2.32z"/><path class="fil0" d="M4.83 0h-.38c-.22.09-.55.06-.95.45-.23.23-.41.53-.41.96h.77c.06-.93 1.48-.93 1.53 0h.77c0-.41-.17-.71-.39-.93C5.4.09 5.08.12 4.83.01z"/></g></g></svg>