<svg xmlns="http://www.w3.org/2000/svg" width="29.514" height="27.641" viewBox="0 0 11.23 10.52" shape-rendering="geometricPrecision" text-rendering="geometricPrecision" image-rendering="optimizeQuality" fill-rule="evenodd" clip-rule="evenodd"><path d="M3.04 5.01h-1.3c-.67 0-.5.31-.23.56l3.28 3.01c.17.15.42.46.82.46.4 0 .64-.3.81-.45.22-.21.43-.4.66-.6l2.63-2.4c.25-.23.48-.56-.2-.56H8.19C8.16 4.85 8.18.9 8.18.43c0-.41-.13-.41-.56-.41H3.59c-.68 0-.56.07-.56 1.33 0 .28.02 3.5-.01 3.69zm1.23 3.64c-1.16-.04-2.53 0-3.73 0-.27 0-.43.01-.51.21C0 8.95 0 10.05.01 10.21c.01.22.17.31.41.31h5.19c1.72 0 3.5.01 5.21 0 .24 0 .38-.1.4-.31.01-.16.01-1.26-.02-1.35-.08-.21-.25-.21-.53-.21-1.2 0-2.57-.04-3.72 0-.04.07-.27.26-.35.33l-.19.18c-.18.14-.46.28-.8.28-.57 0-.79-.29-1.01-.48-.08-.07-.3-.25-.33-.31z"/></svg>