<svg xmlns="http://www.w3.org/2000/svg" width="57.42" height="53.755" viewBox="0 0 6822.12 6386.77" shape-rendering="geometricPrecision" text-rendering="geometricPrecision" image-rendering="optimizeQuality" fill-rule="evenodd" clip-rule="evenodd"><path d="M3284.72 2491.65h1045.8v694.86h-1045.8v-694.86zm2519.72 694.86H4702.51v-694.86h1200.18c-7.27 15.22-98.25 644.43-98.25 694.86zm-3937.51-694.86h1045.84v694.86h-926.53c-21.46-92.19-106.78-668.77-119.31-694.86zm1417.79-1059.81h1045.8v694.86h-1045.8v-694.86zm2667.09 694.86H4702.5v-694.86h1347.6l-98.3 694.86zm-4260.33-694.86h1221.28v694.86H1810.79c-29.1-124.79-64.98-375.9-89.23-521.39-5.61-33.59-21.73-154.74-30.09-173.47zM-.01 350.97c0 189.99 109.16 307.82 258.65 351.97 115.32 34.04 430.64 20.03 590.59 20.03 3.41 41.27 15.54 93.31 23.04 138.4 7.23 43.15 16.97 101.17 24.11 144.33l589.56 3530.4c14.15 86.04 30.18 184.87 72.34 257.53 64.48 111.14 184.56 175.62 329.69 175.62h3839.21c508.1 0 521.08-715.88-14.01-715.88H2161.71c-.58-25.78-9.16-61.88-13.02-85.23l-28.11-168.44c-4.94-29.86-12.71-62.69-15-90.26h3776.03c175.85 0 299.34 10.1 413.89-56.36 104.18-60.44 152.23-153.13 175.76-294.49 40.46-242.71 84.24-578.74 118.86-828.68 9.34-67.36 231.98-1590.9 231.98-1656.01 0-192.69-159.37-357.94-350.93-357.94H1572.16c0-46.61-19.04-122.23-26.18-163.36-49.49-284.7-59.54-546-423.01-545.55L603.55.04c-52.63-.13-82.49 6.78-126.05 7.27C297.03 9.6 190.78-4.41 69 146.25 35.01 188.33-.02 275.89-.02 350.97zm1859.94 5460.56c0 111.5 1.44 174.37 53.66 276.21 14.86 28.96 29.46 52.76 48.5 77.87 220.71 291.57 638.42 295.79 857.51 1.93 128.38-172.12 140.15-416.14 21.69-600.38-87.34-135.88-250.8-246.93-412.86-246.93-111.99 0-163.05-.99-270.1 52.67-158.16 79.26-298.39 263.1-298.39 438.63zm3186.51 7.01c0 187.52 42.08 290.58 166.64 415.87 141.59 142.3 385.42 202.48 584.44 103.64 358.88-178.27 403.47-608.37 170.24-851.31-70.82-73.78-212.67-166.51-352.82-166.51-174.32 0-295.75 38.8-408.91 152.63-81.86 82.31-159.59 218.28-159.59 345.68z" fill="#fefefe"/></svg>