<svg xmlns="http://www.w3.org/2000/svg" width="17.476" height="35.141" viewBox="0 0 67.83 136.39" shape-rendering="geometricPrecision" text-rendering="geometricPrecision" image-rendering="optimizeQuality" fill-rule="evenodd" clip-rule="evenodd"><path d="M50.72 108.59V54c7.2-.61 7.37 3.61 7.37 9.75v34.79c0 4.63.62 10.93-7.37 10.05zm3.79 9.08c5.09-.06 9.62-4.42 11.41-7.67 2.58-4.7 1.8-11.72 1.8-17.47V73.35c0-4.89.56-14.5-.81-18.48-1.52-4.42-5.14-8.04-9.75-9.45-3.73-1.14-13.93-.63-18.53-.63H19.45c-6.22 0-12.91-.24-19.07.02l-.07 73.01c8.71-.35 18.15-.02 26.95-.02 9.03 0 18.28-.22 27.26-.11zM5.24 28.73c-.36 1-1.4 1.16-2.65 2.98-.59.85-1.58 2.64-1.59 3.83l49.41.01c0-1.37-1.57-3.66-2.19-4.37-2.58-2.95-2.59-1.1-2.56-4.24.04-3.9.33-9.91-.07-13.59C44.78 6.07 39.09.4 31.29.18 23.57-.04 13.98-1.04 9.01 5.11c-2.06 2.55-3.72 5.26-3.76 9.77-.04 4.6-.01 9.23 0 13.83zM.77 127.08c2.7 11.25 12.95 9.16 24.92 9.16 4.11 0 13.39.45 16.74-.43 3.82-1 7.63-4.31 8.22-8.76l-49.88.04z"/><path d="M54.51 117.66c-8.98-.1-18.22.11-27.26.11-8.8 0-18.23-.33-26.95.02l.07-73.01c-.36.36-.12-.11-.27.46-.03.11-.24 70.43.05 72.58 1.59.53 23.69.16 27.32.16.95 0 25.55.12 26.54-.1.37-.08.33-.13.5-.23z" fill="gray"/></svg>