<svg xmlns="http://www.w3.org/2000/svg" width="35.775" height="26.812" viewBox="0 0 38.61 28.93" shape-rendering="geometricPrecision" text-rendering="geometricPrecision" image-rendering="optimizeQuality" fill-rule="evenodd" clip-rule="evenodd"><path d="M38.55 25.46c.2-1.05-.16-2.02-.59-2.77l-5.18-8.74c-.31-.52-.93-1.8-1.44-2.04-.52-.24-5.83-.12-6.85-.12H10.56c-4.27 0-3.56-.46-4.95 2.02L.6 22.73c-1.06 1.9-.65 3.81.65 5.08 1.47 1.43 3.5 1.1 5.89 1.1h20.89c1.37 0 5.97.06 6.96-.03 1.96-.19 3.23-1.63 3.56-3.41zM18.52 6.65c-.5-.85-1.24-1.48-1.33-3.03-.04-.65.08-1.33.31-1.86.31-.74.64-1.07.77-1.37-.78-.53-2.17-.46-3.01-.11-1.84.78-2.52 3.06-1.57 4.95.71 1.41 1.49 1.56 1.8 1.87-2.66.02-5.5-.1-8.14.03-1.68.08-3.45 1.07-4.41 2.3-.14.18-.27.38-.39.56-.49.74-1.35 1.91-1.15 2.66.27 1.04 1.69 1.3 2.3.45.92-1.28 1.45-3.38 4.26-3.38h22.66c1.21 0 2.21.51 2.78 1.12.6.65.98 1.65 1.54 2.32.7.83 2.19.44 2.28-.74.05-.66-.98-2.12-1.29-2.59-.95-1.42-2.64-2.62-5.05-2.72-2.56-.11-5.22.07-7.79-.01.22-.21.7-.44.95-.69.86-.82 1.43-2.16 1.25-3.46-.22-1.65-1.67-3-3.47-2.95-2.64.09-4.3 2.92-2.71 5.57.63 1.04 1.42 1.33 1.62 1.53l-2.89-.01c.19-.16.46-.29.67-.44z"/></svg>