<svg xmlns="http://www.w3.org/2000/svg" width="31.664" height="36.227" viewBox="0 0 22.65 25.92" shape-rendering="geometricPrecision" text-rendering="geometricPrecision" image-rendering="optimizeQuality" fill-rule="evenodd" clip-rule="evenodd"><defs><style>.fil0{fill:#000}</style></defs><g id="Layer_x0020_1"><g id="_2407484037024"><path class="fil0" d="M16.09 23.56H6.56c-.66 0-1.27-.33-1.56-.92-.08-.17-.18-.41-.18-.66v-4.35c0-.48.29-.91.62-1.2.26-.23.7-.38 1.05-.38h9.69c.48 0 .89.21 1.21.53.04.04.06.07.1.12.16.18.29.51.34.76.06.28.03 3.73.03 4.28 0 .51-.14.96-.49 1.31-.3.3-.68.52-1.28.52zM5.5 12.75v.05c-.17 0-.38-.01-.54-.03-.05-.01-.09 0-.14 0l-.4-.03c0-.15.02-.27.03-.4l.04-.39c.14-.94.3-1.9.64-2.8l.18-.46c.12-.3.35-.72.53-.97l.09-.12c.26-.35.65-.67 1-.93.26-.2.75-.5 1.08-.64.53-.22.63-.28 1.27-.45.89-.23 1.65-.2 2.56-.2.74 0 1.48.16 2.18.4.75.25 1.31.6 1.93 1.07.13.1.44.38.56.52.35.42.36.42.65.96l.1.22c.1.19.29.7.36.93l.27 1.01c.1.4.2 1.04.25 1.46l.08.79c-.07 0-.05.01-.12.02h-.14l-.27.02c-.17.01-.36.03-.55.03 0-.2-.02-.24-.03-.42-.05-.59-.24-1.65-.41-2.24-.16-.54-.46-1.42-.81-1.84-.06-.08-.11-.14-.18-.21l-.28-.27c-.31-.29-.66-.48-1.02-.68-.45-.25-1.2-.49-1.71-.58-1.85-.33-3.74-.08-5.23 1.04l-.41.34c-.07.07-.13.12-.19.19-.09.1-.24.32-.31.43-.22.37-.32.64-.46 1.04l-.18.57c-.12.48-.18.73-.27 1.23l-.13.99c-.01.12-.03.21-.03.35zm-3.65 6.93c0 1.27.1 2.45.3 3.53.05.28.1.52.17.78.11.48.52.76.97.95.23.1.46.18.71.25.96.27 1.5.32 2.41.45l1.09.11c.34.02.79.08 1.12.08.15 0 .31.03.46.03h.23c.1 0 .13.02.23.02.18 0 .29.02.46.01.33 0 .61.02.95.02h1.59c.59 0 1.14-.03 1.72-.05l.82-.06c.28-.04.72-.05 1.02-.09l.59-.07c.27-.04.52-.07.77-.11.25-.04.49-.09.73-.14.4-.09.8-.2 1.18-.36.44-.18.94-.42 1.07-.92.1-.36.17-1.12.23-1.53.02-.13.03-.27.04-.4.02-.4.08-.84.08-1.24l-.01-2.19c-.02-.12 0-.26-.02-.38-.01-.06 0-.11-.01-.18l-.09-1.29c-.01-.29-.12-1.13-.15-1.41-.06-.48-.11-.93-.19-1.39-.02-.1-.03-.22-.05-.33l-.17-1.01c-.11-.67-.24-1.3-.39-1.95l-.3-1.26c-.05-.21-.11-.43-.17-.63-.06-.2-.12-.4-.17-.61-.13-.45-.4-1.31-.61-1.74-.15-.3-.35-.55-.58-.79-.04-.04-.06-.05-.11-.09-.14-.12-.28-.24-.44-.34-.08-.06-.16-.11-.24-.15-.03-.02-.04-.02-.06-.03-.03-.02-.03-.02-.07-.04l-.67-.32c-.76-.31-1.34-.42-2.16-.59-.05-.01-.12-.02-.17-.03-.05-.01-.12-.02-.17-.03l-1.04-.12c-.22-.03-.56-.01-.76-.04-.21-.03-.61-.01-.83-.01-.5 0-1.02.03-1.46.09l-.35.04c-.54.05-1.14.17-1.65.31-.21.06-.41.1-.61.17l-.29.1c-.1.04-.2.07-.29.11-.49.19-.95.44-1.36.77-.51.4-.83.9-1.03 1.51-.03.09-.07.19-.1.28l-.48 1.49c-.12.4-.22.81-.34 1.21-.06.21-.1.42-.16.63-.06.2-.1.43-.15.63-.1.42-.4 1.79-.46 2.27l-.06.34c-.19.98-.45 3.25-.48 4.21 0 .08-.02.08-.02.17v.2l-.02.38c0 .26-.02.49-.02.77z"/><path class="fil0" d="M17.01 4.22c.33.18.48.25.8.48.12.08.24.18.35.28l.08.07c.42.39.79.88.99 1.42l.17.47c.03-.03.09-.14.12-.19.14-.28.44-.72.68-.9.57-.43 1.01-.14 1.17.56l.06.4c.1.78-.04 2.82-.19 3.47-.13.53-.25.97-.4 1.49l-.11.35c-.01.05.18 1.05.21 1.2l.13.82.03-.03c.02-.03 0 0 .02-.04a.3.3 0 00.04-.08l.08-.16.2-.41c.02-.04.02-.05.04-.09.03-.05.05-.11.08-.17.27-.54.5-1.23.64-1.81l.17-.81c.06-.34.12-.72.16-1.07.01-.06.02-.15.03-.22l.06-.67v-.12c0-.06.01-.04.01-.11.01-.14.01-.29.02-.45V6.67l-.04-.49c-.02-.11-.02-.21-.03-.32-.04-.31-.07-.61-.14-.91-.02-.1-.05-.18-.07-.28-.06-.24-.12-.43-.21-.66-.02-.05-.04-.08-.06-.12-.56-1.24-1.63-1.39-2.83-.96-.09.03-.17.06-.25.1-.64.29-1.24.62-1.79 1.04-.07.05-.16.1-.2.16zM0 8.03c.01.3.09 1.17.12 1.4.03.27.06.51.11.77.05.27.09.49.14.75l.17.7c.23.78.4 1.14.71 1.82 0 .01.02.04.02.04.01.02.01 0 .01.05h.03c0-.23.43-2.08.41-2.17-.01-.06-.04-.11-.05-.17-.02-.06-.03-.11-.05-.17-.03-.11-.07-.24-.09-.35l-.16-.7c-.05-.29-.14-1.4-.15-1.6 0-.08-.02-.12-.02-.2 0-.07.01-.15 0-.21-.05-.55-.01-1.17.11-1.7.06-.27.26-.66.59-.66.38 0 .5.14.76.39.1.1.4.52.43.62.04-.03.15-.34.19-.42l.22-.4c.28-.42.65-.81 1.06-1.1l.38-.25c.26-.16.36-.2.62-.33-.07-.1-.88-.61-1.04-.69l-.46-.25c-.21-.1-.52-.24-.73-.31-.57-.19-1.2-.3-1.77-.07-.32.13-.57.35-.76.63-.1.14-.18.29-.25.45-.13.3-.27.73-.33 1.06l-.14.92c-.01.1-.02.23-.03.32l-.03.67v1.15zm7.23-4.49l.61-.14c.22-.04.42-.08.65-.12.33-.06.08.05.39-.55.12-.23.22-.37.4-.55.32-.34.72-.61 1.18-.72.35-.09.32-.07.67-.1.26-.02.7.09.95.18.33.12.65.36.91.61.25.25.45.61.57.94.07.18 0 .14.22.16.3.04.65.11.96.18.1.02.22.06.32.07 0-.1-.03-.29-.06-.39-.13-.59-.35-1.06-.7-1.54-.13-.18-.27-.33-.43-.48-.28-.28-.67-.56-1.06-.73L12.5.23C12.22.12 11.67 0 11.37 0h-.42c-.11 0-.22.01-.41.04-.14.02-.26.05-.38.08-.5.14-.82.29-1.24.57l-.77.7s0 .01-.01.01l-.04.05c-.18.23-.31.41-.45.69-.17.34-.28.62-.35 1.01-.02.1-.06.3-.06.4zm-.79 14.84h9.78v-1.11H6.44z"/></g></g></svg>