<svg xmlns="http://www.w3.org/2000/svg" width="31.656" height="31.387" viewBox="0 0 191.48 189.85" shape-rendering="geometricPrecision" text-rendering="geometricPrecision" image-rendering="optimizeQuality" fill-rule="evenodd" clip-rule="evenodd"><path d="M23.41 87.33c-.96 1.81-18.07 58.65-19.62 63.64-2.28 7.37-5.35 14.38-2.87 22.7 2 6.71 7.15 12.01 13.28 14.46 6.13 2.45 18.53 1.57 26.04 1.57h110.99c7.51 0 19.91.88 26.04-1.57 6.13-2.45 11.27-7.75 13.28-14.46 2.46-8.26-.56-15.38-2.86-22.69L171.4 97.86c-.62-2.01-2.45-8.92-3.28-10.29-.32.65-1.84 9.62-2.35 11.53-.98 3.63-2.21 6.85-3.67 10.22-5.3 12.27-14.35 22.98-25.08 30.41-10.14 7.02-11.7 5.8-18.37 9.38-.37 3.37.37 5.87-.82 9.13-3.41 9.3-13.95 7.47-22.1 7.47-6.01 0-13.39.94-17.87-2.03-6.21-4.12-4.58-10.72-5.06-14.56-1.31-.75-3.72-1.49-5.16-2.07-4.76-1.92-9.39-4.64-13.4-7.4-10.64-7.32-19.73-18.38-24.99-30.51-1.43-3.3-2.65-6.65-3.61-10.26-.88-3.28-2.12-11.22-2.22-11.53zm59.7 37.27c-2.39.97-2.58 2.57-2.56 5.51.04 6.49-.37 19.16.02 24.15.39 5.08 5.98 3.79 12.15 3.79 2.49 0 14.26.27 15.65-.21 2.29-.79 2.56-2.7 2.55-5.41-.12-30.61 3.12-28.11-12.17-28.11-2.67 0-14.06-.35-15.64.29zm-19.5-64.92c-.29-1.72-.18-18.24-.09-20.97.2-6.13 2.22-11.8 4.95-16.09 12.71-19.98 41.82-19.98 54.53 0 2.74 4.3 4.75 9.95 4.95 16.09.1 3.13.26 18.86-.24 21l-64.09-.02zm-7.88-.03c-5.27.47-12.7.07-18.21.05-8.04-.01-6.79 1.77-6.79 11.89 0 13.36.16 21.04 4.64 32.61 1.65 4.25 4.12 8.68 6.38 12.03 2.46 3.64 5.52 7.44 8.29 10.1 5.11 4.91 15.68 12.77 22.86 14.44-.05-7.61-1.2-15.78 3.04-20.5 4.33-4.81 12.04-3.61 19.79-3.61 7.74 0 15.48-1.19 19.79 3.61 4.22 4.7 3.12 12.85 3.04 20.47 3.08-.59 10.09-4.6 12.45-6.12 3.95-2.54 7.26-5.42 10.19-8.2 5.25-5 11.36-13.28 14.85-22.25 4.46-11.48 4.67-18.94 4.67-32.28 0-2.24.26-7.1-.08-9.04-.54-3.06-3.15-3.16-6.4-3.15-5.58.02-13.16.42-18.51-.05-.66-4.58.44-17.51-.35-24.35-.86-7.42-3.45-13.15-6.87-18.21-15.49-22.9-50.22-22.61-65.45-.18-7.42 10.93-7.25 17.99-7.25 30.25 0 3.38.35 9.43-.09 12.48z"/></svg>