<svg xmlns="http://www.w3.org/2000/svg" width="35.078" height="31.147" viewBox="0 0 52.01 46.18" shape-rendering="geometricPrecision" text-rendering="geometricPrecision" image-rendering="optimizeQuality" fill-rule="evenodd" clip-rule="evenodd"><path d="M19.78 29.13c-.29-1.21-.04-9.05-.04-10.93 0-1.6-.34-3.75.56-4.82 1.11-1.31 2.92-.7 3.31.91.38 1.57.11 8.68.11 10.84 0 1.36.29 4.07-.61 4.92-1.13 1.06-3.02.36-3.33-.93zm18.93-.21c-.35-2.13-.03-8.37-.02-10.93 0-1.64-.26-3.84.59-4.77 1.07-1.17 3.22-.42 3.4 1.21.32 2.84.02 7.84.02 10.91 0 1.52.28 3.89-.63 4.75-1.18 1.12-3.12.31-3.36-1.18zm-9.5 0c-.33-1.57-.03-8.78-.03-10.93 0-1.8-.3-3.71.66-4.74 1.17-1.26 3.14-.44 3.37 1.2.36 2.57.04 8.02.04 10.89 0 1.54.35 3.95-.64 4.71-1.31 1-3.08.32-3.39-1.14zM3.68 5.19c5.16-.01 4.13-.22 5.94 5.65l5.75 17.74c1.48 3.59.72 6.15 5.96 6.14h19.55c7.02 0 5.14-2.46 8.06-11.85l3.04-11.63c.17-1.93-1.25-2.11-2.91-2.11-2.41 0-32.32.24-32.98-.19-.52-.37-2.04-4.54-2.41-5.39C11.93-.46 11.46.03 5.77.03 3.17.03.94-.46.17 1.72-.24 2.89.02 3.81.8 4.48c.91.78 1.36.7 2.87.7zM23.5 38.17c-5.23 1.85-3.1 8.92 2.17 7.87 5.11-1.02 3.06-9.72-2.17-7.87zm14.08 0c-5.56 1.98-2.54 9.48 2.44 7.76 5.16-1.78 2.29-9.44-2.44-7.76z" fill="#fefefe"/></svg>