<svg xmlns="http://www.w3.org/2000/svg" width="33.648" height="33.679" viewBox="0 0 465.81 466.24" shape-rendering="geometricPrecision" text-rendering="geometricPrecision" image-rendering="optimizeQuality" fill-rule="evenodd" clip-rule="evenodd"><path d="M312.99 342.48h65.25c.62 8.89 1.14 59.22-.36 65.56h-65.79l.9-65.56zm-116.46 0h65.26c.62 8.89 1.14 59.22-.36 65.56h-64.87l-.04-65.56zm-109.1 0h65.36l.04 65.56h-64.9l-.5-65.56zM313 240.67h65.48l-.09 65.4h-65.36l-.03-65.4zm-116.45 0h64.78l.62 65.4h-65.37l-.03-65.4zm-109.11 0h65.36l.07 65.4H87.12l.33-65.4zm232.91-58.49c-20.93 1.55-47.29.18-68.8.18l-154.61.01c-4.22.55-23.75 21.84-27.38 25.49l-42.9 42.82c-4.8 4.71-4.91 3.31-4.83 12.45.17 16.71.75 166.5-.31 174H.02v29.11h465.81v-29.11h-21.31c-1.73-11.44-.48-359.69-.48-370.55 0-72.63 7.7-66.18-72.3-66.18-12.7 0-33.97-2.28-42.45 4.16-11.13 8.45-8.92 21.27-8.92 37.79v139.84z" fill="#fefefe"/></svg>