<svg xmlns="http://www.w3.org/2000/svg" width="26.96" height="29.579" viewBox="0 0 38.5 42.24" shape-rendering="geometricPrecision" text-rendering="geometricPrecision" image-rendering="optimizeQuality" fill-rule="evenodd" clip-rule="evenodd"><path d="M33.09 42.24c2.5-.01 1.98.2 1.98-2.37V29.33c0-3.74.41-3.77-1.38-3.75L7.7 25.6c-4.86 0-4.46-.38-4.47 1.58l.02 15.05 29.84.02zm3.93-30.29c-.2-.02-.58-.01-.8-.01l-4.45-.1c-.47-.03-.89-.05-1.42-.07-.23-.01-.55-.02-.77-.05l-1.54.02c-.36.04-.9.1-1.38.11-3.77.09-18.61-.36-20.95.2-1.33.32-5-.79-5.54.47L.1 22.11l38.08.01v-7.61c.01-.68.11-1.18-.08-1.77-.18-.56 0-.19-.31-.57l-.75-.19zm.75.19c.31.38.14.01.31.57.18.59.09 1.09.08 1.77v7.61L.08 22.08l.07-9.59c.54-1.25 4.21-.15 5.54-.47 2.34-.56 17.19-.12 20.95-.2.49-.01 1.02-.07 1.38-.11l1.54-.02c.22.03.54.04.77.05.54.02.95.04 1.42.07l4.45.1c.22 0 .6-.01.8.01l.75.19zm-25.59-.4c-1.81-.01-1.8-.63-2.67-1.61-.67-.76-1.17-1.43-1.55-2.53-.91-2.62 1.02-4.19 3.27-4.44 3.48-.39 5.02 4.19 5.55 6.94.43 2.24-.21 1.66-4.6 1.64zm9.23-.05c-.15-2.11 1.15-5.41 2.15-6.72 1.83-2.4 4.31-2.42 6.14-.76 2.31 2.09-.33 5.71-1.9 7.14-.61.55-.93.41-1.94.4-1.43-.01-3.04.07-4.45-.06zm-14.94 0l-6.38.09-.11 10.35 37 .04c1.99 0 1.42-.03 1.43-5.35l-.02-4.29c-.22-1.34.25.82-.09-.33-.31-1.03-4.44-.31-6.51-.55.04-.71 3.97-5.24.46-9.23-.66-.76-1.62-1.29-2.63-1.7-1.38-.56-4.03-1-5.54-.12-1.73 1.01-2.11.9-3.37 3.11l-1.5 2.71c-.46-.39-1-1.97-1.54-2.7l-2.03-2.29c-.8-.55-.57-1.14-2.88-1.39-1.4-.15-2.8.04-3.84.45-3.47 1.35-5.23 4.74-3.74 8.29.3.72 1.27 2.36 1.3 2.9z" fill="#e31e24"/></svg>