<svg xmlns="http://www.w3.org/2000/svg" width="72.5mm" height="124.904" viewBox="0 0 805.76 367.29" shape-rendering="geometricPrecision" text-rendering="geometricPrecision" image-rendering="optimizeQuality" fill-rule="evenodd" clip-rule="evenodd"><defs><style>.fil0,.fil1{fill:#2b2a29}.fil0{fill-rule:nonzero}</style></defs><g id="Layer_x0020_1"><g id="_2407687547280"><path class="fil0" d="M695.4 187.28c6.58-24.89 4.96-63.49-46.85-63.49-44.19 0-76.38 31.75-84.58 64-8.84 34.79 7.87 62.98 60.43 62.98 15.49 0 30.67-1.78 48.1-8.38l18.22-30.73c-25 11.43-40.76 14.48-50.92 14.48-25.91 0-33.77-18.03-27.45-38.86h83.04zm-75.72-21.84c3.66-9.4 12.27-18.28 23.19-18.28 13.46 0 13.98 10.92 12.37 18.28h-35.55z"/><path class="fil0" d="M736.88 248.16c-3.5-3.71-4.91-10.13-3.08-15.81l17.76-55.34c4.99-15.57 19.82-21.74 31.68-21.74 5.19 0 8.99 1.23 11.39 2.22l10.54-32.86H799c-9.14 0-23.54.99-39.61 20.26l6.27-19.52c-4.66 2.96-9.25 4.2-20.87 4.2h-32.61c5.43 6.18 5.37 14.82 1.64 26.44l-22.67 70.66c-2.93 9.14-7.21 16.31-15.54 21.49h61.27z"/><path class="fil1" d="M524.44 70.56c2.89 4.74 6.03 12.24 3.18 27.96l-6.1 33.71c-1.47-1.5-9.31-9.24-26.79-9.24-22.1 0-42.8 12.13-56.08 31.41-.18.79-.37 1.59-.58 2.41l-10.7 42.02c-1.91 7.49.32 15.74 9.35 15.74h16.89l-16.05 21.33c8.42 7.77 20.23 11.93 34.09 11.93 3 0 6.29-.25 9.37-.75l17.23-23.47c-13.37.75-31.53-3.75-25.48-37.2 2.62-14.48 9.73-37.2 29.2-37.2 10.24 0 15.35 6.24 13.27 17.73l-14.18 78.4h53.68c-5.8-5.24-6.48-12.48-4.81-21.72l28.58-158.04c-3.11 2-8.64 4.99-17.63 4.99h-36.45z"/><path d="M315.38 160.09c7.83-29.61 5.9-75.52-55.73-75.52-52.56 0-90.86 37.76-100.61 76.13-10.52 41.39 9.36 74.92 71.89 74.92 18.43 0 36.49-2.11 57.21-9.97l21.68-36.55c-29.74 13.59-48.48 17.22-60.57 17.22-30.82 0-40.16-21.45-32.66-46.22h98.79zm-90.07-25.98c4.35-11.18 14.59-21.75 27.58-21.75 16.01 0 16.64 12.99 14.71 21.75h-42.29z" fill="#e31e24" fill-rule="nonzero"/><path class="fil1" d="M74.98 14.05c.62-4.58.39-9.32 1.01-14.05h146.44c.05 2.91-.12 5.65-.22 9.34-.48 3.79-1.2 5.74-7.92 6.09h-24.74c-6.66-.46-10.37 3.48-11.42 11.42-19.41 72.43-41.97 144.86-61.38 217.3 2.68 8.49 33.45 12.77 58.93 5.75 20.04-5.52 36.37-19.46 36.21-34.21h52.23c-7.17 21.55-12.64 45.29-12.33 53.15H.01v-12.25c1.69-1.96 5.98-2.18 12.55-2.28 6.21 0 15.39.34 19.73-.82 5.81-5.49 11.5-11.24 14.48-23.8 18.62-66.9 38.3-133.28 56.92-200.19 2.66-9.6 1.1-14.98-5.87-14.88-9.31-.35-13.52-.22-22.83-.56z"/><path d="M321.86 139.17c18.81-9.11 33.08-9.99 40.41-9.99 18.32 0 20.57 6.76 19 12.93-2.99 11.75-16.34 13.81-29.15 16.16l-18.61 3.53c-40.12 7.64-52.53 28.8-56.34 43.78-5.46 21.45 2.67 43.49 41.15 43.49 4.89 0 11.37-.29 17.33-.88l21.39-26.44c-1.91.29-3.74.29-5.57.29-12.21 0-18.51-7.64-15.52-19.39 3.67-14.4 16.93-17.34 27.99-21.16 3.35-1.18 5.1-2.06 7.61-3.53l-7.11 27.91c-3.14 12.34-6.42 43.19 47.03 43.19 3.05 0 5.8 0 8.93-.29l21.23-28.21h-4.89c-10.08 0-18.9-8.52-15.16-23.21l10.7-42.02c5.38-21.16 8.04-53.18-49.98-53.18-12.21 0-23.13.88-36.85 4.41l-23.57 32.61z" fill="#332b68" fill-rule="nonzero"/><path fill="#e31e24" fill-rule="nonzero" d="M802.77 268.84h-531.2l2.99-9.18h531.2z"/><path d="M510.58 287.89l-1.72 9.09h-6.67l-1.72 9.09h6.67l-4.24 21.85c-.81 3.64-1.11 6.35-1.11 9.08 0 5.74 3.64 10.29 11.72 10.29 2.83 0 5.96-.4 7.68-1.01l1.11-9.29c-1.21.2-2.63.3-4.04.3-3.13 0-4.34-1.72-4.34-4.45 0-2.02.4-4.65.81-6.87l3.94-19.9h11.01l1.82-9.09h-11.11l2.42-12.63-12.22 3.54zm32.53 58.29l3.74-19.8c1.92-10.51 7.27-18.99 15.66-18.99.81 0 1.62.1 2.22.2l2.32-11.52c-.81-.1-1.72-.2-2.53-.2-6.77 0-12.12 4.85-15.46 11.52h-.3c.51-3.64.81-7.07 1.11-10.4h-10.2c-.61 4.45-1.21 11.92-2.53 18.89l-5.76 30.31h11.72zm65.36 0c-.2-5.86.61-15.05 2.02-22.43l5.05-25.66c-3.74-1.21-9.5-2.22-14.85-2.22-22.93 0-34.65 17.88-34.65 34.65 0 9.9 5.76 16.77 14.55 16.77 6.26 0 12.73-3.13 17.58-12.22h.3c-.4 4.24-.81 8.18-.91 11.11h10.91zm-8.69-27.78c-2.32 12.53-8.99 19.4-14.45 19.4-5.15 0-7.07-4.24-7.07-9.4 0-11.21 8.38-23.44 19.29-23.44 2.12 0 3.64.2 4.85.51l-2.63 12.93zm63.54-43.94l-4.34 22.83c-2.12-.91-5.05-1.41-7.58-1.41-18.08 0-30.71 15.86-30.71 33.13 0 11.11 6.16 18.28 14.95 18.28 6.36 0 12.43-3.13 16.87-9.9h.2l-1.01 8.79h10.81c.3-5.35 1.11-11.82 2.22-17.48l10.3-54.25h-11.72zm-8.99 47.38c-2.02 10.2-8.28 15.96-13.54 15.96-5.55 0-7.88-4.65-7.88-10.61 0-11.01 7.47-22.23 17.58-22.23 2.93 0 5.35.91 6.77 1.92l-2.93 14.95zm32.12 24.35l9.39-49.2h-11.72l-9.39 49.2h11.72zm5.56-56.27c3.94 0 7.17-2.73 7.27-7.07 0-3.74-2.63-6.36-6.26-6.36-3.84 0-7.07 2.93-7.07 7.17 0 3.64 2.43 6.26 5.96 6.26h.1zm19.6 56.27l4.24-22.73c2.12-11.52 8.99-17.98 14.34-17.98 4.65 0 6.16 3.03 6.16 7.07 0 1.92-.3 4.04-.61 5.86l-5.25 27.78h11.72l5.46-28.59c.51-2.53.91-5.96.91-8.18 0-9.29-5.56-13.54-12.53-13.54-6.87 0-13.13 3.33-17.68 10h-.2l1.01-8.89h-10.4c-.61 4.24-1.31 9.39-2.53 15.25l-6.36 33.94h11.72zm42.93 17.78c3.23 2.02 9.09 3.33 15.36 3.33 6.16 0 13.13-1.21 18.28-5.45 5.46-4.65 8.29-12.32 10.1-21.92l7.48-40.58c-4.55-2.04-10.71-3.47-17.07-3.47-20.4 0-32.22 16.43-32.22 32.76.1 9.26 5.66 17.34 15.46 17.34 6.26 0 11.41-2.83 15.45-8.69h.2l-1.21 5.55c-2.42 11.42-8.28 15.05-15.96 15.05-4.65 0-10.1-1.21-13.03-2.93l-2.83 8.99zm35.66-42.99c-1.72 8.87-7.57 15.81-13.43 15.81-5.86 0-7.98-4.83-7.88-9.97 0-10.57 7.27-21.65 17.58-21.65 2.73 0 5.25.61 6.47 1.2l-2.73 14.61z" fill="#2b2a29" fill-rule="nonzero"/></g></g></svg>