<svg xmlns="http://www.w3.org/2000/svg" width="24.777" height="26.861" viewBox="0 0 13.3 14.42" shape-rendering="geometricPrecision" text-rendering="geometricPrecision" image-rendering="optimizeQuality" fill-rule="evenodd" clip-rule="evenodd"><defs><style>.fil0{fill:#000}</style></defs><g id="Layer_x0020_1"><g id="_2407620874256"><path class="fil0" d="M0 3.53c0 1.33.37 2.74.87 3.94.12.29.24.55.38.82.2.4.42.77.64 1.15.04.07.07.11.11.18.3.49.81 1.19 1.21 1.64.03.03.04.04.07.08.03.04.04.04.07.08l.43.48c.12.13.49.45.62.57l.92.73c.12.09.24.16.36.24.76.51 1.7.99 2.63.99.53 0 .81-.02 1.3-.19.4-.13.78-.35 1.11-.63.21-.18.41-.4.53-.64.19-.38.16-.69-.03-1.06-.07-.14-.18-.28-.29-.4-.15-.17-.34-.36-.51-.51-.43-.38-.89-.74-1.39-1.04-.37-.22-.77-.2-1.14.02l-.24.16c-.04.03-.07.06-.12.09-.24.19-.48.48-.67.72-.17.22-.36.18-.53 0-.04-.04-.06-.07-.1-.1-.11-.11-.23-.2-.33-.32l-.61-.67c-.14-.15-.27-.32-.39-.48-.06-.09-.12-.15-.18-.24-.24-.35-.47-.66-.7-1.02l-.16-.27c-.06-.09-.1-.18-.16-.27-.27-.47-.49-.95-.72-1.45-.14-.31-.25-.61-.35-.93-.11-.36.38-.45.67-.58.46-.2 1.07-.36 1.3-.85.15-.32.07-.72-.01-1.05-.15-.63-.31-1.28-.57-1.87-.13-.3-.26-.51-.53-.69-.14-.09-.31-.14-.48-.15h-.15c-.24.01-.48.08-.67.16-.27.12-.52.26-.76.44l-.62.58c-.26.28-.46.64-.6.99-.15.38-.25.83-.25 1.36zM7.28.85c0 .23.03.37.21.54.12.11.25.14.45.19.18.04.33.09.49.14.42.14.69.28 1.08.51.18.1.4.27.56.4l.34.31c.17.17.29.31.44.5.05.07.09.12.14.19.19.26.33.51.48.8.14.27.27.62.35.93.16.64.16.83.16 1.48 0 .25-.04.54-.08.77-.04.24-.08.48.13.7.19.2.34.2.58.2.15 0 .31-.11.41-.22.24-.26.28-1.24.28-1.61 0-1.09-.27-2.14-.77-3.08-.13-.23-.19-.35-.35-.58-.12-.18-.34-.47-.48-.62-.04-.04-.04-.06-.08-.1l-.27-.29c-.03-.03-.05-.06-.09-.09A6.622 6.622 0 009.11.57C8.8.45 8.23.25 7.88.25c-.3 0-.6.3-.6.6z"/><path class="fil0" d="M6.61 2.88c0 .28.09.47.34.62.09.06.21.07.33.1.12.03.22.07.34.1l.15.06.3.14c.81.45 1.38 1.16 1.64 2.05.12.42.16.92.1 1.37-.03.2-.05.18-.05.41 0 .3.3.6.6.6.2 0 .33-.02.48-.15.3-.25.31-.94.31-1.35 0-1.29-.56-2.37-1.17-3.06-.16-.18-.33-.37-.53-.52-.56-.43-1.02-.71-1.74-.91-.34-.09-.65-.18-.93.12l-.1.15c-.03.07-.07.16-.07.26z"/><path class="fil0" d="M5.93 4.94c0 .3.14.51.37.62.2.1.53.08.91.46.22.22.43.61.43.95v.19c0 .18-.12.41.07.7.28.43.91.37 1.12-.03.25-.46.12-1.36-.08-1.83-.17-.41-.3-.56-.56-.87l-.17-.16c-.28-.23-.53-.42-.9-.55-.18-.06-.36-.13-.56-.13a.64.64 0 00-.63.63z"/></g></g></svg>