<svg xmlns="http://www.w3.org/2000/svg" width="265.979" height="47.248" viewBox="0 0 988.29 175.56" shape-rendering="geometricPrecision" text-rendering="geometricPrecision" image-rendering="optimizeQuality" fill-rule="evenodd" clip-rule="evenodd"><defs><style>.fil0,.fil1{fill:#2b2a29;fill-rule:nonzero}.fil1{fill:#e31e24}</style></defs><g id="Layer_x0020_1"><path class="fil0" d="M5.28 57.38c-1.31 0-1.97-.73-1.97-2.17V2.9c0-1.44.66-2.17 1.97-2.17H39c1.44 0 2.17.59 2.17 1.78v2.91c0 1.19-.73 1.78-2.17 1.78H10.91v17.32h11.74c8.85 0 14.92 1.48 18.22 4.44 3.3 2.97 4.94 6.96 4.94 11.99s-1.64 9.02-4.94 11.99c-3.3 2.95-9.39 4.44-18.24 4.44H5.27zm5.63-6.48h10.48c5.64 0 9.79-.77 12.42-2.31 2.63-1.55 3.93-4.09 3.93-7.65 0-3.56-1.31-6.1-3.93-7.65-2.63-1.54-6.77-2.31-12.42-2.31H10.91v19.91z"/><path id="1" class="fil0" d="M53.18 36.62c0-6.19 1.63-11.3 4.9-15.35 3.27-4.03 8.07-6.06 14.37-6.06 6.3 0 11.1 2.02 14.37 6.06 3.27 4.05 4.9 9.16 4.9 15.35 0 6.19-1.63 11.3-4.9 15.35-3.27 4.03-8.07 6.06-14.37 6.06-6.3 0-11.1-2.02-14.37-6.06-3.27-4.05-4.9-9.16-4.9-15.35zm7.35 0c0 5.54 1.09 9.65 3.26 12.32 2.18 2.66 5.06 3.99 8.66 3.99 3.6 0 6.48-1.34 8.66-3.99 2.17-2.67 3.26-6.77 3.26-12.32 0-5.54-1.09-9.64-3.26-12.31-2.18-2.66-5.06-3.99-8.66-3.99-3.6 0-6.48 1.33-8.66 3.99-2.17 2.67-3.26 6.77-3.26 12.31z"/><path id="2" class="fil0" d="M94 57.71c-.58-.22-.81-.61-.67-1.16l.71-3.26c.09-.5.45-.69 1.02-.57.61.15 1.13.21 1.58.21 2.37 0 4.26-1.81 5.66-5.44 1.41-3.63 2.11-10.37 2.11-20.23v-9.62c0-1.19.84-1.78 2.49-1.78h22.32c1.19 0 1.78.59 1.78 1.78V55.6c0 1.19-.59 1.78-1.78 1.78h-3.39c-1.19 0-1.78-.59-1.78-1.78V21.04h-13.57v8.19c0 9.75-1.05 17-3.17 21.72-2.11 4.72-5.37 7.08-9.8 7.08-1.78 0-2.95-.11-3.5-.32z"/><path id="3" class="fil0" d="M139.94 36.62c0-6.53 1.63-11.73 4.89-15.61 3.26-3.87 7.93-5.8 14.01-5.8 5.05 0 9.24 1.77 12.56 5.31 3.33 3.53 4.98 9.19 4.98 16.94 0 1.19-.54 1.78-1.63 1.78h-27.62c.45 5.11 1.83 8.67 4.12 10.67 2.3 2.01 4.92 3.01 7.83 3.01 3.07 0 5.43-.51 7.07-1.54 1.63-1.04 2.84-2.05 3.61-3.05.83-1.11 1.66-1.32 2.45-.63l2.32 2.02c.61.53.61 1.24 0 2.17-.5.76-1.93 1.96-4.27 3.63-2.36 1.66-6.06 2.5-11.11 2.5-6.57 0-11.42-1.93-14.53-5.8-3.11-3.87-4.67-9.08-4.67-15.61zm7.19-2.55h22.3c-.11-3.66-1.05-6.87-2.84-9.62-1.79-2.77-4.42-4.14-7.89-4.14-3.06 0-5.64 1.01-7.78 3.03-2.13 2.02-3.39 5.6-3.78 10.72z"/><path id="4" class="fil0" d="M183.27 36.62c0-6.53 1.63-11.73 4.89-15.61 3.26-3.87 7.93-5.8 14.01-5.8 5.05 0 9.24 1.77 12.57 5.31 3.33 3.53 4.98 9.19 4.98 16.94 0 1.19-.54 1.78-1.63 1.78h-27.62c.44 5.11 1.83 8.67 4.12 10.67 2.3 2.01 4.92 3.01 7.83 3.01 3.07 0 5.43-.51 7.07-1.54 1.63-1.04 2.84-2.05 3.61-3.05.83-1.11 1.66-1.32 2.45-.63l2.32 2.02c.61.53.61 1.24 0 2.17-.5.76-1.93 1.96-4.27 3.63-2.36 1.66-6.06 2.5-11.11 2.5-6.57 0-11.42-1.93-14.53-5.8-3.11-3.87-4.67-9.08-4.67-15.61zm7.19-2.55h22.3c-.11-3.66-1.05-6.87-2.84-9.62-1.79-2.77-4.42-4.14-7.89-4.14-3.06 0-5.64 1.01-7.79 3.03-2.13 2.02-3.39 5.6-3.78 10.72z"/><path id="5" class="fil1" d="M254.39 51.58c-1.05-1.21-1.27-2.21-.63-2.97l2.05-2.5c.9-1.08 1.97-.85 3.21.71 1.36 1.71 3.06 3.11 5.06 4.21 2.01 1.09 4.12 1.65 6.33 1.65 4.34 0 7.41-1.08 9.23-3.25 1.82-2.16 2.72-5.06 2.72-8.67 0-3.83-1.21-6.61-3.62-8.32-2.42-1.71-5.13-2.58-8.13-2.58h-3.46c-1.19 0-1.78-.43-1.78-1.29v-2.91c0-.92.59-1.37 1.78-1.37h2.8c2.91 0 5.39-.95 7.46-2.85 2.06-1.9 3.1-4.49 3.1-7.77 0-2.27-.82-4.13-2.48-5.58-1.66-1.44-3.99-2.17-6.98-2.17-2.82 0-5.12.65-6.91 1.94-1.78 1.29-3.04 2.42-3.78 3.36-.97 1.27-1.91 1.47-2.84.59l-2.32-2.25c-.69-.66-.39-1.75.9-3.29 1.37-1.59 3.34-3.03 5.9-4.33 2.56-1.28 5.62-1.93 9.17-1.93 5.44 0 9.6 1.32 12.47 3.95 2.87 2.63 4.3 6.04 4.3 10.24 0 3.32-1.02 6.1-3.07 8.32-2.06 2.23-4.3 3.6-6.73 4.13v.16c2.83.39 5.52 1.92 8.11 4.59 2.59 2.66 3.88 5.84 3.88 9.52 0 5.49-1.59 9.81-4.75 12.96-3.18 3.14-8.2 4.72-15.1 4.72-4 0-7.3-.78-9.91-2.35-2.6-1.56-4.58-3.12-5.95-4.67z"/><path id="6" class="fil1" d="M297.54 29.3c0-9.23 1.27-16.42 3.8-21.57C303.87 2.58 308.69 0 315.8 0c7.11 0 11.93 2.58 14.46 7.73 2.53 5.15 3.8 12.34 3.8 21.57s-1.27 16.42-3.8 21.57c-2.53 5.15-7.35 7.73-14.46 7.73-7.11 0-11.93-2.58-14.46-7.73-2.53-5.15-3.8-12.34-3.8-21.57zm7.35 0c0 7.39.63 13.18 1.9 17.36s4.27 6.27 9.01 6.27 7.74-2.09 9.01-6.27c1.27-4.18 1.9-9.97 1.9-17.36 0-7.39-.63-13.18-1.9-17.36s-4.27-6.27-9.01-6.27-7.74 2.09-9.01 6.27c-1.27 4.18-1.9 9.97-1.9 17.36z"/><path id="7" class="fil1" d="M368.25 29.3c0-9.23 1.27-16.42 3.8-21.57C374.58 2.58 379.4 0 386.51 0c7.11 0 11.93 2.58 14.46 7.73 2.53 5.15 3.8 12.34 3.8 21.57s-1.27 16.42-3.8 21.57c-2.53 5.15-7.35 7.73-14.46 7.73-7.11 0-11.93-2.58-14.46-7.73-2.53-5.15-3.8-12.34-3.8-21.57zm7.35 0c0 7.39.63 13.18 1.9 17.36s4.27 6.27 9.01 6.27 7.74-2.09 9.01-6.27c1.27-4.18 1.9-9.97 1.9-17.36 0-7.39-.63-13.18-1.9-17.36s-4.27-6.27-9.01-6.27-7.74 2.09-9.01 6.27c-1.27 4.18-1.9 9.97-1.9 17.36z"/><path id="8" class="fil1" d="M412.04 29.3c0-9.23 1.27-16.42 3.8-21.57C418.37 2.58 423.19 0 430.3 0c7.11 0 11.93 2.58 14.46 7.73 2.53 5.15 3.8 12.34 3.8 21.57s-1.27 16.42-3.8 21.57c-2.53 5.15-7.35 7.73-14.46 7.73-7.11 0-11.93-2.58-14.46-7.73-2.53-5.15-3.8-12.34-3.8-21.57zm7.35 0c0 7.39.63 13.18 1.9 17.36s4.27 6.27 9.01 6.27 7.74-2.09 9.01-6.27c1.27-4.18 1.9-9.97 1.9-17.36 0-7.39-.63-13.18-1.9-17.36s-4.27-6.27-9.01-6.27-7.74 2.09-9.01 6.27c-1.27 4.18-1.9 9.97-1.9 17.36z"/><path id="9" class="fil1" d="M455.84 29.3c0-9.23 1.27-16.42 3.8-21.57C462.17 2.58 466.99 0 474.1 0c7.11 0 11.93 2.58 14.46 7.73 2.53 5.15 3.8 12.34 3.8 21.57s-1.27 16.42-3.8 21.57c-2.53 5.15-7.35 7.73-14.46 7.73-7.11 0-11.93-2.58-14.46-7.73-2.53-5.15-3.8-12.34-3.8-21.57zm7.35 0c0 7.39.63 13.18 1.9 17.36s4.27 6.27 9.01 6.27 7.74-2.09 9.01-6.27c1.27-4.18 1.9-9.97 1.9-17.36 0-7.39-.63-13.18-1.9-17.36s-4.27-6.27-9.01-6.27-7.74 2.09-9.01 6.27c-1.27 4.18-1.9 9.97-1.9 17.36z"/><path id="10" class="fil1" d="M530.26 57.38c-1.19 0-1.78-.59-1.78-1.78V17.64c0-1.19.59-1.78 1.78-1.78h3.39c1.18 0 1.78.59 1.78 1.79v15.53h1.62c1.85 0 3.46-.7 4.86-2.1 1.42-1.4 2.45-2.63 3.14-3.7l6.68-10.48c.44-.69 1.13-1.04 2.03-1.04h3.45c1.7 0 2.05.78 1.05 2.35l-7.37 11.53c-.57.77-1.56 1.85-2.99 3.25-1.43 1.4-2.76 2.25-4 2.55v.07c1.49.5 2.76 1.16 3.81 1.98 1.05.81 2.29 2.36 3.7 4.65l7.48 12.8c.9 1.55.58 2.33-.94 2.33h-3.61c-.86 0-1.58-.49-2.16-1.46l-7.38-12.67c-.86-1.5-2.01-2.7-3.42-3.57-1.42-.88-2.86-1.32-4.3-1.32h-1.66v17.24c0 1.19-.59 1.78-1.78 1.78h-3.39z"/><path id="11" class="fil1" d="M565.32 46.28c0-4.68 2.18-8.12 6.56-10.32 4.38-2.19 10.92-3.47 19.62-3.83v-2.69c0-2.48-.55-4.63-1.67-6.42-1.12-1.81-3.34-2.71-6.65-2.71-2.54 0-4.71.36-6.49 1.11-1.78.74-3.43 1.98-4.98 3.71-.71.79-1.39.84-2.02.12l-2.05-2.37c-.58-.65-.38-1.44.59-2.36 2.16-2.05 4.69-3.44 7.57-4.18 2.9-.74 5.36-1.12 7.38-1.12 5.5 0 9.41 1.42 11.76 4.25 2.34 2.83 3.52 6.72 3.52 11.64v24.5c0 1.19-.59 1.78-1.79 1.78h-3.6c-1.04 0-1.56-.59-1.56-1.78v-1.94c-2.07 1.63-4.11 2.77-6.09 3.4-1.99.65-4.2.97-6.65.97-4.31 0-7.62-1.04-9.95-3.1-2.33-2.08-3.49-4.95-3.49-8.65zm7.19-.23c0 2.58.61 4.33 1.83 5.25 1.23.93 3.17 1.39 5.81 1.39 2.03 0 3.94-.2 5.76-.59 1.8-.39 3.68-1.44 5.59-3.13V37.32c-8.96.69-14.36 1.86-16.22 3.53-1.84 1.67-2.77 3.41-2.77 5.21z"/><path id="12" class="fil1" d="M611.38 57.38c-1.19 0-1.78-.59-1.78-1.78V17.64c0-1.19.59-1.78 1.78-1.78h3.39c1.19 0 1.78.59 1.78 1.79v15.53h19.15V17.65c0-1.2.59-1.79 1.78-1.79h3.39c1.18 0 1.78.59 1.78 1.78V55.6c0 1.19-.59 1.78-1.78 1.78h-3.39c-1.19 0-1.78-.59-1.78-1.78V38.36h-19.15V55.6c0 1.19-.59 1.78-1.78 1.78h-3.39z"/><path id="13" class="fil1" d="M655.57 57.38c-1.19 0-1.78-.59-1.78-1.78V17.64c0-1.19.59-1.78 1.78-1.78h3.39c1.19 0 1.78.59 1.78 1.78V52.2h18.59V17.64c0-1.19.59-1.78 1.78-1.78h3.39c1.19 0 1.78.59 1.78 1.78V52.2h4.77c1.18 0 1.78.59 1.78 1.77v13.87c0 1.17-.53 1.77-1.58 1.77h-2.91c-1.05 0-1.58-.59-1.58-1.78V57.39h-31.19z"/><path id="14" class="fil1" d="M698.22 21.2c-1.22 0-1.84-.46-1.84-1.39v-2.56c0-.93.61-1.39 1.83-1.39h32.86c1.23 0 1.83.46 1.83 1.39v2.56c0 .93-.62 1.39-1.85 1.39h-12.94v34.4c0 1.19-.59 1.78-1.78 1.78h-3.39c-1.19 0-1.78-.59-1.78-1.78V21.2h-12.94z"/><path id="15" class="fil1" d="M735.06 36.62c0-6.19 1.63-11.3 4.9-15.35 3.27-4.03 8.07-6.06 14.37-6.06 6.3 0 11.1 2.02 14.37 6.06 3.27 4.05 4.9 9.16 4.9 15.35 0 6.19-1.63 11.3-4.9 15.35-3.27 4.03-8.07 6.06-14.37 6.06-6.3 0-11.1-2.02-14.37-6.06-3.27-4.05-4.9-9.16-4.9-15.35zm7.35 0c0 5.54 1.09 9.65 3.26 12.32 2.18 2.66 5.06 3.99 8.66 3.99 3.6 0 6.48-1.34 8.66-3.99 2.17-2.67 3.26-6.77 3.26-12.32 0-5.54-1.09-9.64-3.26-12.31-2.18-2.66-5.06-3.99-8.66-3.99-3.6 0-6.48 1.33-8.66 3.99-2.17 2.67-3.26 6.77-3.26 12.31z"/><path id="16" class="fil1" d="M784.31 57.38c-1.19 0-1.78-.59-1.78-1.78V17.64c0-1.19.59-1.78 1.78-1.78h12.74c6.05 0 10.21.98 12.47 2.95 2.26 1.97 3.39 4.57 3.39 7.82 0 2.04-.34 3.76-1.02 5.18-.69 1.42-2.22 2.67-4.62 3.78v.04c2.75.92 4.7 2 5.86 3.24 1.14 1.24 1.72 3.7 1.72 7.38 0 3.1-1.14 5.73-3.43 7.89-2.28 2.16-6.42 3.24-12.42 3.24h-14.69zm5.17-5.18h7.72c3.66 0 6.3-.41 7.91-1.2 1.6-.81 2.4-2.64 2.4-5.54 0-2.62-.92-4.41-2.76-5.35-1.83-.95-4.35-1.42-7.54-1.42h-7.72v13.52zm0-18.7h6.16c3.15 0 5.67-.46 7.53-1.36 1.87-.92 2.8-2.52 2.8-4.85 0-2.5-.81-4.17-2.41-5.01-1.61-.82-4.24-1.24-7.92-1.24h-6.16V33.5z"/><path id="17" class="fil1" d="M822.24 46.28c0-4.68 2.18-8.12 6.56-10.32 4.38-2.19 10.92-3.47 19.62-3.83v-2.69c0-2.48-.55-4.63-1.67-6.42-1.12-1.81-3.34-2.71-6.65-2.71-2.54 0-4.71.36-6.49 1.11-1.78.74-3.43 1.98-4.98 3.71-.71.79-1.39.84-2.02.12l-2.05-2.37c-.58-.65-.38-1.44.59-2.36 2.16-2.05 4.69-3.44 7.57-4.18 2.9-.74 5.36-1.12 7.38-1.12 5.5 0 9.41 1.42 11.76 4.25 2.34 2.83 3.52 6.72 3.52 11.64v24.5c0 1.19-.59 1.78-1.79 1.78h-3.6c-1.04 0-1.56-.59-1.56-1.78v-1.94c-2.07 1.63-4.11 2.77-6.09 3.4-1.99.65-4.2.97-6.65.97-4.31 0-7.62-1.04-9.95-3.1-2.33-2.08-3.49-4.95-3.49-8.65zm7.19-.23c0 2.58.61 4.33 1.83 5.25 1.23.93 3.17 1.39 5.81 1.39 2.03 0 3.94-.2 5.76-.59 1.8-.39 3.68-1.44 5.59-3.13V37.32c-8.96.69-14.36 1.86-16.22 3.53-1.84 1.67-2.77 3.41-2.77 5.21z"/><path id="18" class="fil1" d="M868.2 73.17c-1.12 0-1.67-.59-1.67-1.78V17.65c0-1.19.59-1.78 1.79-1.78h3.33c.96 0 1.43.59 1.43 1.78v3.16c1.47-1.73 3.11-3.09 4.96-4.09 1.83-1 4.28-1.5 7.35-1.5 5.32 0 9.37 2.16 12.13 6.46 2.77 4.3 4.16 9.28 4.16 14.95s-1.39 10.64-4.16 14.95c-2.76 4.3-6.81 6.46-12.13 6.46-3.07 0-5.52-.5-7.35-1.5-1.85-1-3.49-2.36-4.96-4.09H873c.05.78.08 1.59.08 2.4v16.54c0 1.19-.55 1.78-1.67 1.78h-3.21zm4.88-31.97c0 3.95.96 6.89 2.87 8.83 1.91 1.93 4.31 2.9 7.19 2.9 4.07 0 6.95-1.51 8.65-4.52 1.7-3.01 2.54-6.93 2.54-11.79 0-4.86-.85-8.78-2.54-11.79-1.7-3.01-4.58-4.52-8.65-4.52-2.88 0-5.28.97-7.19 2.9-1.91 1.94-2.87 4.88-2.87 8.83v9.15z"/><path id="19" class="fil1" d="M908.49 36.62c0-6.19 1.63-11.3 4.9-15.35 3.27-4.03 8.07-6.06 14.37-6.06 6.3 0 11.1 2.02 14.37 6.06 3.27 4.05 4.9 9.16 4.9 15.35 0 6.19-1.63 11.3-4.9 15.35-3.27 4.03-8.07 6.06-14.37 6.06-6.3 0-11.1-2.02-14.37-6.06-3.27-4.05-4.9-9.16-4.9-15.35zm7.35 0c0 5.54 1.09 9.65 3.26 12.32 2.18 2.66 5.06 3.99 8.66 3.99 3.6 0 6.48-1.34 8.66-3.99 2.17-2.67 3.26-6.77 3.26-12.32 0-5.54-1.09-9.64-3.26-12.31-2.18-2.66-5.07-3.99-8.66-3.99-3.6 0-6.48 1.33-8.66 3.99-2.17 2.67-3.26 6.77-3.26 12.31z"/><path id="20" class="fil1" d="M957.74 57.38c-1.19 0-1.78-.59-1.78-1.78V17.64c0-1.19.59-1.78 1.78-1.78h12.74c6.05 0 10.21.98 12.47 2.95 2.26 1.97 3.39 4.57 3.39 7.82 0 2.04-.34 3.76-1.02 5.18-.69 1.42-2.22 2.67-4.62 3.78v.04c2.75.92 4.7 2 5.86 3.24 1.14 1.24 1.72 3.7 1.72 7.38 0 3.1-1.14 5.73-3.43 7.89-2.28 2.16-6.42 3.24-12.42 3.24h-14.69zm5.17-5.18h7.72c3.66 0 6.3-.41 7.91-1.2 1.6-.81 2.4-2.64 2.4-5.54 0-2.62-.92-4.41-2.76-5.35-1.83-.95-4.35-1.42-7.54-1.42h-7.72v13.52zm0-18.7h6.16c3.15 0 5.67-.46 7.53-1.36 1.87-.92 2.8-2.52 2.8-4.85 0-2.5-.81-4.17-2.41-5.01-1.6-.82-4.24-1.24-7.92-1.24h-6.16V33.5z"/><path id="21" class="fil0" d="M0 138.37c0-6.19 1.63-11.3 4.9-15.35 3.27-4.03 8.07-6.06 14.37-6.06 6.3 0 11.1 2.02 14.37 6.06 3.27 4.05 4.9 9.16 4.9 15.35 0 6.19-1.63 11.3-4.9 15.35-3.27 4.03-8.07 6.06-14.37 6.06-6.3 0-11.1-2.02-14.37-6.06-3.27-4.05-4.9-9.16-4.9-15.35zm7.35 0c0 5.54 1.09 9.65 3.26 12.32 2.18 2.66 5.06 3.99 8.66 3.99 3.6 0 6.48-1.34 8.66-3.99 2.17-2.67 3.26-6.77 3.26-12.32 0-5.54-1.09-9.64-3.26-12.31-2.18-2.66-5.07-3.99-8.66-3.99-3.6 0-6.48 1.33-8.66 3.99-2.17 2.67-3.26 6.77-3.26 12.31z"/><path id="22" class="fil0" d="M49.25 159.13c-1.19 0-1.78-.59-1.78-1.78v-37.96c0-1.19.59-1.78 1.78-1.78h29.17c1.19 0 1.78.59 1.78 1.78v37.96c0 1.19-.59 1.78-1.78 1.78h-3.39c-1.19 0-1.78-.59-1.78-1.78v-34.56H54.42v34.56c0 1.19-.59 1.78-1.78 1.78h-3.39z"/><path id="23" class="fil0" d="M88.99 122.95c-1.22 0-1.85-.46-1.85-1.39V119c0-.93.61-1.39 1.83-1.39h32.86c1.23 0 1.83.46 1.83 1.39v2.56c0 .93-.62 1.39-1.85 1.39h-12.94v34.4c0 1.19-.59 1.78-1.78 1.78h-3.39c-1.19 0-1.78-.59-1.78-1.78v-34.4H88.98z"/><path id="24" class="fil0" d="M125.83 138.37c0-6.19 1.63-11.3 4.9-15.35 3.27-4.03 8.07-6.06 14.37-6.06 6.3 0 11.1 2.02 14.37 6.06 3.27 4.05 4.9 9.16 4.9 15.35 0 6.19-1.63 11.3-4.9 15.35-3.27 4.03-8.07 6.06-14.37 6.06-6.3 0-11.1-2.02-14.37-6.06-3.27-4.05-4.9-9.16-4.9-15.35zm7.35 0c0 5.54 1.09 9.65 3.26 12.32 2.18 2.66 5.06 3.99 8.66 3.99 3.6 0 6.48-1.34 8.66-3.99 2.17-2.67 3.26-6.77 3.26-12.32 0-5.54-1.09-9.64-3.26-12.31-2.18-2.66-5.06-3.99-8.66-3.99-3.6 0-6.48 1.33-8.66 3.99-2.17 2.67-3.26 6.77-3.26 12.31z"/><path id="25" class="fil0" d="M175.08 159.13c-1.19 0-1.78-.59-1.78-1.78v-37.96c0-1.19.59-1.78 1.78-1.78h7.5c.82 0 1.41.51 1.78 1.54l9.04 26.1c.19.55.53 1.56 1.02 3.05.5 1.47.93 2.87 1.27 4.19h.16c.34-1.32.77-2.72 1.27-4.19.5-1.48.83-2.5 1.02-3.05l9.04-26.1c.38-1.03.96-1.54 1.78-1.54h7.5c1.19 0 1.78.59 1.78 1.78v37.96c0 1.19-.59 1.78-1.78 1.78h-3.39c-1.19 0-1.78-.59-1.78-1.78V127.5c0-.79.03-1.58.08-2.37h-.08l-11.85 31.59c-.61 1.61-1.31 2.41-2.13 2.41h-3.07c-.82 0-1.53-.81-2.14-2.41l-11.84-31.59h-.08c.05.8.08 1.58.08 2.37v29.85c0 1.19-.59 1.78-1.78 1.78h-3.39z"/><path id="26" class="fil0" d="M258.1 159.13c-1.19 0-1.78-.59-1.78-1.78v-37.96c0-1.19.59-1.78 1.78-1.78h3.39c1.19 0 1.78.59 1.78 1.78v29.18c0 .8-.03 1.59-.08 2.37h.08l18.09-31.39c.74-1.29 1.87-1.94 3.39-1.94h4.78c1.19 0 1.78.59 1.78 1.78v37.96c0 1.19-.59 1.78-1.78 1.78h-3.39c-1.19 0-1.78-.59-1.78-1.78v-29.19c0-.8.03-1.58.08-2.37h-.08l-18.1 31.4c-.73 1.29-1.86 1.94-3.39 1.94h-4.77z"/><path id="27" class="fil0" d="M331.17 159.13c-1.19 0-1.78-.59-1.78-1.78v-37.96c0-1.19.59-1.78 1.78-1.78h12.74c6.05 0 10.21.98 12.47 2.95 2.26 1.97 3.39 4.57 3.39 7.82 0 2.04-.34 3.76-1.02 5.18-.69 1.42-2.22 2.67-4.62 3.78v.04c2.75.92 4.7 2 5.86 3.24 1.14 1.24 1.72 3.7 1.72 7.38 0 3.1-1.14 5.73-3.43 7.89-2.28 2.16-6.42 3.24-12.42 3.24h-14.69zm5.17-5.18h7.72c3.66 0 6.3-.41 7.91-1.2 1.6-.81 2.4-2.64 2.4-5.54 0-2.62-.92-4.41-2.76-5.35-1.83-.95-4.35-1.42-7.54-1.42h-7.72v13.52zm0-18.7h6.16c3.15 0 5.67-.46 7.53-1.36 1.87-.92 2.8-2.52 2.8-4.85 0-2.5-.81-4.17-2.41-5.01-1.6-.82-4.24-1.24-7.92-1.24h-6.16v12.46z"/><path id="28" class="fil0" d="M399.87 174.91c-1.12 0-1.67-.59-1.67-1.78v-53.74c0-1.19.59-1.78 1.79-1.78h3.33c.96 0 1.43.59 1.43 1.78v3.16c1.47-1.73 3.11-3.09 4.96-4.09 1.83-1 4.28-1.5 7.35-1.5 5.32 0 9.37 2.16 12.13 6.46 2.77 4.3 4.16 9.28 4.16 14.95s-1.39 10.64-4.16 14.95c-2.76 4.3-6.81 6.46-12.13 6.46-3.07 0-5.52-.5-7.35-1.5-1.84-1-3.49-2.36-4.96-4.09h-.08c.05.78.08 1.59.08 2.4v16.54c0 1.19-.55 1.78-1.67 1.78h-3.2zm4.87-31.97c0 3.95.96 6.89 2.87 8.83 1.91 1.93 4.31 2.9 7.19 2.9 4.07 0 6.95-1.51 8.65-4.52 1.7-3.01 2.54-6.93 2.54-11.79 0-4.86-.85-8.78-2.54-11.79-1.7-3.01-4.58-4.52-8.65-4.52-2.88 0-5.28.97-7.19 2.9-1.91 1.94-2.87 4.88-2.87 8.83v9.15z"/><path id="29" class="fil0" d="M440.16 138.37c0-6.19 1.63-11.3 4.9-15.35 3.27-4.03 8.07-6.06 14.37-6.06 6.3 0 11.1 2.02 14.37 6.06 3.27 4.05 4.9 9.16 4.9 15.35 0 6.19-1.63 11.3-4.9 15.35-3.27 4.03-8.07 6.06-14.37 6.06-6.3 0-11.1-2.02-14.37-6.06-3.27-4.05-4.9-9.16-4.9-15.35zm7.35 0c0 5.54 1.09 9.65 3.26 12.32 2.18 2.66 5.06 3.99 8.66 3.99 3.6 0 6.48-1.34 8.66-3.99 2.17-2.67 3.26-6.77 3.26-12.32 0-5.54-1.09-9.64-3.26-12.31-2.18-2.66-5.06-3.99-8.66-3.99-3.6 0-6.48 1.33-8.66 3.99-2.17 2.67-3.26 6.77-3.26 12.31z"/><path id="30" class="fil0" d="M485.29 154.64c-.63-.89-.67-1.62-.12-2.17l2.17-2.14c.74-.73 1.59-.55 2.53.55.16.19 1.11.86 2.84 2.04 1.74 1.17 3.92 1.77 6.56 1.77 4.36 0 7.16-.73 8.4-2.19 1.24-1.46 1.86-3.18 1.86-5.18 0-2.58-.79-4.41-2.37-5.53s-3.83-1.67-6.75-1.67h-4.9c-1.19 0-1.78-.46-1.78-1.39v-2.4c0-.93.59-1.39 1.78-1.39h3.6c3.22 0 5.51-.57 6.9-1.69 1.39-1.13 2.08-2.77 2.08-4.91 0-2.36-.82-3.99-2.47-4.9-1.64-.92-3.78-1.37-6.41-1.37-1.27 0-2.71.13-4.34.42-1.63.27-3.06 1.05-4.27 2.31-1.13 1.19-2.02 1.46-2.68.8l-2.09-2.09c-.77-.77-.59-1.63.51-2.58 1.43-1.2 3.11-2.16 5.09-2.87 1.97-.71 4.86-1.08 8.69-1.08 5.23 0 9.02 1.15 11.38 3.43 2.36 2.28 3.53 4.78 3.53 7.46 0 2.81-.53 4.87-1.56 6.18a10.222 10.222 0 01-3.89 3.05v.12c2.09.61 3.83 1.86 5.23 3.76 1.39 1.9 2.09 3.91 2.09 6.02 0 4.56-1.44 7.84-4.31 9.82-2.87 1.98-7.11 2.98-12.75 2.98-4.42 0-7.89-.77-10.41-2.32-2.51-1.54-3.88-2.48-4.12-2.82z"/><path id="31" class="fil0" d="M528.16 159.13c-1.19 0-1.78-.59-1.78-1.78v-37.96c0-1.19.59-1.78 1.78-1.78h3.39c1.19 0 1.78.59 1.78 1.79v15.53h19.15V119.4c0-1.2.59-1.79 1.78-1.79h3.39c1.19 0 1.78.59 1.78 1.78v37.96c0 1.19-.59 1.78-1.78 1.78h-3.39c-1.19 0-1.78-.59-1.78-1.78v-17.24h-19.15v17.24c0 1.19-.59 1.78-1.78 1.78h-3.39z"/><path id="32" class="fil0" d="M572.35 159.13c-1.19 0-1.78-.59-1.78-1.78v-37.96c0-1.19.59-1.78 1.78-1.78h3.39c1.18 0 1.78.59 1.78 1.78v29.18c0 .8-.03 1.59-.08 2.37h.08l18.09-31.39c.74-1.29 1.87-1.94 3.39-1.94h4.78c1.19 0 1.78.59 1.78 1.78v37.96c0 1.19-.59 1.78-1.78 1.78h-3.39c-1.19 0-1.78-.59-1.78-1.78v-29.19c0-.8.03-1.58.08-2.37h-.08l-18.1 31.4c-.73 1.29-1.86 1.94-3.39 1.94h-4.77z"/><path id="33" class="fil0" d="M618.52 159.13c-1.19 0-1.78-.59-1.78-1.78v-37.96c0-1.19.59-1.78 1.78-1.78h3.39c1.19 0 1.78.59 1.78 1.78v34.56h18.59v-34.56c0-1.19.59-1.78 1.78-1.78h3.39c1.19 0 1.78.59 1.78 1.78v34.56H654c1.18 0 1.78.59 1.78 1.77v13.87c0 1.17-.53 1.77-1.58 1.77h-2.91c-1.05 0-1.58-.59-1.58-1.78v-10.44h-31.19z"/><path id="34" class="fil0" d="M660.04 119.55c-.47-1.29-.19-1.94.86-1.94h3.81c.77 0 1.33.51 1.7 1.54l9.4 26.07c.2.71.53 1.83.94 3.36.42 1.52.73 2.89.9 4.07h.07c.19-1.19.4-2.27.67-3.24.26-.97.65-2.36 1.17-4.19l9.33-26.07c.38-1.03.94-1.54 1.7-1.54h3.83c1.06 0 1.35.65.87 1.94L682 156.67c-2.49 6.99-4.73 11.87-6.71 14.68-1.96 2.81-4.92 4.21-8.83 4.21-2.05 0-3.68-.3-4.89-.9-.55-.26-.74-.66-.55-1.21l1.02-3.18c.19-.55.54-.7 1.06-.47 1.08.45 2.11.67 3.13.67 1.83 0 3.34-1 4.48-2.99 1.16-2 2.09-3.99 2.76-6l.79-2.33-14.24-39.58z"/></g></svg>