<svg xmlns="http://www.w3.org/2000/svg" width="24.645" height="23.808" viewBox="0 0 14.18 13.7" shape-rendering="geometricPrecision" text-rendering="geometricPrecision" image-rendering="optimizeQuality" fill-rule="evenodd" clip-rule="evenodd"><path d="M7.63 3.34c1.13.25 1.93.71 2.53 1.67 1.05 1.68.31 4.65-2.21 5.3-1.45.37-2.41-.12-3.31-.75C3.85 9 3.32 7.8 3.22 6.77c-.14-1.5.44-2.93 1.28-3.97.43-.53 1.11-1.11 1.73-1.46C7.44.66 8.1.59 9.62.46 9.48.42 9.19.3 8.97.25 8.14.03 7.22-.05 6.36.04 3.54.33 1 2.23.22 5.19c-.61 2.34.15 4.45 1.31 5.88 1.94 2.4 5.28 3.26 8.2 2.14.45-.17.85-.38 1.23-.62.51-.33 1.19-.83 1.53-1.29.47-.64.69-.8 1.11-1.72.42-.94.66-2.07.57-3.23-.3-3.9-3.89-5.91-4.49-5.78-.22.05-.51.2-.68.3-.71.41-1.37 1.26-1.35 2.47z" fill="#eb0000"/></svg>