<svg xmlns="http://www.w3.org/2000/svg" width="8mm" height="30.271" viewBox="0 0 22.82 22.85" shape-rendering="geometricPrecision" text-rendering="geometricPrecision" image-rendering="optimizeQuality" fill-rule="evenodd" clip-rule="evenodd"><defs><style>.fil0{fill:#000}</style></defs><g id="Layer_x0020_1"><g id="_2407464267232"><path class="fil0" d="M18.25.02c.24.28.34.69.34 1.06h1.59c1.85 0 1.57-.24 1.57 1.57v17.28c0 1.48.21 1.83-.53 1.83h-.76c-6.27 0-12.59-.03-18.86 0-.26 0-.47-.01-.52-.26l-.01-2.33c0-.72.03-2.55-.01-3.14-.56.09-.55.05-1.05-.09-.04 1.66 0 3.62 0 5.34 0 .63.21.97.54 1.24.41.34.89.29 1.5.29h17.81c1.16 0 2.27.25 2.8-.77.22-.43.15-1.12.15-1.64V2.59c0-.46.06-1.3-.09-1.69-.15-.4-.49-.72-.94-.84-.32-.09-3-.05-3.53-.04z"/><path class="fil0" d="M10.17 16.97c-.15-.07-.51-.49-.72-.62.05-.13.43-.52.55-.66.05-.06.09-.09.14-.14l1.85-2.08c.05-.06.08-.08.14-.14l5.83-6.5c.05-.06.08-.08.14-.14l.44-.48.72.65c-.09.12-.16.18-.27.31L17.44 8.9c-.05.07-.09.09-.15.16l-.29.33c-.51.61-1.3 1.42-1.83 2.05l-.44.49c-.2.25-.48.53-.7.77-.06.06-.08.11-.14.17-.34.34-1.35 1.52-1.71 1.91l-2.01 2.21zm9.04-11.75c.11-.15.58.4.78.57.09.07.2.11.16.28-.16.07-.29-.13-.54-.35-.09-.08-.15-.15-.25-.23-.06-.05-.24-.15-.15-.27zm2 1c.15-.87-.53-1.19-.92-1.6-.52-.54-1.25-.72-1.77-.21-.34.33-.23.34-.38.64-.05.1-.81.9-.96 1.08l-2.89 3.22c-.16.16-.32.39-.48.54-.17.17-.32.38-.48.54l-2.9 3.23c-.39.46-1.12 1.2-1.45 1.61-.4.5-.57.52-.92 1.12l-1.85 3.24c-.31.56-.72 1.03-.41 1.41.4.49.95-.08 1.33-.36.07-.05 3.41-2.46 3.51-2.6l3.62-4.05c.08-.1.16-.17.24-.27.22-.28.71-.77.96-1.07l1.44-1.61c.17-.17.3-.35.48-.54l2.88-3.22c.32-.38.35-.24.56-.45.16-.16.31-.34.37-.65zm-7.04.87c.11-.22-.02-.43-.15-.51-.17-.11-.39-.02-.58.02-.38.1-.74.19-1.12.29-2.46.66-3.78 1.12-5.29 3.1l-.16.21c-.2.27-.18.16-.79.25-1.72.28-2.57.76-3.79 1.83l-.35.36c-.11.11-.24.22-.34.34l-.34.37c-.18.2-.92 1.02-.96 1.13-.07.22.04.41.19.49.22.12.38 0 .54-.1.86-.54 1.89-1 2.86-1.35.99-.35 2.45-.68 3.55-.67.44.01.96.22 1.11-.16.07-.17.07-.35.16-.55.36-.87 1.51-2.06 2.26-2.66.94-.75 1.33-1.08 2.41-1.81.19-.13.71-.41.8-.59zM.02 13.13c.08-.04.36-.38.44-.47.66-.77.62-.38.62-1.15V3.62c0-2.84-.19-2.53.95-2.53 3.49 0 7.06-.02 10.55 0 .3 0 .39-.14.61-.28.42-.25.73-.39 1.19-.56.2-.07.47-.14.65-.22-.44-.06-1.29-.01-1.78-.01H4.48c-.56 0-3.11-.05-3.46.05C-.2.42.01 1.65.01 2.6v3.51c0 2.33-.04 4.7 0 7.02z"/><path class="fil0" d="M17.51 1.1c.1-.29-.15-.56-.46-.51-.38.06-2 .55-2.33.67-1.86.69-2.37 1.89-2.54 1.98-.3.16-1.46-.11-3.13 1.39-.25.23-1.35 1.4-1.39 1.58-.07.3.18.56.48.49.11-.03 2.31-1.5 4.56-1.49.34 0 .63.15.84-.08.14-.15.05-.29.3-.72.14-.24.26-.38.41-.58.26-.35.69-.7 1.01-1 .47-.43 1.19-.91 1.72-1.28.19-.14.47-.24.54-.46z"/></g></g></svg>