<svg xmlns="http://www.w3.org/2000/svg" width="36.063" height="46.925" viewBox="0 0 40.01 52.05" shape-rendering="geometricPrecision" text-rendering="geometricPrecision" image-rendering="optimizeQuality" fill-rule="evenodd" clip-rule="evenodd"><defs><style>.fil0{fill:#2b2a29}</style></defs><g id="Layer_x0020_1"><g id="_2407503569712"><path class="fil0" d="M18.89 41.47c1.7-.41 3.1.73 3.41 2 .41 1.63-.77 2.98-2.07 3.27-3.61.83-5.09-4.38-1.34-5.28zm8.12-5.8c2.15-.39 3.82 1.13 4.11 2.76.37 2.03-1.14 3.66-2.83 3.96-2.19.39-3.9-1.1-4.2-2.82-.36-2.09 1.17-3.6 2.92-3.91zm4.18-9.33c2.46-.37 4.41 1.33 4.73 3.31.39 2.39-1.41 4.25-3.46 4.57-2.45.37-4.44-1.36-4.74-3.32-.37-2.4 1.4-4.25 3.48-4.56zm-2.49-8.61c1.96-.48 3.57.8 3.95 2.3.48 1.88-.86 3.39-2.31 3.77-4.22 1.12-5.96-5.02-1.65-6.07zm-.83-3.79c-.22.63-2.89 4.71-3.29 5.33-1.18 1.82-3.97 5.78-5.37 7.6-.65.84-1.16 1.62-1.79 2.47-3.57 4.8-2.6 2.83-2.11 5.42.49 2.57-.27 5.06-1.61 6.62-1.2 1.41-3.18 2.47-3.77 4.85-.62 2.52 1.45 4.48 3.14 5.18 2.46 1.02 4.97.63 7.54.05 8.64-1.96 16.11-8.49 18.5-16.14 1.52-4.85 1.15-9.97-1.3-13.96-.4-.66-1.33-1.99-1.85-2.5l-1.67-1.59c-1.12-.95-4.7-3.13-6.43-3.33zM.43 46.27c.37-1.65 7.69-12.93 8.68-14.39 1.26-1.86 8.43-11.88 9.76-13.35l.48.31-2.47 3.31c-4.53 6.13-7.65 10.62-11.96 17.06-1.42 2.13-3.23 5.28-4.5 7.07zM18.48 18.3c-.11.15-.22.3-.33.44l-4.55 6.12c-3.25 4.29-7.09 10.04-9.83 14.56-.76 1.25-1.5 2.51-2.23 3.82-.39.7-.71 1.27-1.09 1.98-.31.58-.91 1.65.17 1.87.72.14 1.42-.93 1.75-1.27l5.09-5.61c1.58-1.96 3.07-3.64 4.78-5.81.66-.84 9.66-12.69 10.27-14.04-1.1-.68-2.16-1.59-3.66-2.45l-.38.4zm-9.64 2.71c-.32-1.58.8-2.78 2.08-3.01 1.58-.29 2.89.8 3.13 2.02.3 1.56-.83 2.77-2.11 2.99-1.63.28-2.85-.78-3.1-2zm1.04 7.21l5.6-7.69c1.67-2.18 3.33-4.43 5.09-6.52.29-.34.54-.6.77-.97-6.54.24-11.1 2.33-15.13 5.23-4.16 2.98-5.17 8.9 1.47 9.53 1.03.1 1.31.21 2.2.42zm15.57-18.2c.27-2.91 4.59-8.84 8.38-9.33-.27.25-.96.56-1.35.84-1.57 1.14-1.03.86-1.77 1.49-1.9 1.6-3.78 4.93-3.8 7.83-.09-.04-1.38-.76-1.46-.83zm-.39.41c1.27.32 2.1 1.27 2.8 1.79 1.16-.44 2.43-1.49 2.98-2.27 1.77-2.49.54-6.74 4.15-9.03.42-.27 1.61-.71 1.8-.86-2.82-.29-5.29.72-7.17 2.5-.27.25-.49.49-.74.72-1.08.97-3.85 4.92-3.81 7.15zm-5.18 6.8c.7-1.09 4.39-5.19 4.62-5.57.32.06.45.07.61.28-.19.25-.48.55-.62.71l-4.14 4.9c-.31-.11-.32-.14-.46-.32zm-.66.19l3.66 2.42c.62-.65 3.29-5.07 3.93-6.13.5-.82.54-1-.81-1.9-.28-.19-.72-.47-1.07-.58-.46-.14-.41-.1-.65.12l-5.06 6.07z"/><path class="fil0" d="M.43 46.27c1.27-1.8 3.08-4.95 4.5-7.07 4.31-6.43 7.43-10.93 11.96-17.06l2.47-3.31-.48-.31c-1.33 1.48-8.5 11.49-9.76 13.35C8.13 33.33.81 44.6.44 46.26zm25.02-36.25c.08.07 1.37.79 1.46.83.02-2.91 1.9-6.24 3.8-7.83.74-.63.2-.35 1.77-1.49.39-.28 1.08-.59 1.35-.84-3.79.49-8.11 6.42-8.38 9.33zm-5.57 7.21c.14.17.16.21.46.32l4.14-4.9c.15-.15.44-.46.62-.71-.17-.21-.29-.22-.61-.28-.23.38-3.92 4.48-4.62 5.57z"/></g></g></svg>