<svg xmlns="http://www.w3.org/2000/svg" width="32.226" height="32.229" viewBox="0 0 178.04 178.05" shape-rendering="geometricPrecision" text-rendering="geometricPrecision" image-rendering="optimizeQuality" fill-rule="evenodd" clip-rule="evenodd"><path d="M21.72 93.73l-1.34 5.18-1.33 4.71-2.67 10.17L2.76 164.3c-.35 1.26-.6 3.41-1.39 4.3.03 1.46-.63 3.15-1.01 4.55-.87 3.24-.09 3.48 1.85 4.92h1.91l52.76-14.21L67 161.23c1.22-.71 13.45-3.65 15.95-4.32 7.11-1.91 5.61-1.36 12.39-8.12 3.16-3.15 6.81-6.83 10.21-10.32l10.35-10.12c.76-1.15 19.26-19.11 21.62-21.46l4.23-4.43c.81-.81 7.71-8.07 8.92-8.44.2-.92 1.58-1.92 2.28-2.61l5.11-5.03c.47-.47.78-.76 1.25-1.23.23-.23.37-.42.61-.63l.94-.55c.02-.06.06-.21.07-.18 0 .01-.03-.25.99-1.23 1.3-1.24 7.82-8.07 8.86-8.46.27-.69.38-.68 1.09-1.37l3.93-3.74c.6-1.53 3.43-1.16 1.64-8.32-.68-2.73-1.65-5.92-2.46-8.91-2.52-9.39-3.53-6.68-10.88.59l-17.29 17.09c-1.48 1.49-4.42 5.01-5.84 5.85-.78 1.48-28.66 28.46-29.15 28.73-.14.39-.05.28-.42.41-.55.95-1.4 1.54-2.18 2.34l-4.6 4.79c-.8.8-1.51 1.71-2.42 2.25l-.78.77c-.2.34-8.44 8.77-9.56 9.35l-.11.1c-1.46 2.81-5.54 3.94-7.31 9.14-.03.08-.11.32-.14.4-.03.07-.06.14-.09.2l-.2.4c.21.67.36 2.98.66 4.26l1.41 5.2 1.22 4.33c-.24.19-.53.36-.81.62-.37.36-.49.64-.81.92-.56.49-1.5.62-2.37.84l-36.11 9.59c-.79-.15-22.87-22.65-25.3-25.09-1.09-1.09-2.86-2.56-3.75-3.79 1.12-5.01 4.07-15.21 5.55-20.55.91-3.28 1.81-6.78 2.74-10.13.48-1.73.9-3.35 1.36-5.06.76-2.87 1.08-2.36 2.6-3.98 6.66 1.03 11.2 4.45 16.2 2.26 1.85-.81 2.65-1.97 3.81-3.13l40.96-40.64c2.03-1.95 25.85-25.24 27.32-27.09l13.63-13.57c4.55-4.54 1.17-4.96-3.46-6.25-2.1-.59-9.35-2.21-10.66-2.93h-2.29c-1.97.93-1.94-.45-4.04 1.58L55.72 57.2c-1.78 1.76-4.3 3.94-5.82 5.8-2.32 2.85-14.15 14.02-17.71 17.65l-8.93 8.88c-1.05 1.28-.87 2.67-1.55 4.17zm54.92 31.82c2.5.98 3.25.38 5.2-.66.1-.63 2.73-2.93 3.37-3.56l10.84-10.68c4.78-4.81 9.57-9.02 14.24-14.2 2.45-2.72 4.74-4.88 7.15-7.19l35.62-35.36c2.45-2.36 4.83-4.7 7.22-7.12 9.6-9.74 10.57-8.58 3.19-15.88l-17.93-17.69c-1.05-1.06-2.01-2.68-4.45-2.17-2.35.49-12.55 11.3-14.85 13.58-2.46 2.44-4.75 4.7-7.22 7.13l-6.97 7.12c-2.2 2.43-4.85 4.79-7.21 7.13L54.92 95.49c-.96.95-2.66 2.38-2.59 4.67.06 1.92 1.99 3.24 3.01 4.24l14.31 14.13c1.25 1.19 6.46 6.09 6.99 7.02z" fill="#000100"/></svg>