<svg xmlns="http://www.w3.org/2000/svg" width="23.667" height="28.163" viewBox="0 0 13.17 15.67" shape-rendering="geometricPrecision" text-rendering="geometricPrecision" image-rendering="optimizeQuality" fill-rule="evenodd" clip-rule="evenodd"><path d="M4.27 8.61c.11.06.16.12.24.21l1.74 1.42c.27-.28.77-.67 1.19-1.12.44-.46.48-.59.8-.98l1.92-2.65c.04-.06.07-.08.11-.14.04-.07.05-.08.1-.15.31-.38 1.05-1.5 1.38-1.93.05-.06.07-.08.11-.14l.73-1.03c.15-.21.41-.53.5-.75.06-.14.08-.28.07-.42l-.01-.08a.933.933 0 00-.33-.59.93.93 0 00-.62-.24l-.18.02c-.24.04-.47.18-.65.38l-.49.53c-.06.06-.07.06-.13.13l-.37.4c-.05.05-.07.08-.12.14-.05.06-.07.06-.13.13l-3.6 3.84c-.05.05-.07.09-.12.14-.3.29-.7.79-.97 1.07l-1 1.51c-.06.11-.14.22-.19.33zM2.18 11.7c-.66.06-.66-.66.09-1.3.26-.22.76-.52 1.1-.55.42-.04.68.61.13.8-1.19.41-.88 1.01-1.31 1.05zm-.6 3.93l-.36.03c-.24.01-.48 0-.71-.03-.22-.03-.48-.07-.5-.28-.01-.14.19-.28.27-.37.73-.89-.06-2.06.5-3.61.14-.4.47-.81.74-1.13.43-.51 1.27-1.11 2.03-1.19.41-.04.35-.07.59.13.2.17 1.78 1.41 1.8 1.54.08.81-.04 1.32-.4 1.98-.22.42-.61.97-.93 1.29l-.29.28c-.69.67-1.71 1.2-2.74 1.35z"/></svg>