<svg xmlns="http://www.w3.org/2000/svg" width="38.333" height="37.68" viewBox="0 0 238.78 234.71" shape-rendering="geometricPrecision" text-rendering="geometricPrecision" image-rendering="optimizeQuality" fill-rule="evenodd" clip-rule="evenodd"><path d="M186.82 127.43c-1.75 3.31-3.26 6.52-6.18 8.66-5.14-3.44-8.06-6.86-12.9-10.61L77.95 48.25c0 15.73-6.84 29.36-16.05 35.92-11.99 8.54-22.91 9.86-43.34 9.86 3.23 4.4 143.44 80.38 143.52 80.42 1.14-4.29 6.1-8.99 8.67-12.36l18.19-23.88c3.52-4.72 7.25-6.92 7.78-13.25-3.62-.97-26.56-22.17-30.61-26.3-3.15-3.2-4.12-3.51-7.38-6.23-2.97-2.49-4.62-4.83-7.49-7.36l-38.13-33.63c-3.37-2.6-4.67-4.4-7.61-7.23-3.06-2.95-4.46-3.35-7.46-6.15-3.18-2.96-4.3-4.52-7.72-7.13-7.31-5.58-5.49-6.52-16.08-13.61 1.2 14.43 4.02 13.99 8.95 18.27l51.98 45.76c6.93 6.89 48.05 40.69 51.66 46.08zm-3.71 79.18c-1.35 2.55-1.72 2.93-2.47 6.19 3.54 5.28 6.19 6.78 13.12 9.15l17.81 5.69c-7.54.63-10.79 1.68-21.41-2.09-7.1-2.52-12.74-5.35-14.46-12.75 2.06-3.08 3.38-5.11 7.43-6.19zm0 0l2.41-1.42-2.41 1.42zm16.08-39.59c0 3.99 11.14 14.19 11.14 22.27 0 7.54-12.8 4.6-24.62 8.79-15.16 5.37-27.52 20.22-4.7 31.66 19.18 9.61 57.77 5.96 57.77-16.94 0-5.45-4.94-10.12-7.42-13.62l-24.7-33.44c-1.71-1.75-.04-2.42-3.76-2.42-2.85 0-3.71.86-3.71 3.71zM0 91.55c1.69 2.31 5.47 5.33 8.66 6.19l49.48-68.05c2.82-4.01 5.17-7.27 8.17-11.62 3.29-4.77 5.21-6.76 7.92-11.87-3.82-2.02-6.45-3.88-9.9-6.19L0 91.56zm178.16 68.05c6.22 1.45 8.86 5.74 16.08 7.42 1.31-2.48 1.06-2.23 2.87-4.55 2.52-3.24 2.08-.71 3.32-5.35l-12.08-12.67c-3.75 2.87-9.78 10.23-10.19 15.14z"/></svg>