<svg xmlns="http://www.w3.org/2000/svg" width="40.057" height="31.466" viewBox="0 0 49.64 39" shape-rendering="geometricPrecision" text-rendering="geometricPrecision" image-rendering="optimizeQuality" fill-rule="evenodd" clip-rule="evenodd"><path d="M3.51 29.34c5.58 1.68 6.07 4.76 6.91 5.32l27.33-28c2.44-3.33-3.45-9.16-6.86-5.5L17.25 15.21c-.65.68-1.33 1.25-1.99 1.95-1.3 1.37-2.57 2.8-3.91 4.09-.63.6-7.56 7.54-7.84 8.09zm11.02 4.47c1.4.15 28.89-.12 31.82-.13 3.95-.01 3.73-4.57 2.39-6.4-.82-1.12-2.67-.89-4.36-.88l-21.16.1c-2 .01-1.29-.36-3.46 1.93-1.01 1.06-4.88 4.82-5.22 5.38zm10.16-10.39c2.49.15 5.45-.02 8-.02 2.71-.01 5.41-.03 8.12-.03 1.69 0 6.37.29 7.46-.49 1.58-1.13 1.85-4.34.42-6-.78-.9-1.72-.83-3.08-.83l-12.18.05c-2.45.02-1.7.1-4.73 3.19-1.02 1.04-3.32 3.12-4.01 4.13zm10.15-10.43c1.13.19 9.23.01 11.51 0 1.39-.01 2.04-.37 2.63-1.23 1.21-1.75.67-4.77-.91-5.72-1.11-.67-5.87-.32-7.48-.32-1.09 3.04-.9 2.2-2.59 3.93l-3.17 3.34zM8.99 36.07c-1.11-2.4-3.62-4.95-7.07-5.17-.83.81-1.83 1.66-1.92 3.46-.17 3.35 3.18 5.47 5.99 4.31.82-.34 1.1-.62 1.59-1.12.4-.41 1.04-1.01 1.4-1.48zm5.54-22.94c1.9-.01 1.32.18 2.64-1.18.67-.69 1.37-1.31 2.05-2.01l3.93-4.08-9.45-.01c.09.48.47.99.66 1.54 1.13 3.21.12 4.84.17 5.75zm-1.7.01c1.15-2.21.17-7.28-1.54-7.3-3.41-.03-4.72 3.33-3.38 5.55 1.06 1.76 2.53 1.74 4.92 1.75zm-5 8.36c.86-.74 1.57-1.51 2.26-2.24.47-.51 1.91-1.89 2.18-2.38-.21-.39-.24-.6-.74-.69-2.79-.48-5.33 3.06-3.7 5.31z" fill="#2b2a29"/></svg>