<svg xmlns="http://www.w3.org/2000/svg" width="8.4mm" height="28.513" viewBox="0 0 25.08 22.52" shape-rendering="geometricPrecision" text-rendering="geometricPrecision" image-rendering="optimizeQuality" fill-rule="evenodd" clip-rule="evenodd"><path d="M8.86 18.49c-.12-.38-.05-8.25-.05-9.39.01-5.21-.35-5.51.91-5.49.41 0 .92-.13 1.06.4.11.4.04 8.25.05 9.42.03 5.3.29 5.51-.9 5.51-.47 0-.85.21-1.07-.45zm-3.37-.01c-.12-.38-.06-8.24-.06-9.38.01-5.18-.34-5.49.91-5.49.41 0 .92-.14 1.06.4.11.41.05 8.25.05 9.42.02 5.16.32 5.54-.9 5.52-.48-.01-.85.18-1.06-.46zm-2.84.47c-.44 0-.59-.22-.59-1L2.05 5.78c-.01-1.56-.17-2.17.75-2.17.6 0 1.19-.19 1.27.69v10.52c.01 4.47.22 4.14-1.43 4.14zM12.09.03C9.13.01 6.15.01 3.28.07 2.14.09.83-.18.19 2.51c-.3 1.26-.16 5.79-.17 7.5-.01 2.6 0 5.24 0 7.84 0 1.37.04 2.1.45 3.07.3.71.84 1.33 1.36 1.49.32.1 5.54.11 10.26.1V.03zm4.13 18.44c.12-.38.05-8.25.05-9.39-.01-5.21.35-5.51-.91-5.49-.41 0-.92-.13-1.06.4-.11.4-.04 8.25-.05 9.42-.03 5.3-.29 5.51.9 5.51.47 0 .85.21 1.07-.45zm3.37-.01c.12-.38.06-8.23.06-9.38-.01-5.18.34-5.49-.91-5.49-.41 0-.92-.14-1.06.4-.11.41-.05 8.25-.05 9.42-.02 5.16-.32 5.54.9 5.52.48-.01.85.18 1.06-.46zm2.84.47c.44 0 .59-.22.59-1l.01-12.17c.01-1.56.17-2.17-.75-2.17-.6 0-1.19-.19-1.27.69V14.8c-.01 4.47-.22 4.14 1.43 4.14zM12.99.01c2.96-.02 5.94-.02 8.81.04 1.14.02 2.45-.25 3.09 2.44.3 1.26.16 5.79.17 7.5.01 2.6 0 5.24 0 7.84 0 1.37-.04 2.1-.45 3.07-.3.71-.84 1.33-1.36 1.49-.32.1-5.54.11-10.26.1V.01z" fill="#010101"/></svg>