<svg xmlns="http://www.w3.org/2000/svg" width="33.668" height="33.797" viewBox="0 0 34.59 34.72" shape-rendering="geometricPrecision" text-rendering="geometricPrecision" image-rendering="optimizeQuality" fill-rule="evenodd" clip-rule="evenodd"><path d="M28.4 0h.05c1.04.05 2.05.36 2.91.87l.75.52c1.32 1.03 2.49 2.99 2.49 4.71 0 1.22-.07 2.1-.91 2.97-.11.12-.2.2-.32.32l-.62.65c-.45.44-.86.86-1.31 1.31-.23.23-.4.44-.64.67l-1.94 1.94c-3.23 3.23-6.44 6.5-9.67 9.74-.13.13-.23.19-.35.32l-2.91 2.88c-.2.2-1.16 1.19-1.38 1.19-.28 0-.91-.72-1.12-.89-.31-.25-1.25-1.22-1.76-1.7l-4.22-4.22-.49-.49c-.14-.14-.41-.32-.41-.57 0-.15.68-.77.82-.91l2.51-2.58c4.74-4.74 9.57-9.94 14.45-14.45l1.31-1.24c.44-.44.96-.79 1.61-.93l1.17-.12zM4.35 27.07c0 .28.05.55.15.77.24.51 1.58 1.85 2.11 2.16.75.44 1.56.12 2.16-.41l.44-.41c.17-.15.57-.49.75-.56.18-.07.93-.03 1.24-.03.2 0 .24-.03.42-.04.51-.02.47.09.7-.15.13-.14.38-.25.43-.45-.11-.16-2.69-2.71-2.9-2.92-.82-.82-1.54-1.57-2.38-2.35-.17-.16-.41-.45-.57-.56-.2.05-.37.27-.47.45-.28.48-.31 1-.31 1.56 0 .55.07.44-.22.73l-.46.46-.45.5c-.24.3-.63.72-.63 1.24zM.01 34.12c.03.37.16.67.79.58.52-.07.57 0 1.27-.14.79-.16 1.38-.46 1.99-.8l.83-.55c.13-.11.27-.2.39-.32l1.06-1.02c.06-.06.12-.11.18-.18.17-.19.46-.46.49-.57-.45-.04-1.04-.48-1.37-.78l-1.48-1.56c-.56-.69-.35-.93-.5-1.22-.12.03-.1.03-.19.1l-.63.57c-.18.16-.31.34-.44.48-.11.11-.2.19-.29.31l-.54.67c-.68.93-1.55 2.49-1.55 3.92v.52z"/></svg>