<svg xmlns="http://www.w3.org/2000/svg" width="42.613" height="29.311" viewBox="0 0 57.92 39.84" shape-rendering="geometricPrecision" text-rendering="geometricPrecision" image-rendering="optimizeQuality" fill-rule="evenodd" clip-rule="evenodd"><path d="M8.63 29.74c-1.08 0-1.88-.16-2.74-1.08-1.08-1.16-1.29-2.79-.59-4.24.37-.76.99-1.39 1.77-1.71 1.11-.46 1.7-.39 2.8.04.76.29 1.43 1.03 1.77 1.77.89 1.93.06 4.04-1.6 4.9-.35.18-.89.32-1.4.32zM0 37.53V19.39c0-.22.32-.78.41-.97.34-.71.73-.99 1.37-1.39.59-.37 1.21-.63 1.76-.92 1.47-.76 3.11-1.47 4.59-2.21l.93-.44c.33-.14.58-.26.9-.41 2.91-1.4 6.32-2.93 9.27-4.21.2-.09.29-.14.49-.23l1.38-.59C27.16 5.47 34.4 2.45 40.84.78 42.82.27 44.01.06 46.1 0l1.88.1c3.53.3 6.82 1.7 8.66 4.84.6 1.03 1.22 2.61 1.22 4.23v5.36c0 .76-.26 1.29-.67 1.81-.87 1.1-1.25 1.16-2.57 1.43l-21.58 4.01c-1.77.36-3.6.61-5.38.97-1.79.37-3.61.62-5.43.98-.87.18-1.79.32-2.72.49l-2.68.47c0 .88.02 2.46-.1 3.18-.12.74-.32 1.14-.56 1.74-.59 1.5-1.31 2.05-1.77 2.75h37.06c1.24 0 .77-.21 2.02 1.08.48.5 4.42 4.27 4.42 4.95 0 .55-.2 1.2-.78 1.33-.62.13-4.5.07-5.25.07-1.23 0-2.25.06-3.49.06l-44.92-.06c-.69 0-1.19-.06-1.83-.06-1.28 0-1.66.13-1.66-2.19zM28.6 25.9c0 .8.14 1.41 1.12 1.4.74 0 1.34.06 2.13.06h18.03c.15 0 .83-.7.83-.85v-4.38c0-.2-.73-.85-1.06-.85-.48 0-.94.12-1.4.2-5.86 1.01-11.83 2.21-17.65 3.19-.85.14-1.99.27-1.99 1.23z"/></svg>