<svg xmlns="http://www.w3.org/2000/svg" width="10mm" height="36.832" viewBox="0 0 36.29 35.37" shape-rendering="geometricPrecision" text-rendering="geometricPrecision" image-rendering="optimizeQuality" fill-rule="evenodd" clip-rule="evenodd"><defs><style>.fil0{fill:#151515}.fil1{fill:#fefefe}</style></defs><g id="Layer_x0020_1"><g id="_2407617788112"><path class="fil0" d="M15.43 24.9c1.79-.32 3.15.73 3.46 1.88.39 1.46-.83 2.67-2.23 2.92-1.74.31-3.18-.69-3.48-1.87-.39-1.49.83-2.68 2.26-2.94zM12.7 2.19h6.67v19.69h-6.68l.01-19.69zM11.52.65c-.56.1-.58.36-.58.87v31.13c0 3.14-.52 2.7 3.21 2.7.82 0 6.11.05 6.45-.02.74-.14.51-1.3.52-2.23.05-6.27 0-12.69 0-18.97 0-3.6.01-7.19 0-10.79-.01-3.12.54-2.7-3.18-2.7-.85 0-6.03-.05-6.42.02z"/><path class="fil0" d="M27.21 27.02c-.18-3.29 5.7-3.44 5.84-.22.06 1.36-1.21 2.48-2.75 2.55-1.67.08-3.03-1.01-3.1-2.33zM31.38 1.4c-.18-1.18 0-1.55-1.61-1.36l-7.37.8c-1.65.16-1.32.27-.91 2.96.97 6.33 1.14 7.07 2.47 16.23.05.34 2.18 14.72 2.31 14.98.25.47.83.33 1.41.27l8.14-.89c.58-.15.48-.6.39-1.13-1.67-10.6-3.27-21.24-4.84-31.84zm-8.27.94l6.54-.7 2.97 19.53-6.62.7c-.64-4.78-1.51-9.82-2.23-14.64-.23-1.51-.46-3.02-.7-4.54 0-.02-.01-.13-.01-.15l.05-.2zM4.57 24.89c1.75-.29 3.14.75 3.43 1.94.36 1.47-.87 2.63-2.3 2.88-1.75.3-3.16-.74-3.45-1.91-.37-1.5.9-2.67 2.32-2.91zM.03 33.44c0 1.35-.27 1.91.97 1.91h7.92c1.61 0 1.29-.14 1.29-3.04V1.52C10.22.26 9.34.63 6.48.63 5.67.63.65.52.29.75c-.45.29-.26 1.91-.26 2.53v30.16zM1.78 2.19h6.67v19.69H1.77l.01-19.69z"/><path class="fil1" d="M18.4 21c-.2.08-4.34.08-4.76.02l.01-.2c.37-.06 4.55-.06 4.75.01V21zm-4.26-1.02c-.5.01-.44-.03-.5-.12.13-.13-.02-.09.23-.14h3.46c.6 0 1.08-.1 1.08.13 0 .19-.28.12-.54.12h-3.73zm0-1.05c-.53.01-.46-.06-.5-.15.14-.09-.18-.12.57-.11l4.05.01c.18.04.07-.04.15.1-.05.13.05.16-.55.15h-3.12c-.21 0-.41 0-.61.01zm4.27-1.11c-.22.09-4.34.1-4.76.02l.01-.21c.37-.06 4.55-.05 4.75.02v.17zm-4.27-1.01c-.52.01-.45-.04-.5-.12.12-.12-.02-.09.23-.13h3.46c.58 0 1.08-.1 1.08.13 0 .19-.27.13-.54.12h-3.73zm0-1.06c-.53.01-.45-.05-.5-.14.14-.11.02-.12.57-.12h.61l3.44.01c.18.05.07-.04.15.1-.08.17.01.09-.21.14h-4.07zm.61-1.06c-.26 0-.95.1-1.11-.1.08-.22.13-.15.5-.15.83.02 3.96-.06 4.27.03v.17c-.29.12-2.93.04-3.65.04zm-2.06 7.19h6.68V2.19H12.7l-.01 19.69zm-9.95-.93c.08-.25.13-.15 1.04-.15.71 0 3.43-.06 3.72.03l.01.17c-.27.1-3.41.03-4.2.04h-.34c-.44-.06-.04 0-.23-.1zm.17-.98c-.2-.05-.08.04-.17-.1.12-.13-.02-.09.23-.14h3.46c.77.02 1.08-.09 1.08.13s0 .09-.19.12l-4.41-.01zm.33-1.03c-.55.01-.46-.06-.5-.15.16-.1-.22-.04.23-.11h4.07c.49-.01.42.02.48.11-.08.18.02.09-.21.14H3.24zm4.27-1.11c-.22.09-4.34.1-4.77.02l.01-.2c.35-.07 4.55-.06 4.75.01v.17zm-4.27-1.01c-.51.01-.44-.03-.5-.12.11-.11-.01-.14.57-.13h3.73c.52-.01.44.05.48.14-.08.15 0 .08-.21.12H3.24zm0-1.06c-.56.01-.46-.06-.5-.14.19-.14-.18-.05.23-.12h4.07c.26 0 .47-.06.47.12 0 .16.16.14-.54.13H3.24zm4.27-1.11c-.23.09-4.34.1-4.77.02l.01-.2c.41-.07 4.49-.07 4.75.01v.17zm-5.73 7.24h6.68V2.2H1.79l-.01 19.69zm25.04-1l-.01-.17c.1-.03 4.45-.59 4.72-.45-.01.29.01.18-1.01.29-.61.07-3.5.44-3.69.34zm-.18-1.14c.06-.12.02-.12.5-.16.85-.08 3.85-.46 4.21-.43l.03.19c-.27.13-3.37.38-4.17.49-.71.09-.5.04-.57-.09zm-.16-1.14c.24-.09 3.39-.37 4.16-.46.67-.08.48-.06.57.07-.11.22-.52.17-1.16.24l-3.2.35c-.37.04-.36.09-.38-.2zm4.58-1.42c-.06.11.1.1-.51.15l-3.07.32c-.22.02-1.14.22-1.15-.02 0-.14-.16-.11.47-.16l.6-.06 3.05-.32c.03 0 .33-.04.33-.04.42.01.18-.08.27.13zm-4.91-.62c.2-.19 4.59-.6 4.73-.51 0 .26-.06.2-.44.23l-3.85.41c-.35.04-.35.1-.44-.13zm-.14-.97c0-.25.1-.18.45-.21l1.88-.2c.41-.04.84-.09 1.24-.13.21-.02.41-.04.6-.07.03 0 .32-.03.33-.03.25.03.13-.06.23.14-.11.13.02.1-.59.15-.71.06-3.95.51-4.15.36zm-.16-1.19c.32-.11 1.9-.23 2.37-.28.43-.04 2.11-.32 2.34-.17-.01.26-.06.19-.46.23-.23.02-.44.05-.67.07l-2.58.28c-.22.02-.44.05-.66.08-.35.03-.33.06-.35-.2zM23.06 2.54c0 .02.01.13.01.15l.33 2.13.36 2.41c.73 4.83 1.59 9.86 2.23 14.64l6.62-.7-2.97-19.53-6.54.7-.05.2z"/><path class="fil0" d="M32.64 27.25c.58-2.76-4.4-3.48-5-.77-.63 2.83 4.41 3.56 5 .77zM4.86 25.17c-3.34.31-2.79 4.56.55 4.25 3.36-.32 2.74-4.55-.55-4.25zm10.84.01c-1.32.15-2.38 1.12-2.21 2.38.15 1.1 1.38 2.02 2.87 1.85 3.33-.39 2.62-4.61-.67-4.23z"/><path class="fil1" d="M15.7 16.09c3.28-.38 3.99 3.84.67 4.23-1.49.17-2.73-.75-2.87-1.85-.17-1.27.89-2.23 2.21-2.38zm-.28-.28c-1.42.25-2.64 1.44-2.26 2.94.3 1.17 1.74 2.18 3.48 1.87 1.4-.25 2.62-1.46 2.23-2.92-.31-1.16-1.67-2.2-3.46-1.88zM4.86 25.17c3.29-.31 3.91 3.93.55 4.25-3.34.31-3.89-3.93-.55-4.25zm-.28-.28c-1.42.23-2.69 1.4-2.32 2.91.29 1.17 1.7 2.21 3.45 1.91 1.43-.25 2.67-1.41 2.3-2.88-.29-1.18-1.68-2.22-3.43-1.94zm28.06 2.36c-.59 2.79-5.63 2.06-5-.77.6-2.71 5.59-1.99 5 .77zm-5.43-.23c.07 1.32 1.43 2.41 3.1 2.33 1.53-.07 2.81-1.19 2.75-2.55-.14-3.22-6.02-3.07-5.84.22z"/><path class="fil0" d="M2.74 14.66c.43.08 4.54.07 4.77-.02v-.17c-.26-.08-4.34-.08-4.75-.01l-.01.2zm10.89 3.18c.43.07 4.54.07 4.76-.02v-.17c-.2-.07-4.38-.08-4.75-.02l-.01.21zm-10.89 0c.42.08 4.54.07 4.77-.02v-.17c-.2-.07-4.4-.08-4.75-.01l-.01.2zm10.9 3.18c.42.06 4.56.06 4.76-.02v-.17c-.21-.07-4.38-.08-4.75-.01l-.01.2zm13.18-.13c.19.1 3.08-.27 3.69-.34 1.02-.11 1.01 0 1.01-.29-.27-.14-4.62.42-4.72.45l.01.17zm-.97-6.48c.02.26 0 .23.35.2.22-.02.44-.05.66-.08l2.58-.28c.23-.03.44-.05.67-.07.4-.04.45.03.46-.23-.24-.15-1.92.13-2.34.17-.47.05-2.05.17-2.37.28zm-12.22.17c.16.2.85.1 1.11.1.72 0 3.37.07 3.65-.04v-.17c-.31-.09-3.43-.02-4.27-.03-.37-.01-.42-.07-.5.15zm13.02 5.17c.07.13-.14.18.57.09.8-.1 3.89-.36 4.17-.49l-.03-.19c-.37-.03-3.36.35-4.21.43-.48.04-.44.04-.5.16zM3.78 20.8c-.92 0-.96-.11-1.04.15.19.1-.21.04.23.1h.34c.79-.01 3.93.06 4.2-.04l-.01-.17c-.28-.09-3.01-.03-3.72-.03zm22.38-4.23c.09.23.09.17.44.13l3.85-.41c.38-.03.45.03.44-.23-.14-.09-4.53.32-4.73.51zm4.9.63c-.09-.21.15-.13-.27-.13 0 0-.3.04-.33.04l-3.05.32-.6.06c-.63.05-.47.02-.47.16.01.24.93.04 1.15.02l3.07-.32c.6-.05.44-.05.51-.15zM2.74 15.61c.04.08-.06.15.5.14h3.73c.7.01.54.03.54-.13 0-.19-.2-.13-.47-.12H2.97c-.4.06-.04-.03-.23.12zm23.75 3.01c.02.29.01.24.38.2l3.2-.35c.64-.07 1.05-.02 1.16-.24-.09-.13.1-.15-.57-.07-.77.1-3.92.38-4.16.46zm-.48-3.01c.2.15 3.44-.3 4.15-.36.61-.05.47-.02.59-.15-.1-.2.01-.11-.23-.14 0 0-.3.03-.33.03-.2.03-.39.05-.6.07-.4.04-.83.09-1.24.13l-1.88.2c-.34.03-.44-.03-.45.21zM2.74 16.69c.06.09-.01.13.5.12h4.07c.21-.04.13.03.21-.12-.04-.08.04-.14-.48-.14H3.31c-.58-.01-.46.03-.57.13zm10.89 3.18c.06.09 0 .12.5.12h3.73c.26 0 .53.07.54-.12 0-.23-.48-.13-1.08-.13h-3.46c-.25.05-.1.01-.23.14zm0-3.18c.05.09-.03.13.5.12h3.73c.26 0 .54.07.54-.12 0-.22-.5-.13-1.08-.13h-3.46c-.25.05-.1.01-.23.13zm-10.89 2.1c.04.08-.05.15.5.15h4.07c.22-.05.13.04.21-.14-.05-.09.02-.11-.48-.11H2.97c-.45.07-.07 0-.23.11zm10.89-3.18c.05.09-.03.15.5.14h4.07c.22-.04.13.04.21-.14-.08-.14.03-.06-.15-.1l-3.44-.01h-.61c-.56-.01-.43.01-.57.12zm0 3.18c.04.09-.03.15.5.15.21 0 .41-.01.61-.01h3.12c.59.01.49-.02.55-.15-.09-.14.02-.05-.15-.1l-4.05-.01c-.74-.01-.43.02-.57.11zM2.74 19.87c.09.14-.03.06.17.1l4.41.01c.19-.03.19.1.19-.12s-.32-.11-1.08-.13H2.97c-.25.05-.1.01-.23.14zM22.6 8.97c.39.09.61-.16.4-.34-.23-.2-.57-.04-.4.34z"/></g></g></svg>