<svg xmlns="http://www.w3.org/2000/svg" width="34.078" height="27.993" viewBox="0 0 176.59 145.06" shape-rendering="geometricPrecision" text-rendering="geometricPrecision" image-rendering="optimizeQuality" fill-rule="evenodd" clip-rule="evenodd"><defs><style>.fil0{fill:#000}</style></defs><g id="Layer_x0020_1"><g id="_2443813630048"><path class="fil0" d="M166.3 108.5c.4.52 2.66 1.92-.39 3.94 1.03 1.24.71 2.59-1.65-.42-1.27-1.62-1.22-3.48 2.04-3.53zM39.36 39.24l67.71.02-.31-5.54c-1.3-.41-31.72-.29-35.84-.32-11.98-.08-24.01-.19-35.99-.16-.9.69-1.93 4.87-2.36 6.1-.74 2.15-1.4 4.17-2.12 6.27L2.94 127.05c-.61 1.81-1.78 4.69-2.1 6.47h175.74c-.62-2.85-2.07-6.28-3.01-9.13-.97-2.91-1.93-5.79-2.92-8.64l-11.81-34.78c-1.96-5.72-4.12-11.59-5.88-17.26l-5.08 5.19c-1.03 1.16-1.77 1.19-1.2 3.26l5.33 20.57c1.22 4.91 7.8 29.03 8.45 32.89l-144.19-.01 23.08-86.36z"/><path class="fil0" d="M158.25 12.91l-1.13-.2c-.34.53-.12.9-.47 1.59-.47.92-.27.4-1.2 1.01.03-.01-.05-.76.46.37.37.83.15.15.27 1.11-1.86-.17-.52.17-1.71-1.01-.44 1.12-.97 2.13-2.88 1.54l-.22 2.13-.14 1.12c-2.76 1.36-24.15 17.32-28.23 20.73l-6.65 5.68c-.54.46-1.03.99-1.53 1.41-4.11 3.46-14.79 13.85-15.98 18.02l11.75 12.77c1.35 1.63 2.91 2.92 3.9 4.51 1.93-.51 13.84-11.14 16.25-12.98l10.32-9.15c.9-.84 1.6-1.65 2.48-2.45.92-.84 1.65-1.49 2.56-2.36l9.59-9.88c.4-.48.56-.77 1-1.23.6-.62.73-.67 1.19-1.27 5.63-7.31 8.94-9.73 14.13-20.13 1.6-3.21 5.02-12.7.95-14.59-4.79-2.22-11.11 4.7-13.54 5.15-.42-.5-.85-1.03-1.17-1.9zM.11 145.06l176.42-.03-.03-6.6-176.5.02zm83.38-38.77c2.06-.5 12.06-7.69 14.04-9.15l13.23-9.84c-2.39-3.04-5.33-5.45-7.67-8.01-1.32-1.44-2.43-2.69-3.78-4.11-.68-.71-1.37-1.19-2.05-1.89-.67-.69-1.14-1.48-1.95-1.95-4.53 5.39-8.97 10.93-12.77 16.97-1.09 1.74-6.32 10.55-4.99 12.8 1.01 1.7 4.19 4.11 5.94 5.17z"/><path class="fil0" d="M148.31 16.48c.57-.42-.81-.49.87-.35-.24-.2-.38-.33-.55-.6-.67-1.03-.36.2-.48-1.35 1.59-.01.7-.27 2.12 1.43.48.57.29.05.37.49-.17-1.61.66-2.2 2.11-2.34.49.92.18 1.55.12 2.74l1.28-1.17c-1.89-1.41-1.05-4.09 1.97-3.63-.23-2.05 1.1-3.16 2.95-2.17l2.78-1.38c.86-.42 1.97-.94 2.69-1.38-.54-1.27-1.54-1.16-.89-3.16.62-1.27 3.03-1.67 3.58.22.27.93-.05.89-.02 1.54.9-.11 2.4-.65 3.14-1.27 1.41-5.43-4.17-4.37-7.15-2.96-9.04 4.3-20.2 11.27-27.6 17.26l-5.18 4.42c-1.86 1.45-6.12 5.91-8.12 7.9l-2.92 3.48c-1.18 1.41-5.32 5.78-4.75 7.9 2.98.86 7.81-4.43 9.01-5.61 1.15-1.12 2.78-2.34 3.99-3.42l20.69-16.61zM49.2 48.74c11.43-.53 28.92.01 41.44-.02l13.76-.21.13-2.67-55.24-.09-.09 2.98zm-1.3 6.77v.74l.01 1.01h50.28v-2.91l-50.27-.07zm42.77 58.83l48.66-.05.04-2.9H90.6zM46.02 66.72l45.73.02.12-2.98-45.73.01zm-1.87 11.06l39.43.04.07-2.96H44.2zM41.58 88.1h34.8l-.06-2.97-34.71.01zm-2.56 12.84c5.16-.1 10.48-.07 15.63-.05 3.03.01 13.16.44 15.41-.1l-.01-2.83-30.98-.01-.04 2.99zm74.04-.02l29.15.01-.05-2.98-29.06.02zm-45.84 15.42c1.76-.67 5.16-2.99 7-4.06l6.71-4.03c-.53-.5-2.41-1.18-3.6-2.46-.83-.9-1.78-2.22-2.11-3.74l-9.48 12.37c.45 1.02.8 1.16 1.49 1.93zm-30.99-2.01l25.59.01.01-2.96-25.63.04zm88.24-26.24l18.04.02-.06-2.99-17.96.05z"/><path d="M148.31 16.48c1.07.15 1.39.53 1.9 1.15.42.52.82 1.43 1.16 1.82l.22-2.13c1.91.59 2.44-.42 2.88-1.54 1.19 1.18-.16.83 1.71 1.01-.13-.96.1-.28-.27-1.11-.51-1.13-.42-.37-.46-.37.93-.61.73-.09 1.2-1.01.35-.69.13-1.06.47-1.59l1.13.2c-.09-1.45.17-2.36.82-3.37-1.85-.99-3.18.11-2.95 2.17-3.02-.46-3.86 2.22-1.97 3.63l-1.28 1.17c.05-1.19.37-1.81-.12-2.74-1.45.14-2.28.73-2.11 2.34-.08-.45.11.08-.37-.49-1.43-1.7-.53-1.44-2.12-1.43.13 1.55-.19.32.48 1.35.18.27.31.4.55.6-1.68-.13-.31-.06-.87.35zm17.99 92.02c-3.25.05-3.31 1.9-2.04 3.53 2.36 3.01 2.68 1.65 1.65.42 3.05-2.03.79-3.42.39-3.94zM164.54 6.77c.89-.35 2.09-.71 2.68-1.41-.03-.64.29-.61.02-1.54-.55-1.89-2.97-1.48-3.58-.22-.65 2 .35 1.9.89 3.16z" fill="#2c2c2c"/></g></g></svg>