<svg xmlns="http://www.w3.org/2000/svg" width="97.012" height="35.383" viewBox="0 0 152.75 55.71" shape-rendering="geometricPrecision" text-rendering="geometricPrecision" image-rendering="optimizeQuality" fill-rule="evenodd" clip-rule="evenodd"><path d="M23.77 0h105.21c13.07 0 23.77 10.69 23.77 23.77v8.18c0 13.07-10.69 23.77-23.77 23.77H23.77C10.7 55.72 0 45.03 0 31.95v-8.18C0 10.7 10.69 0 23.77 0z" fill="#008dd2"/><path d="M26.76 38.35h-4.7v-8.17h-7.51v8.17H9.84V18.06h4.71v8.5h7.51v-8.5h4.7v20.29zm20.09-8.32c0 2.5-.79 4.56-2.38 6.18-1.58 1.62-3.65 2.43-6.21 2.44-2.57 0-4.66-.81-6.25-2.44-1.6-1.62-2.4-3.68-2.4-6.18v-3.65c0-2.49.79-4.55 2.39-6.17 1.59-1.63 3.67-2.44 6.24-2.44 2.54 0 4.62.81 6.22 2.44 1.6 1.62 2.4 3.68 2.4 6.17v3.65zm-4.7-3.68c0-1.45-.34-2.64-1.02-3.57-.68-.93-1.65-1.39-2.89-1.39-1.27 0-2.25.46-2.92 1.38-.67.92-1.01 2.12-1.01 3.58v3.68c0 1.47.34 2.66 1.02 3.6.68.93 1.67 1.39 2.93 1.39 1.24 0 2.19-.47 2.87-1.39.68-.93 1.01-2.13 1.01-3.6v-3.68zm7.57 12V18.06h6.64c2.52 0 4.48.47 5.89 1.4 1.41.93 2.11 2.33 2.11 4.17 0 .97-.22 1.83-.67 2.57-.44.75-1.14 1.31-2.09 1.69 1.21.26 2.1.8 2.68 1.62.58.81.87 1.76.87 2.83 0 1.98-.67 3.48-1.99 4.49-1.33 1.01-3.23 1.52-5.71 1.52h-7.73zm4.71-8.71v5.08h3.02c1 0 1.76-.2 2.25-.59.5-.4.76-1 .76-1.82 0-.86-.22-1.52-.67-1.96-.44-.44-1.17-.68-2.18-.71h-3.19zm0-3.12h1.85c1.13 0 1.98-.2 2.54-.59.56-.4.84-.98.84-1.76 0-.87-.27-1.49-.81-1.89-.54-.4-1.36-.59-2.48-.59h-1.94v4.84zm25.47-8.46h4.71v20.29H79.9V25.78l-.08-.01-7.43 12.59h-4.71V18.07h4.71v12.56l.09.01 7.42-12.57zm24.81 20.29h-4.7v-8.17H92.5v8.17h-4.71V18.06h4.71v8.5h7.51v-8.5h4.7v20.29zm9.25-8.14h-1.31v8.14h-4.71V18.06h4.71V26h.98l4.59-7.94h5.92l-6.38 9.23 6.93 11.06h-6.05l-4.67-8.14zm22.8 4.19h-6.03l-1.17 3.94h-4.96l6.62-20.29h2.53v.01l.01-.01h2.52l6.63 20.29h-4.96l-1.18-3.94zm-4.95-3.62h3.86l-1.9-6.3h-.08l-1.88 6.3z" fill="#fefefe" fill-rule="nonzero"/></svg>