<svg xmlns="http://www.w3.org/2000/svg" width="138.164" height="35.383" viewBox="0 0 299.69 76.75" shape-rendering="geometricPrecision" text-rendering="geometricPrecision" image-rendering="optimizeQuality" fill-rule="evenodd" clip-rule="evenodd"><path d="M32.74 0h234.21c18.01 0 32.74 14.73 32.74 32.74V44c0 18.01-14.73 32.74-32.74 32.74H32.74C14.73 76.74 0 62.01 0 44V32.74C0 14.73 14.73 0 32.74 0z" fill="#3e7a30"/><path d="M24.24 39.53v9.58h-6.49V21.16h10.67c3.32 0 5.94.85 7.89 2.54 1.95 1.69 2.92 3.91 2.92 6.66s-.97 4.97-2.92 6.65c-1.95 1.68-4.57 2.52-7.89 2.52h-4.19zm0-4.99h4.19c1.41 0 2.48-.39 3.22-1.16.74-.77 1.11-1.77 1.11-2.98 0-1.25-.37-2.26-1.11-3.05-.73-.79-1.81-1.19-3.23-1.19h-4.19v8.39zm29.79 9.14h-8.31l-1.61 5.43h-6.83l9.11-27.95h3.48v.02l.02-.02h3.47l9.13 27.95h-6.83l-1.63-5.43zm-6.82-4.99h5.32l-2.61-8.68h-.11l-2.59 8.68zm38.53 1l.04.12c.05 3.18-.84 5.6-2.7 7.25-1.85 1.64-4.47 2.46-7.86 2.47-3.46-.01-6.23-1.06-8.32-3.17-2.1-2.11-3.14-4.88-3.14-8.3v-5.83c0-3.41 1.01-6.17 3.02-8.28 2.02-2.12 4.69-3.18 7.99-3.18 3.54 0 6.29.83 8.23 2.48 1.94 1.65 2.88 4.05 2.83 7.2l-.06.12h-6.32c0-1.72-.36-2.94-1.09-3.68-.73-.75-1.93-1.11-3.59-1.11-1.46 0-2.58.58-3.36 1.76-.78 1.17-1.17 2.73-1.17 4.67v5.87c0 1.96.43 3.53 1.28 4.7.86 1.18 2.09 1.77 3.69 1.77 1.48 0 2.56-.37 3.22-1.11.66-.74.98-1.98.98-3.73h6.32zm26.94 9.43h-6.47V26.16H95.86v22.96h-6.49V21.17h23.31v27.95zm10.94-9.58v9.58h-6.49V21.17h10.67c3.32 0 5.94.85 7.89 2.54 1.95 1.69 2.92 3.91 2.92 6.66s-.97 4.97-2.92 6.65c-1.95 1.68-4.57 2.52-7.89 2.52h-4.19zm0-4.99h4.19c1.41 0 2.48-.39 3.22-1.16.74-.77 1.11-1.77 1.11-2.98 0-1.25-.37-2.26-1.11-3.05-.73-.79-1.81-1.19-3.23-1.19h-4.19v8.39zm41.81 3.11c0 3.44-1.09 6.28-3.28 8.51-2.18 2.23-5.03 3.35-8.55 3.35-3.54-.01-6.42-1.12-8.62-3.35-2.2-2.23-3.3-5.07-3.3-8.51v-5.03c0-3.43 1.09-6.26 3.29-8.5 2.19-2.24 5.06-3.36 8.59-3.36 3.51 0 6.36 1.12 8.56 3.36 2.2 2.23 3.3 5.07 3.3 8.5v5.03zm-6.47-5.06c0-2-.46-3.64-1.41-4.91-.94-1.28-2.27-1.92-3.98-1.92-1.75 0-3.09.64-4.02 1.91-.92 1.27-1.39 2.92-1.39 4.93v5.06c0 2.02.47 3.67 1.41 4.95.94 1.28 2.29 1.92 4.04 1.92 1.7 0 3.02-.64 3.96-1.92.93-1.28 1.4-2.93 1.4-4.95v-5.06zM194.32 56h-6.49v-6.87h-14.95V56h-6.45V44.13h1.4c1.34 0 2.29-.88 2.85-2.64.56-1.76.91-4.72 1.07-8.88l.64-11.44h18.9v22.96h3.03V56zm-16.09-23.39c-.11 2.51-.38 4.72-.81 6.64-.42 1.92-.98 3.54-1.69 4.87h9.08V26.15h-6.24l-.35 6.45zm32.5 11.08h-8.31l-1.61 5.43h-6.83l9.11-27.95h3.48v.02l.02-.02h3.47l9.13 27.95h-6.83l-1.63-5.43zm-6.82-4.99h5.32l-2.61-8.68h-.11l-2.59 8.68zm39.33-.67h-2.09v11.09h-6.49V38.03h-2.18l-5.52 11.09h-8.07l8.47-15.22-8.2-12.73h8.18l5.82 11.06h1.5V21.17h6.49v11.06h1.46l5.61-11.06h8.14l-8.01 12.67 8.32 15.28h-8.08l-5.34-11.09zm30.21 5.66h-8.31l-1.61 5.43h-6.83l9.11-27.95h3.48v.02l.02-.02h3.47l9.13 27.95h-6.83l-1.63-5.43zm-6.81-4.99h5.32l-2.62-8.68h-.11l-2.59 8.68z" fill="#fefefe" fill-rule="nonzero"/></svg>