<svg xmlns="http://www.w3.org/2000/svg" width="83.745" height="35.382" viewBox="0 0 113.71 48.04" shape-rendering="geometricPrecision" text-rendering="geometricPrecision" image-rendering="optimizeQuality" fill-rule="evenodd" clip-rule="evenodd"><path d="M20.5 0h72.72c11.27 0 20.5 9.22 20.5 20.5v7.05c0 11.27-9.22 20.5-20.5 20.5H20.5C9.23 48.05 0 38.83 0 27.55V20.5C0 9.23 9.22 0 20.5 0z" fill="#6e2b85"/><path d="M24.33 28.15h-5.45l-1.06 3.56h-4.48l5.98-18.34h2.28v.01l.01-.01h2.28l5.99 18.34H25.4l-1.07-3.56zm-4.47-3.28h3.49l-1.72-5.69h-.07l-1.7 5.69zm16.78-.52h-1.18v7.36H31.2V13.37h4.26v7.18h.88l4.14-7.18h5.35l-5.77 8.34 6.26 10h-5.46l-4.22-7.36zm10.83-10.98h4.24v15.06h6.79V13.37h4.26v15.09h2.47v7.77h-4.25v-4.52H47.47V13.37zm30.78 0h4.26v18.34h-4.26V20.35l-.07-.01-6.72 11.38H67.2V13.38h4.26v11.35l.08.01 6.71-11.36zm9.42 18.34h-4.62l3.82-8.16c-.85-.52-1.49-1.16-1.92-1.93-.43-.78-.64-1.67-.64-2.69 0-1.76.61-3.13 1.83-4.1 1.22-.97 2.9-1.46 5.04-1.46h6.59v18.34h-4.26v-6.76h-2.66l-3.19 6.76zm5.84-15.06h-2.33c-.86 0-1.52.22-1.96.65-.44.44-.66 1.06-.66 1.88 0 .81.23 1.47.68 1.98.46.5 1.1.76 1.94.76h2.33v-5.27z" fill="#fefefe" fill-rule="nonzero"/></svg>