<svg xmlns="http://www.w3.org/2000/svg" width="78.955" height="78.921" viewBox="0 0 1528.53 1527.89" shape-rendering="geometricPrecision" text-rendering="geometricPrecision" image-rendering="optimizeQuality" fill-rule="evenodd" clip-rule="evenodd"><path d="M697.55 593.33c-20.52 0-26.54-15.17-32.27-24.2-11.09-17.39-26.11-45.93-37.6-65.06l-13.56-23.49c-14.25-23.07-29.98-53.52-44.37-76.83-9.83-15.87-20.8-37.01-30.52-52.93-6.89-11.28-7.81-24.18-.94-35.45 4.95-8.14 12.61-11.23 20.82-16.27 13.63-8.4 32.5-18.57 47.03-27.2 6.09-3.61 17.5-11.23 25.85-11.23 9.6 0 15.9.92 24.37 8.11 3.49 2.93 7.92 11.04 10.42 15.4l9.6 16.89c1.75 3.04 3.52 5.55 4.91 8.36 5.12 10.32 18.7 31.18 23.75 41.14l86.26 149.47c2.69 4.51 7.38 12.53 7.38 18.31 0 15.31-5 23.19-15.73 30.4-4.34 2.9-9.29 5.26-13.8 8.09l-40.79 23.44c-9.05 5.55-20.52 13.05-30.83 13.05zm-295.89-94.21c0-9.23 1.58-20.29 3.66-29.44 1.81-8.02 4.38-17.29 7.66-24.64 1.02-2.31 1.82-3.92 2.69-5.95 6.01-14.22 20.26-31.37 31.54-41.28 16.27-14.3 28.35-22.9 47.25-34.23l20.31-11.86c1.41 2.14 3.46 5.61 4.62 7.69 7.15 13.09 20.33 33.94 26.44 45.73 1.51 2.88 2.55 4.77 4.32 7.62 10.83 17.38 20.26 35.59 30.69 53.38l13.38 23.07c1.62 2.69 2.78 4.79 4.32 7.6l48.38 83.47c2.33 3.91 7.45 11.11 8.16 15.55-8.09 3.75-19.18 14.81-24.18 21.39-6.42 8.49-11.87 19.72-14.9 30.8-13.73 49.89-.15 104.33 18.23 151.57 10.12 26.16 23.38 52.06 38.57 75.37l13.47 20.22c1.25 2.03 3.47 4.79 4.76 6.53l7.71 9.5c1.27 1.6 1.06 1.7 2.12 3.16 10.97 14.81 31.4 33.97 45.27 45.48 2.07 1.75 4.69 3.31 6.91 5.03 6.44 4.95 13.38 8.91 20.36 13.44 7.6 4.95 21.66 10.5 31.63 13.47 17.5 5.24 40.55 5.12 58.71-1.39 6.18-2.22 11.16-5.4 15.31-6.98 2.81 2.28 15.03 25.54 17.98 30.17 1.98 3.07 2.8 5.17 4.55 8.04l30.9 53.22c1.56 2.9 2.64 4.9 4.3 7.62l13.13 22.62c6.42 10.87 11.6 20.47 17.69 30.69 5.8 9.81 11.35 20.69 17.34 30.26 1.86 2.99 2.92 4.79 4.79 7.92l12.97 22.71c3.75 7.1 15.21 24.37 17.31 30.29-3.84 2.59-7.92 4.36-11.82 6.65-18.8 11.06-42.2 22.48-62.82 28.02-6.86 1.82-22.83 5.74-30.57 5.74-19.51 0-30.99-.07-50.69-6.23-18.38-5.78-35.9-15.05-51.99-25.52l-22.95-15.48c-8.23-5.05-35.99-28.21-42.86-34.63l-15.7-14.08c-1.89-1.75-3.1-2.57-4.91-4.39-6.79-6.79-33.17-31.98-38.12-39.37-1.72-2.52-6.93-7.65-9.18-10.02-12.61-13.26-24.1-27.83-35.55-41.96l-6.5-8.04c-.76-1.02-.9-1.51-1.82-2.81l-16.98-22.1c-2.88-3.72-5.3-6.93-8.23-10.99-1.41-1.95-2.41-3.7-3.99-5.9-1.49-1.95-2.64-3.3-4.03-5.28l-7.76-11.44c-5.17-7.48-10.97-15.01-15.53-22.86l-11.49-17.67c-9.08-13.09-17.33-28.73-25.68-41.91l-10.85-18.92c-6.25-10.16-10.68-20.63-16.84-30.85l-6.91-12.95c-5.29-10.4-11.42-21.75-15.95-32.41l-15-32.65c-8.23-17.77-16.13-36.07-22.67-54.8-1.53-4.38-3.47-8.91-5.36-13.87-2.07-5.45-3.18-8.99-5.05-14.3-6.7-19.22-12.67-38.47-18.37-58.92-8-28.61-21.49-91.16-21.61-123.46-.02-3.07-.56-6.44-.56-8.63V499.1zM894.91 958.7c0-11.3 6.53-21.82 16.06-27.62 17.29-10.49 37.01-20.92 54.61-31.46 8.59-5.14 20.55-12.97 30.01-12.97 7.27 0 15.85 3.35 20.28 6.79 7.34 5.71 11.28 15.45 16.18 23.57L1056.3 959c1.51 2.95 3.29 5.26 4.93 8.3l77.39 134.47c1.68 2.99 3.28 5.28 5.05 8.28 4.86 8.2 16.68 27.5 16.68 35.47 0 13-4.95 23.36-16.27 29.93l-39.94 22.98c-1.93 1.16-4.36 2.8-6.6 3.99-2.6 1.3-3.75 1.91-6.37 3.53-6.32 3.91-21.44 13.35-28.66 13.35-9.5 0-17.5-.9-24.72-8.09-5.07-5.05-16.46-24.5-20.59-32.34l-33.59-58.43c-1.75-2.9-3.54-5.59-4.91-8.37l-9.45-16.37c-12.43-21.89-26-45.15-38.52-66.76-6.48-11.13-12.57-22.15-19.43-33.61-5.82-9.7-16.37-25.85-16.37-36.64zM742.63-.01l55.62.66c4.49-.07 9.15-.16 13.02.15 36.01 3.49 67.2 6.91 102.88 13.87 6.59.73 11.96 2.1 17.44 3.42 26.58 6.02 53.3 14.16 79.28 22.49 5.47 1.62 11.15 3.34 17.99 6.46 21.89 9.08 44.21 17.71 65.67 27.69 7.46 3.47 16.42 7.57 21.82 11.06 28.14 16.7 57.81 32.62 84.73 51.07 5.23 3.35 10.57 6.84 15.4 11.22 42.95 33.36 72.75 60.18 110.7 99.5l19.48 21.75c6.84 7.17 16.87 20.45 23.38 29.09l10.57 13.96c3.35 3.89 5.52 7.34 7.74 10.76 17.1 26.49 40.12 59 53.38 87.78 1.43 2 2.88 4.2 4.48 8.11.8 3.18 4.25 9.83 5.95 12.59 2.17 3.7 3.84 7.1 5.17 10.21 7.9 19.6 15.89 37.74 23.73 57.72 2.28 5.25 5.61 14.88 8.94 25.28 4.76 14.82 9.78 31.89 11.7 39.16 1.76 6.65 4.98 18.97 7.43 29.77 1.7 7.46 3.2 14.77 3.91 19.91 5.5 27.78 8.59 53.66 12.08 81.75 2.17 26.52 5.14 71.33 2.14 94.87-.29 2.08-.23 5.3-.19 8.5.07 4.38.15 8.87-.14 12.67l-2.08 21.72c-3.35 28.16-6.27 53.12-11.8 81.21-.73 6.61-2.05 11.89-3.34 17.22-4.87 21.39-10.54 41.26-16.77 62.3l-7.67 23c-1.42 4.27-2.88 8.71-4.72 12.74l-10.83 28.02c-1.24 3.59-3.72 8.73-5.96 13.4l-5.5 12.78-12.5 26.14c-1.25 3.14-2.66 5.24-3.96 7.24-32.22 64.44-79.97 127.07-129.9 179.76-6.61 7.22-13.38 14.65-21.18 20.74-19.27 17.48-36.47 31.73-55.62 48.19-3.84 3.51-7.21 5.88-10.49 8.19-32.36 23.68-73.24 52.2-108.65 68.28l.33-.02c-1.7 1.13-3.26 2.31-6.96 3.94-18.49 7.78-37.1 16.72-55.48 25.02-4.17 2.03-7.79 3.4-11.3 4.72-4.18 1.65-8.85 3.65-13.16 4.79-5.05 2.36-9.03 3.68-12.97 4.95-25.52 8.75-50.71 15.8-76.78 22.32-9.27 2.26-18.78 4.36-25.43 5.23-12.95 2.71-25.81 4.7-38.9 6.89l-43.05 5.28c-35.48 2.88-67.58 2.62-103.27 1.93-4.41.07-8.91.14-12.74-.14-21.34-4.27-60.43-6.96-85.88-10.45l-6.42-1.4c-3.7-.82-7.5-1.67-10.64-2.03-6.6-.73-11.84-2.05-17.14-3.35-28.54-6.53-57.72-14.85-85.35-24.43-4.41-1.46-9.01-3-13.13-4.93-19.98-8.23-40.03-16.06-59.68-24.86-2.27-1.01-4.62-2.05-7.43-3.75l-.35-.19c-6.44-2.39-11.58-5.31-15.97-7.81l-46.13-26c-4.84-2.47-18.14-10.9-30.38-19.03-11.75-7.76-23.3-15.88-26.85-19.08-21.94-16.23-64.02-52.75-63.94-52.7l-2.2-1.65c-3.4-2.83-11.63-10.61-19.2-18.07-5.9-5.8-11.72-11.8-14.86-15.48-12.76-14.08-26.35-28.26-37.95-43.28-3.54-4.58-7.46-9.67-10-12.34-3.49-3.66-6.3-7.6-9.04-11.49-14.69-20.19-30.33-47.58-44.91-66.4-2.92-4.05-4.95-7.81-6.91-11.47-2.58-7.73-12.45-21.46-16.11-29.79-1.32-1.84-2.78-3.89-4.55-8.19-1.72-4.2-3.59-8.87-6.04-12.62-2.74-4.62-5.41-10.82-7.86-16.46-6.25-14.27-11.99-28.59-17.93-43.05-2.88-6.79-7.19-18.87-11.06-30.73-4.13-12.62-8.21-26.21-10-33.64-9.72-31.35-15.38-64.6-20.82-96.99-1.09-6.53-1.51-10.62-1.81-14.41l-3.47-28.61-1.82-22.24C.09 783.09-.24 756.9.3 729.54c-.07-4.53-.14-9.18.17-13.05 2.69-27.97 5.45-63.48 11.49-90.93.97-4.03 1.91-8.17 2.33-12.01.71-6.15 2-11.04 3.28-15.88 5.07-20.49 10.76-40.95 16.16-61.4 11.37-34.49 33.05-76.28 42.15-105.91.66-2.25 1.2-3.91 3.09-7.2l1.65-3.18c1.41-2.74 2.85-5.61 4.79-8.56 4.51-12.76 19.39-34.35 27.34-48.59l23.42-35.8c4.41-6.49 8.96-12.95 11.58-15.8 1.89-2.06 3.94-4.98 5.94-7.84 2.81-3.98 5.64-7.99 9.08-11.86l3.68-4.65c3.26-4.43 7.34-9.13 10.87-13.24l24.79-28.54c2.81-3.42 10.57-11.63 18-19.16 6.75-6.86 13.63-13.54 16.77-15.97l3.78-3.61c3.99-4.05 13.57-12.61 23.07-20.78 9.08-7.79 18.42-15.59 23.19-19.1l4.38-3.49c3.82-3.66 7.62-6.34 11.37-8.99l8.75-6.44c4.08-3.52 7.76-5.83 11.18-7.98 15.15-9.13 32.25-20.24 46.63-30.57 2.6-1.84 12.79-7.81 22.24-13.05 12.6-6.62 25.69-14.65 38.8-19.86 12.88-8.66 51.8-22.22 68.36-29.2 3.34-1.51 6.18-2.45 8.8-3.26l9.2-3.32c5.28-2 11.28-3.75 17.2-5.5 20.12-6.14 38.99-11.16 59.49-16.26 7.47-1.7 14.79-3.23 20-3.94 27.56-5.66 53.81-8.58 81.76-12.07 8.82-.71 39.75-1.23 47.55-2.6zm41.47 47.17c-21.47 0-42.81-.18-64.26.57l-19.81 1.65c-20.03 2.5-39.68 4.84-59.66 7.74l-6.94 1.51c-4.32.97-8.61 1.96-13.84 2.62l-15.76 3.26-28.21 7-28.54 8.47c-4.57 1.3-9.1 2.64-13.84 4.43-26.77 10.12-52.13 20.9-78.83 32.14-1.18.71-1.91 1.32-5.19 2.74l-4.36 1.63-30.64 16.25c-24.67 14.17-47.67 29.96-71.52 45.55-2.2 2.03-4.13 3.47-6.42 5.05l-12.53 9.34c-2.81 2.67-5.9 5-8.73 7.1-4.08 3.01-12.43 9.97-20.64 17.06-8.68 7.47-16.98 14.85-20 17.9l-.83.85c-2.57 2.64-4.49 4.62-8.02 7.29l-11.89 11.63c-6.3 6.39-12.97 13.42-15.45 16.39-10.21 9.56-24.94 28.35-34.49 40.19-1.37 1.98-2.79 3.92-5.8 7.3l-5.74 7.66c-2.85 4.08-5.73 8.19-9.62 12.45l-7.52 10.48c-18.48 28.14-29.39 46.84-46.28 76.4-1 2.55-1.75 4.08-3.94 7.27-15.33 22.29-36.47 85.41-45.57 111.29-5.11 19.29-9.93 42.53-16.09 61.02-.85 3.21-1.7 6.4-2.07 9.6-.61 5.45-1.91 11.09-3.12 16.51l-5.47 33.12c-1.03 17.1-3.47 34.51-5.05 51.66l-.16 8.33c.07 4.98.16 9.86-.45 14.84v41.44c.45 4.67.45 9.53.42 14.39l.14 8.52L49 827.69l4.91 40.24 6.72 38.36c4.32 18.78 7.97 37.18 13.49 55.53 1.2 5.44 4.92 17.59 8.96 29.9 3.75 11.51 7.6 22.39 9.6 27.06 6.3 12.62 11.91 28.82 17.71 42.53 1.72 4.06 3.63 8.5 5.28 11.28l3.18 5.76 5.47 12.01c1.13 1.55 2.33 3.28 3.75 6.39 6.2 11.49 12.24 23.03 18.78 34.32.99 1.08 1.74 2.03 3.65 5.4 13.57 21.04 26.73 40.4 41.3 61.12 1.62 2.36 3.2 4.6 4.91 6.39 4.46 4.67 9.15 10.81 13.3 16.23 13.61 17.71 33.09 38.28 48.47 53.85 26.89 25.26 55.06 48.07 83.98 71.14 1.84 1.6 11.16 7.97 21.23 14.64 11.14 7.41 22.57 14.72 25.95 16.44l40.01 22.84 7.87 4.1c2.64 1.56 5.83 3.37 8.94 4.43 4.06 1.46 5.61 2.5 7.74 3.84 33.75 20.08 102.91 40.36 142.59 50.58l10.57 2.31c3.66.92 7.36 1.84 11.06 2.26 5.38.59 10.47 1.75 15.45 2.83 27.31 5.78 58.38 8.26 85.84 10.9l8.3.09c4.89-.07 9.65-.14 14.58.4 20.78.88 43.8.21 64.87-.49l19.81-1.65 40.27-4.88c6.6-1.11 33.16-7.05 40.26-7.05 3.71-.48 12.22-2.41 21.02-4.49 27.1-6.72 54.39-14.44 80.62-24.01 3.35-1.55 5.55-2.28 7.62-2.9 24.08-7.86 50.33-22.1 73.43-32.27.35-.17-.14.04-.45.14 1.79-1.22 3.72-2.47 6.72-3.82 74.49-40.57 104.11-66.19 164.74-118.58 5.11-3.94 10.52-9.86 15.73-15.56l9.41-10.1c54.97-61.76 61.24-76.95 112.24-157.68 1.25-2.71 2.45-4.51 3.63-6.28 15.36-23.42 36.54-83.74 45.43-111.15l8.02-27.31 5.78-22.24 2.22-10.05c.92-3.7 1.84-7.43 2.27-11.23.68-6.15 1.81-11.01 2.88-15.87l1.27-5.9 4.46-28 .73-10.59 2.45-20.52 1.89-20.49.15-8.14c-.07-4.83-.15-9.62.37-14.41 1.46-19.13.29-44.91-.47-65.11l-1.68-19.84c-2.58-20.55-4.93-40.4-8-60.86l-1.46-6.86c-.89-4.24-1.81-8.14-2.41-12.72l-3.23-15.66-7.03-28.31c-1.72-6.67-6.44-22.64-10.95-36.75-2.95-9.37-5.8-17.62-7.33-20.9-6.51-14.63-17.88-49.49-26.37-63.08-.9-1.2-1.75-2.5-2.93-5.23-.71-1.51-5.61-11.51-5.71-12.5-1.37-1.89-2.81-3.96-4.46-8.09-3.94-9.77-13.09-23.47-18.59-33.12-16.37-23.44-29.3-47.34-47.36-69.51-5.69-7.64-14.49-19.32-19.91-25.02-14.55-18.37-37.46-40.36-52.86-56.33l-34.6-30.93-40.34-31.6c-2.29-2.08-5.82-4.39-9.29-6.63l-7.76-5.24-77.37-46.02c-1.84-1.3-9.34-4.74-15.45-7.55l-65.01-27.45c-3.3-1.54-7.99-2.95-12.48-4.3l-10.24-3.3-57.56-16.51-9.18-2.1c-3.78-.94-7.52-1.87-11.63-2.33l-49.94-8.59-10.45-.75-20.9-2.47-20.14-1.87-8.21-.14c-5.05.07-10.02.16-15.1-.48zm613.74 380.69l-.12-.26.12.26zm53.21 1.98l-.14-.36.14.36zm-9.29 687.35l-.19.38.19-.38zm-.02-.02l.12-.29-.12.29zm-335.16 330.21l.38-.19-.38.19zm-827.53-154.48l.52.49-.52-.49zM431.33 75.84l.48-.12-.48.12zm-.29.12l-.59.24.59-.24z" fill="#7a2d80"/></svg>