<svg xmlns="http://www.w3.org/2000/svg" width="57.42" height="53.755" viewBox="0 0 752.1 704.1" shape-rendering="geometricPrecision" text-rendering="geometricPrecision" image-rendering="optimizeQuality" fill-rule="evenodd" clip-rule="evenodd"><path d="M362.12 274.69h115.29v76.6H362.12v-76.6zm277.78 76.6H518.42v-76.6h132.31c-.8 1.68-10.83 71.04-10.83 76.6zm-434.08-76.6h115.3v76.6H218.98c-2.37-10.16-11.77-73.73-13.15-76.6zm156.3-116.84h115.29v76.6H362.12v-76.6zm294.03 76.6H518.42v-76.6h148.56l-10.84 76.6zm-469.67-76.6h134.64v76.6H199.63c-3.21-13.76-7.16-41.44-9.84-57.48-.62-3.7-2.4-17.06-3.32-19.12zM0 38.69c0 20.95 12.03 33.94 28.51 38.8 12.71 3.75 47.48 2.21 65.11 2.21.38 4.55 1.71 10.29 2.54 15.26.8 4.76 1.87 11.15 2.66 15.91l65 389.2c1.56 9.49 3.33 20.38 7.98 28.39 7.11 12.25 20.35 19.36 36.35 19.36H631.4c56.01 0 57.45-78.92-1.54-78.92H238.33c-.06-2.84-1.01-6.82-1.44-9.4l-3.1-18.57c-.54-3.29-1.4-6.91-1.65-9.95h416.28c19.39 0 33 1.11 45.63-6.21 11.49-6.66 16.78-16.88 19.38-32.47 4.46-26.76 9.29-63.8 13.1-91.36 1.03-7.43 25.57-175.39 25.57-182.56 0-21.24-17.57-39.46-38.69-39.46H173.33c0-5.14-2.1-13.48-2.89-18.01C164.98 29.52 163.88.72 123.81.77L66.55 0c-5.8-.01-9.09.75-13.9.8-19.9.25-31.61-1.29-45.03 15.32C3.87 20.76.01 30.41.01 38.69zm205.04 601.99c0 12.29.16 19.22 5.92 30.45 1.64 3.19 3.25 5.82 5.35 8.58 24.33 32.14 70.38 32.61 94.53.21 14.15-18.98 15.45-45.88 2.39-66.19-9.63-14.98-27.65-27.22-45.51-27.22-12.35 0-17.98-.11-29.78 5.81-17.44 8.74-32.9 29-32.9 48.36zm351.3.78c0 20.67 4.64 32.03 18.37 45.85 15.61 15.69 42.49 22.32 64.43 11.43 39.56-19.65 44.48-67.07 18.77-93.85-7.81-8.13-23.45-18.36-38.9-18.36-19.22 0-32.6 4.28-45.08 16.83-9.02 9.07-17.59 24.06-17.59 38.11z" fill="#2b2a29"/></svg>