<svg xmlns="http://www.w3.org/2000/svg" width="69.411" height="35.382" viewBox="0 0 78.34 39.93" shape-rendering="geometricPrecision" text-rendering="geometricPrecision" image-rendering="optimizeQuality" fill-rule="evenodd" clip-rule="evenodd"><path d="M17.04 0H61.3c9.37 0 17.04 7.67 17.04 17.04v5.86c0 9.37-7.67 17.04-17.04 17.04H17.04C7.67 39.94 0 32.27 0 22.9v-5.86C0 7.67 7.67 0 17.04 0z" fill="#e00919"/><path d="M15.7 23.35H7.49v-3.83h8.21v3.83zm10.16-5.46c.85 0 1.5-.24 1.96-.72.45-.48.68-1.15.68-2 0-.67-.23-1.23-.69-1.69-.47-.47-1.09-.7-1.88-.7-.6 0-1.1.18-1.51.55-.41.37-.62.85-.62 1.45h-4.57l-.03-.09c-.06-1.7.58-3.08 1.9-4.14 1.32-1.06 2.94-1.58 4.83-1.58 2.2 0 3.97.53 5.29 1.59 1.32 1.06 1.98 2.56 1.98 4.51 0 .97-.28 1.86-.83 2.67-.56.81-1.32 1.45-2.28 1.92 1.1.42 1.94 1.05 2.54 1.9.6.85.9 1.87.9 3.09 0 1.95-.71 3.49-2.14 4.61-1.43 1.12-3.25 1.68-5.46 1.68-1.91 0-3.58-.53-4.99-1.58-1.41-1.05-2.09-2.58-2.05-4.57l.02-.09h4.59c0 .7.23 1.27.69 1.73.46.46 1.04.69 1.74.69.85 0 1.54-.25 2.08-.74.54-.5.82-1.11.82-1.84 0-1.04-.26-1.79-.78-2.26-.52-.48-1.24-.72-2.18-.72h-2.23v-3.68h2.23zm23.82 4.9c0 2.55-.65 4.55-1.94 5.99-1.29 1.44-2.99 2.16-5.12 2.17-2.14 0-3.85-.73-5.15-2.17-1.29-1.44-1.94-3.44-1.94-5.99v-5.66c0-2.55.64-4.55 1.92-5.99 1.29-1.44 2.99-2.16 5.13-2.16 2.12 0 3.83.72 5.14 2.17 1.3 1.45 1.95 3.44 1.95 5.99v5.66zm-4.7-6c0-1.3-.21-2.29-.63-2.97-.42-.69-1-1.03-1.75-1.03s-1.33.34-1.74 1.03c-.41.68-.61 1.68-.61 2.97v6.31c0 1.33.21 2.33.62 3.01.41.68 1 1.02 1.76 1.02.75 0 1.32-.34 1.74-1.02.41-.68.62-1.68.62-3.01v-6.31zm7.17-3.4c0-1.27.39-2.33 1.17-3.16.78-.84 1.89-1.25 3.33-1.25 1.46 0 2.58.42 3.36 1.25.78.84 1.17 1.89 1.17 3.16v1.13c0 1.27-.39 2.32-1.17 3.15-.78.83-1.89 1.24-3.33 1.24-1.45 0-2.57-.42-3.36-1.25-.79-.83-1.18-1.88-1.18-3.14v-1.13zm3.01 1.13c0 .49.13.9.39 1.23.26.33.64.49 1.13.49.47 0 .84-.17 1.09-.49.25-.33.38-.74.38-1.23v-1.13c0-.49-.13-.91-.39-1.24-.26-.34-.63-.51-1.11-.51-.48 0-.84.17-1.1.51-.26.34-.39.75-.39 1.24v1.13zm6.63 10.89c0-1.26.39-2.31 1.18-3.14.79-.84 1.9-1.26 3.35-1.26 1.46 0 2.58.42 3.36 1.25.78.83 1.16 1.88 1.16 3.15v1.13c0 1.28-.39 2.33-1.16 3.16-.78.83-1.88 1.24-3.33 1.24-1.45 0-2.58-.42-3.37-1.25-.79-.83-1.19-1.88-1.19-3.15v-1.13zm3.03 1.13c0 .47.15.87.45 1.22.3.34.66.51 1.09.51.58 0 .97-.15 1.17-.45.2-.31.31-.73.31-1.28v-1.13c0-.48-.13-.89-.4-1.23-.27-.34-.63-.51-1.11-.51-.48 0-.85.17-1.11.51-.26.34-.39.75-.39 1.23v1.13zm-7.49 2.51l-2.19-1.16 9.91-16.69 2.19 1.16-9.91 16.69z" fill="#fefefe" fill-rule="nonzero"/></svg>