<svg xmlns="http://www.w3.org/2000/svg" width="44.767" height="29.773" viewBox="0 0 45.84 30.49" shape-rendering="geometricPrecision" text-rendering="geometricPrecision" image-rendering="optimizeQuality" fill-rule="evenodd" clip-rule="evenodd"><defs><style>.fil0{fill:#000}</style></defs><g id="Layer_x0020_1"><g id="_2407452655024"><path class="fil0" d="M11.64 13.33c-.33.04-5.21 2.33-6.08 2.7-1.64.7-4.34 1.52-2.18 2.78 1.42.83 2.77 1.57 4.34 2.25 6.05 2.6 11.35 3.59 17.99 3.99.7.04 1.4.05 2.12.06 1.01.02.99-.06 1.75-.44 4.27-2.12 9.16-4.24 13.39-6.39.42-.21 1.04-.42 1.42-.71-.38-.16-1.08-.06-1.55-.07-.61-.01-.78.09-1.23.3l-6.33 2.9c-1.42.63-2.8 1.24-4.23 1.93-2.6 1.24-2.04 1.22-4.74.64-3.3-.72-6.15-2.26-8.4-3.89-.91-.66-2.58-2-3.34-2.82-.51-.55-1.01-1.03-1.51-1.57-.53-.57-.91-1.11-1.42-1.66z"/><path class="fil0" d="M42.04 14.65c-.31.26-1.8.85-2.25 1.06-1.38.63-10.84 5-11.08 5-1.13.02-3.92-.99-5.02-1.42-1.5-.58-3.99-2.05-5.13-3l-2.58-2.25c-1.97-1.86-4.3-4.95-5.63-7.26-.62-1.07-1.28-1.75-.37-1.99l7.78-1.88c1.76-.42 3.46-.86 5.2-1.25 1.23-.28 1.52.19 1.96 1.03.38.73.79 1.34 1.21 2.01l1.4 1.89c1.13 1.28 1.9 2.04 3.29 3.16.55.44 1.19.87 1.9 1.32 1.19.76 2.86 1.61 4.3 2.14.78.29 1.61.58 2.42.8.49.13 2.36.49 2.6.64zm3.8-.72v.48c-.45.46-.07.3-1.14.78l-14.13 6.44c-1.37.62-1.23.79-2.96.47-1.03-.19-2.02-.46-2.95-.77-7.07-2.34-12.64-8.47-15.85-14.11-.41-.71-1.21-1.75-.68-2.84.48-.97 1.22-1.06 2.39-1.34 2.01-.47 4-.98 6.01-1.46 2.04-.49 4.04-.94 6.03-1.44 1.35-.34 1.99-.12 2.87.56 1.13.87 4.33 11.11 19.13 12.64 1.03.11.79 0 1.28.57z"/><path class="fil0" d="M28.34 28.23c.46 0 7.34-3.17 8.36-3.6.89-.38 7.95-3.43 8.19-3.66-1.18-.05-2.49-.02-3.67-.01-.67.01-1.92.77-2.53 1.05-3.24 1.46-6.57 3.27-9.71 4.64-.62.27-5.72-.14-6.73-.24-3.14-.31-7.44-1.1-10.46-2.15-.48-.17-.87-.4-1.37-.21-1.73.66-3.36 1.4-5.12 2.07L.35 28.13c-.17.09-.08.04-.15.1l28.14.01zM0 30.49l28.48-.02.01-1.63H0zm28.92-.02c.55-.18 1.45-.63 2.03-.91l12.1-5.47c.6-.27 1.32-.65 2-.88l-.01-1.67-16.13 7.28.01 1.65z"/></g></g></svg>