<svg xmlns="http://www.w3.org/2000/svg" width="32.099" height="41.766" viewBox="0 0 31.6 41.12" shape-rendering="geometricPrecision" text-rendering="geometricPrecision" image-rendering="optimizeQuality" fill-rule="evenodd" clip-rule="evenodd"><defs><style>.fil0{fill:#2b2a29}</style></defs><g id="Layer_x0020_1"><g id="_2407427993760"><path class="fil0" d="M14.92 32.76c1.34-.32 2.45.58 2.7 1.58.32 1.29-.61 2.35-1.63 2.59-2.85.66-4.02-3.46-1.06-4.17zm6.41-4.58c1.7-.31 3.02.89 3.25 2.18.29 1.6-.9 2.89-2.24 3.13-1.73.31-3.08-.87-3.32-2.22-.28-1.65.93-2.84 2.3-3.09zm3.3-7.37c1.95-.29 3.48 1.05 3.73 2.62.3 1.89-1.11 3.36-2.74 3.61-1.94.29-3.51-1.07-3.74-2.62-.29-1.9 1.1-3.35 2.75-3.6zm-1.96-6.8c1.55-.38 2.82.64 3.12 1.82.38 1.48-.68 2.67-1.82 2.98-3.33.89-4.71-3.96-1.3-4.8zm-.66-2.99c-.17.5-2.29 3.72-2.6 4.21-.93 1.44-3.14 4.56-4.24 6-.51.66-.92 1.28-1.42 1.95-2.82 3.79-2.05 2.23-1.66 4.28.39 2.03-.21 3.99-1.27 5.23-.95 1.11-2.51 1.95-2.98 3.83-.49 1.99 1.14 3.54 2.48 4.1 1.95.8 3.92.5 5.96.04 6.83-1.55 12.72-6.71 14.61-12.75 1.2-3.83.91-7.88-1.02-11.03-.32-.52-1.05-1.57-1.46-1.98l-1.32-1.26c-.89-.75-3.71-2.48-5.08-2.63zM.34 36.55c.29-1.31 6.08-10.21 6.86-11.36 1-1.47 6.66-9.38 7.71-10.55l.38.24-1.95 2.61c-3.58 4.84-6.04 8.39-9.45 13.47-1.12 1.68-2.55 4.17-3.55 5.59zm14.26-22.1c-.09.12-.18.23-.26.35l-3.59 4.83c-2.57 3.39-5.6 7.93-7.77 11.5-.6.99-1.19 1.99-1.76 3.02-.3.55-.56 1-.86 1.56-.25.46-.72 1.31.14 1.48.57.11 1.12-.74 1.39-1.01l4.02-4.43c1.25-1.55 2.42-2.87 3.78-4.59.53-.67 7.63-10.02 8.11-11.09-.87-.54-1.71-1.25-2.89-1.93l-.3.32zM6.98 16.6c-.25-1.25.63-2.19 1.65-2.38 1.25-.23 2.28.63 2.47 1.59.24 1.23-.66 2.19-1.67 2.36-1.29.22-2.25-.62-2.45-1.58zm.82 5.7l4.42-6.08c1.32-1.73 2.63-3.5 4.02-5.15.23-.27.43-.47.61-.77-5.16.19-8.77 1.84-11.95 4.13-3.28 2.36-4.08 7.03 1.16 7.53.81.08 1.03.16 1.74.33zM20.11 7.91c.21-2.3 3.62-6.98 6.62-7.37-.21.2-.76.44-1.07.66-1.24.9-.81.68-1.4 1.18-1.5 1.26-2.98 3.89-3 6.19-.07-.03-1.09-.6-1.15-.66zm-.3.32c1 .26 1.66 1.01 2.21 1.42.91-.35 1.92-1.18 2.36-1.79 1.4-1.97.43-5.32 3.27-7.13.33-.21 1.27-.56 1.42-.68-2.23-.23-4.18.57-5.67 1.98-.21.2-.39.38-.59.57-.85.76-3.04 3.89-3.01 5.65zm-4.1 5.38c.55-.86 3.47-4.1 3.65-4.4.25.05.35.06.48.22-.15.19-.38.44-.49.56l-3.27 3.87c-.24-.08-.26-.11-.37-.25zm-.53.15l2.89 1.91c.49-.51 2.6-4 3.1-4.84.39-.65.43-.79-.64-1.5-.22-.15-.57-.37-.85-.45-.36-.11-.32-.08-.52.1l-4 4.8z"/><path class="fil0" d="M.34 36.55c1-1.42 2.43-3.91 3.55-5.59 3.4-5.08 5.87-8.63 9.45-13.47l1.95-2.61-.38-.24c-1.05 1.17-6.71 9.08-7.71 10.55C6.42 26.34.63 35.25.34 36.55zM20.11 7.91c.07.06 1.08.63 1.15.66.02-2.3 1.5-4.93 3-6.19.59-.49.15-.28 1.4-1.18.31-.22.86-.46 1.07-.66-3 .39-6.41 5.07-6.62 7.37zm-4.4 5.7c.11.14.12.17.37.25l3.27-3.87c.12-.12.34-.36.49-.56-.13-.17-.23-.18-.48-.22-.18.3-3.1 3.54-3.65 4.4z"/></g></g></svg>