<svg xmlns="http://www.w3.org/2000/svg" width="30.353" height="40.291" viewBox="0 0 27.93 37.08" shape-rendering="geometricPrecision" text-rendering="geometricPrecision" image-rendering="optimizeQuality" fill-rule="evenodd" clip-rule="evenodd"><defs><style>.fil0{fill:#010101}</style></defs><g id="Layer_x0020_1"><g id="_2407445164336"><path class="fil0" d="M2.73 36.6c-.13-.55-.33-.9-.36-1.57-.07-1.3-.02-4.27-.01-5.64.01-1.41-.12-6.37.15-7.38.47-1.78 1.99-3.28 4.06-3.46.99-.09 14.22-.07 14.94.02 1.97.26 3.51 1.75 3.91 3.61.21 1 .1 2.58.11 3.66.01 1.25 0 2.51 0 3.76.01 1.73.24 5.71-.4 6.99.59-.1 1.31-.86 1.63-1.2 1.57-1.69 1.11-4.93 1.09-7.6-.01-1.93.01-3.86 0-5.79-.02-3.58.31-6.53-1.85-9.74-.83-1.23-1.66-2.17-2.79-3-2.9-2.13-4.9-2.32-9.19-2.32-4.39 0-6.29.14-9.29 2.29-1.02.73-2.09 1.87-2.81 2.99a11.79 11.79 0 00-1.67 4.13c-.37 1.85-.2 8.98-.21 11.37-.01 1.41-.15 4.5.1 5.69.31 1.43 1.44 2.77 2.58 3.19z"/><path class="fil0" d="M7 25.49h13.9v2.32H7v-2.32zm16.17 9.7c.13-.62.04-7.39.04-8.62 0-2.3.45-4.45-1.12-5.39-.59-.35-1.06-.33-1.85-.33-2.89.02-5.79-.02-8.69 0-1.45.01-2.9 0-4.35 0-1.31 0-2.27.73-2.49 1.86-.12.64-.05 7.4-.05 8.65 0 .92-.1 3.52.15 4.2.51 1.41 1.68 1.51 2.83 1.52 2.9.01 5.8-.02 8.69 0 1.44.01 2.9.01 4.34 0 1.36-.02 2.23-.68 2.49-1.88z"/><path fill="#f5f5f5" d="M7 27.8h13.9v-2.32L7 25.49z"/><path class="fil0" d="M14.57 0h-1.14c-.65.29-1.67.18-2.86 1.47-.69.75-1.24 1.76-1.25 3.16l2.32.01c.18-3.06 4.46-3.05 4.63 0l2.31-.01c0-1.35-.52-2.33-1.18-3.08C16.27.27 15.33.36 14.57 0z"/></g></g></svg>