<svg xmlns="http://www.w3.org/2000/svg" width="32.789" height="35.628" viewBox="0 0 183.07 198.92" shape-rendering="geometricPrecision" text-rendering="geometricPrecision" image-rendering="optimizeQuality" fill-rule="evenodd" clip-rule="evenodd"><defs><style>.fil0{fill:#000}</style></defs><g id="Layer_x0020_1"><g id="_2407617774128"><path class="fil0" d="M34.1 131.23H14.85c-.51-1.92-4.17-3.9-6.29-3.9-2.74 0-4.5.53-6.26 2.29-4.84 4.84-1.56 13.68 5.63 13.68 1.71 0 3.12-.52 4.23-1.18.88-.53 2.42-1.82 2.69-2.84h64.67v7.67c0 1.33.41 2.22 1.08 2.94l.52.49c.54.45 1.4.85 2.17.85h16.48c.93 0 1.81-.5 2.44-1.08l.19-.19c.72-.74 1.15-1.64 1.15-3.01v-7.67h64.67c.65 2.44 7.46 6.7 12.42 1.73 5.24-5.25 1.25-13.68-5-13.68-2.71 0-4.51.53-6.32 2.35-.34.34-.97 1.08-1.1 1.54h-19.25l-1.76-3.9c-.27-.6-.6-1.28-.88-1.89-.31-.69-.58-1.32-.88-2.01-1.44-3.22-3.04-6.39-4.44-9.65l-1.35-2.93c-.16-.33-.24-.6-.42-.97-.16-.35-.32-.61-.46-.92l-1.76-3.9c-.17-.35-.27-.66-.46-1.05l-2.22-4.95c-.17-.37-.31-.6-.45-.94-.66-1.64-1.53-3.19-2.21-4.83-.17-.42-.31-.62-.49-1.02l-3.57-7.75c-.32-.69-.56-1.22-.85-1.92-1.23-2.95-2.67-5.83-3.97-8.73-.17-.38-.26-.65-.46-1.05-.31-.62-1.65-3.32-1.8-3.98-.35.09-.35.19-.55.46-1.03 1.4-2.15 2.67-3.38 3.91-2.04 2.06-4.71 3.92-7.16 5.42l-2.8 1.48c-1.7.7-4.43 2.04-6.24 2.19.06.67.34 1.02.59 1.55l11.12 24.37c.24.49.46 1.02.71 1.55.49 1.06.87 1.99 1.39 3.02.26.52.43.98.67 1.47.25.51.44 1 .71 1.55.27.54.45 1 .71 1.55l4.16 9.17c.52 1.26 1.82 3.57 2.09 4.71h-19c0-1.83.26-7.94-.3-9.39a3.907 3.907 0 00-2-2.15c-.47-.22-1.07-.42-1.72-.42H83.56c-.62 0-1.21.19-1.64.38-1.54.68-2.39 2.19-2.39 3.9v7.67h-19c.24-1.06 2.2-4.91 2.69-6.11l1.37-3.03c.25-.53.47-1.06.71-1.55l2.1-4.57c.25-.52.43-.99.67-1.47l4.91-10.69c.22-.44.45-.99.66-1.47l4.87-10.73c.89-2.01 1.97-4.06 2.82-6.11.23-.55.46-1.03.7-1.56.23-.52.57-.94.63-1.64-2.12-.18-6.97-2.44-8.88-3.58L70 76.19c-1.35-1.02-3.46-2.68-4.48-3.95-.8-1.01-1.66-1.84-2.4-2.88-.2-.28-.23-.44-.6-.54l-4.41 9.69c-1.58 3.19-2.89 6.56-4.44 9.77-.92 1.91-1.69 3.91-2.64 5.79l-2.27 4.91c-.19.39-.28.7-.46 1.05-.63 1.26-1.15 2.63-1.76 3.9-.16.33-.25.6-.42.96l-4.01 8.7c-.14.34-.27.57-.44.94l-1.34 2.94c-1.56 3.21-2.94 6.54-4.44 9.77-.34.72-.58 1.28-.89 2.01l-.92 1.98z"/><path class="fil0" d="M79.64 47.68c0-1.68.52-3.65 1.09-4.82 4.45-9.25 16.98-9.37 21.56-.08 1.97 4 1.17 9.4-1.61 12.49-.29.32-.38.5-.69.82-.92.94-2.31 1.84-3.49 2.42-.61.3-1.47.61-2.24.78-5.78 1.31-11.03-1.47-13.53-6.65-.57-1.18-1.09-3.26-1.09-4.95zm-15.98-.75c0 5.02.68 8.49 2.56 12.54 1.9 4.11 5.35 8.48 9.22 11.04 3.09 2.04 5.52 3.33 9.31 4.28 4.46 1.11 8.99 1.14 13.46.03 2.26-.57 3.02-.93 5.03-1.76 1.6-.66 2.95-1.59 4.3-2.49 1.27-.84 2.64-2.03 3.71-3.09 4.64-4.65 8.15-11.79 8.15-18.9 0-4.42-.61-8.66-2.56-12.54-3.26-6.51-7.01-10.27-13.5-13.55-5.49-2.77-12.38-3.24-18.51-1.81-1.46.34-3.73 1.12-5.02 1.77-4.74 2.37-7.92 4.86-11.06 9.2-2.84 3.92-5.09 9.92-5.09 15.3zm92.35 138.27c.04.48 2.67 6.04 2.98 6.71l1.3 2.86c.94 2.11 1.45 4.15 4.78 4.15 1.61 0 3.65-1.68 3.65-3.52 0-2.35-.92-3.42-1.92-5.75l-3.49-7.84c.62-.93 1.11-.84 2.48-3.56 1.6-3.2 1.49-7.27-.08-10.4l-2.18-4.74c-.27-.56-.46-1.03-.71-1.55l-3.65-7.93c-.48-1.09-.91-2.12-1.43-3.23-.5-1.06-.95-2.2-1.47-3.19h-26.29c.08.33.38.99.54 1.34 2.33 4.98 4.53 10.11 6.92 15.1.46.95.78 1.83 1.26 2.77l3.73 8.22c.42.94.81 1.86 1.26 2.76 1 2.03 1.33 2.92 3.3 4.75.64.6 1.61 1.23 2.4 1.62 2.12 1.05 3.51 1.42 6.63 1.42zM16.1 173.25c0 2.4.98 5.08 2.21 6.85l1.44 1.71-.67 1.59c-.25.53-.47 1.07-.71 1.55l-2.81 6.25c-.25.54-.48 1.05-.71 1.55-1.58 3.48.67 5.96 3.17 6.16h.68c1.22-.11 2.42-.77 3.19-2.14.18-.33.24-.59.42-.96s.26-.56.43-.96l4.31-9.65c4.9 0 8.1-1.48 10.86-5.12.79-1.04 2.11-3.95 2.66-5.27L53.1 147.2H26.81c-.91 1.72-2.59 5.79-3.56 7.89l-4.7 10.15c-1.12 2.42-2.43 4.91-2.43 8.01zM79.51 4.03v9.69c0 .43.18.32.39.28l2.02-.65c5.67-1.82 13.43-1.79 19.13-.03l2.02.65c.29.07.48.2.48-.26V4.02c0-2.2-1.87-4.03-3.65-4.03H83.17c-1.81 0-3.65 1.91-3.65 4.03z"/></g></g></svg>