<svg xmlns="http://www.w3.org/2000/svg" width="33.549" height="40.291" viewBox="0 0 25.59 30.73" shape-rendering="geometricPrecision" text-rendering="geometricPrecision" image-rendering="optimizeQuality" fill-rule="evenodd" clip-rule="evenodd"><path d="M12.64 19.72l1.11 1.24c.13.16.42.44.58.58l.32.27c.1.08.25.18.28.31-.6.14-2.15-.09-2.65-.2-.43-.1-.84-.2-1.24-.35-.13-.05-.28-.14-.4-.17.05-.2 1.24-1.14 1.46-1.3.19-.15.36-.26.55-.39zM8.72 0c.31 0 .4.15.58.45.14.24.61 1.29.74 1.61.04.1.13.23.15.32.19 0 .33-.06.48-.11 3.23-1.09 6.63-.6 9.52 1.12.15.09.27.17.42.27.55.37 1.06.8 1.55 1.24.28.26.74.79.99 1.11.11.14.2.25.3.39.7.99 1.03 1.68 1.45 2.75.6 1.52.68 2.57.68 4.24 0 3.22-1.55 6.2-3.85 8.25-.06.05-.08.06-.14.11-.33.29-.93.72-1.3.96-.19.13-.83.45-.92.58.04.16.17.44.24.6.09.2.15.36.24.57.13.31.57 1.07.36 1.42-.2.34-2.11.89-2.35.95-1.96.5-2.78.43-4.77.43v2.29h4.14c.14 0 .41.37.41.53 0 .32-.25.63-.38.63h-9.5c-.12 0-.38-.32-.38-.47v-.19c0-.17.28-.5.38-.5h4.17V27.1c-.22 0-1.09-.22-1.34-.29-1.08-.29-2.18-.71-3.16-1.26-.84-.47-1.38-.8-2.15-1.42l-.86-.74c-.46-.43-.76-.79-1.16-1.25-.34-.39-.74-.96-1.02-1.39-.22-.33-.4-.66-.59-1.01l-.51-1.09C.3 16.52 0 15.15 0 12.8c0-1.36.34-3.3.84-4.56.33-.84.61-1.54 1.08-2.31.27-.45.46-.78.79-1.22.33-.44.84-1.09 1.22-1.47l1.4-1.3c.64-.56 2.91-1.97 3.39-1.97zm5.02 19.06c0-.18 1.83-1 1.98-1.07.15.29.27.57.41.88.17.39 1.14 2.53 1.16 2.73-.55.29-.76.14-1.41-.35l-.79-.65c-.2-.19-1.34-1.35-1.34-1.54zm3.07-1.6l1.05-.42c.24-.09.87-.36 1.11-.36.14.61.19.96.19 1.63 0 .7.04 1.52-.11 2.18-.05.22-.07.26-.21.39-.08.07-.29.2-.4.23l-.84-1.8c-.24-.55-.52-1.14-.74-1.7-.02-.04-.04-.12-.05-.14zm-10.6-.16c.6-.32 2.25-1.08 2.89-1.34.18-.07.88-.41 1.03-.41.08 0 .4.65.46.76.08.16.14.26.22.41.24.48.73 1.34 1.03 1.79.05.08.08.11.11.21-.06.09-.51.4-.63.5-.53.4-.79.65-1.24 1.05l-.6.56c-.18-.09-.34-.23-.5-.35l-.23-.17c-.4-.3-.75-.67-1.11-1.02-.08-.08-.13-.13-.2-.21-.07-.09-.13-.14-.21-.23-.08-.1-.11-.13-.18-.22-.42-.55-.52-.71-.83-1.3zm14.17 2.41c-.1-.41 0-1.57-.08-2.15l-.14-1.24 2.35-.44c.17 0 .25-.03.38-.03-.05.1-.06.15-.11.27-.04.11-.07.19-.12.29-.18.44-.28.65-.51 1.06-.32.57-.59.92-.99 1.43-.13.16-.66.72-.79.81zm-9.09-4.7c.35-.19 2.45-1.08 2.63-1.1l1.29 2.92c-.43.29-1.7.92-2.26 1.19-.58-.87-1.11-1.83-1.58-2.78-.05-.1-.05-.15-.08-.23zm-6.15-1.79c0-.75.07-1.49.23-2.19.02-.07.05-.16.06-.26l1.44-.19c1.89-.32 1.44-.56 1.8.75.14.53.47 1.57.66 2.07l.37 1.01-1 .44c-.16.07-.32.15-.5.22-.18.08-.33.14-.5.22l-2.02.87c-.01-.16-.14-.47-.19-.66-.18-.72-.35-1.49-.35-2.29zm9.94.13c.12-.03.19-.08.3-.13l1.59-.7c.12-.06.56-.25.68-.26l.84 2.3c.07.22.2.66.2.9 0 .11-.05.08-.26.14l-2.12.8c-.01-.18-1.21-2.63-1.22-3.04zm3.73-1.57c0-.13.79-.42.93-.48l1.99-.87c.17-.07.33-.14.51-.21.17-.07.37-.13.52-.2.28.57.53 2.09.53 2.79 0 .55-.01 1-.06 1.53-.05.48-.29.3-.96.39-.59.08-1.13.16-1.7.28-.2.04-.36.12-.6.12-.11 0-.14-.19-.19-.38l-.69-2.13c-.06-.16-.28-.67-.28-.85zM9.56 9.99l1.94-.69c.13-.05.12-.09.32-.09l.42.84c.14.28 1.13 2.44 1.15 2.71-.42.22-.84.39-1.27.61-.11.05-.22.1-.32.15-.11.05-.21.1-.33.14-.15.06-.54.25-.68.26l-.52-1.39c-.16-.5-.7-2.15-.7-2.53zm-3.7-.47c.04-.18.23-.48.32-.65.05-.09.07-.14.12-.22.42-.69.58-.92 1.09-1.55l.31-.35c.11-.11.23-.25.35-.34 0 .38.03.41.03.63.01.23-.01.46 0 .69.01.23.03.26.03.66 0 .14.03.62.02.66-.02.15-.24.15-.48.2-.39.08-1.45.27-1.8.27zm7.12-.78c.06-.08.4-.26.5-.31.18-.09.35-.19.53-.28l1.07-.6c.05.07.1.12.15.19.32.43.7 1.07.97 1.51.22.36.92 1.6.98 1.87l-.64.3c-.27.14-1.8.77-2.03.79l-1.54-3.48zM10 5.07c.14.21.24.46.37.7.13.25.22.49.35.75.13.27.59 1.4.61 1.59-.11.03-1.06.4-1.46.51-.15.04-.37.13-.51.14L9.3 7.72c0-.19.03-.3.03-.53 0-.49-.07-1.58.32-1.94.09-.08.25-.17.37-.19zm6.11 1.85l2.38-1.85c.24.06 1.39.91 1.65 1.17l1.15 1.21c.08.1.14.17.21.26.14.18.27.35.4.54.1.15.31.41.32.62l-2.94 1.35c-.16.07-.33.15-.51.22-.15.06-.36.17-.53.19-.37-.7-.59-1.2-1-1.91l-.26-.46c-.1-.16-.18-.29-.27-.45-.18-.3-.4-.59-.59-.88zm-4.95-2.35c.56-.3.55-.27 1.37.29l1.15.98c.23.23.5.48.68.76-.1.03-.15.08-.22.12l-.69.38c-.2.1-.81.39-1 .44-.02-.09-.11-.28-.16-.38-.05-.12-.11-.24-.17-.37l-.81-1.86c-.02-.06-.05-.1-.08-.17s-.05-.14-.08-.21zm2.29-.53c.48-.11 1.98.04 2.41.1.3.04 1.13.27 1.38.4-.22.32-1.49 1.15-1.79 1.41-.21-.14-1.52-1.57-1.86-1.8-.1-.07-.07-.01-.14-.11zm-10.6 8.53c0 2 .12 3 .84 4.81.16.41.45 1.03.67 1.4.58.95.97 1.53 1.79 2.35.97.97 1.96 1.65 3.22 2.27l.98.4c.36.12.67.23 1.06.32 2.02.51 4.02.45 6.02-.11.13-.04.26-.08.4-.13s.31-.09.42-.14c.2.38.5 1.2.66 1.54l-1.03.35c-1.05.33-2.54.53-3.64.53-2.05 0-4.19-.57-5.61-1.29-.26-.13-.52-.24-.81-.41-.29-.18-.73-.42-1-.63l-.93-.7c-.22-.17-1.08-.97-1.24-1.17-.42-.53-.64-.7-1.09-1.36-.43-.64-.57-.88-.93-1.52-.2-.36-.6-1.31-.73-1.72-.95-2.87-1-5.52-.04-8.42.17-.5.45-1.18.69-1.67.34-.69.9-1.55 1.35-2.16.42-.56.91-1.05 1.4-1.55l.46-.41c.49-.38.62-.53 1.17-.9.23-.15 1.25-.83 1.5-.85.4.76.41.96.66 1.47l-.92.55c-.42.25-.79.55-1.16.84-.5.39-1.12.98-1.5 1.47-1.29 1.64-1.94 2.83-2.44 5.02-.11.47-.21 1.22-.21 1.79z"/></svg>