<svg xmlns="http://www.w3.org/2000/svg" width="10mm" height="39.742" viewBox="0 0 35.04 36.85" shape-rendering="geometricPrecision" text-rendering="geometricPrecision" image-rendering="optimizeQuality" fill-rule="evenodd" clip-rule="evenodd"><defs><style>.fil0{fill:#000}</style></defs><g id="Layer_x0020_1"><g id="_2407466034720"><path class="fil0" d="M11.69 36.85c.07 0 1.89-1.32 1.99-1.39 1.93-1.36 4.02-2.9 5.96-4.23l.99-.7c.33-.25.66-.47.99-.7.33-.23.66-.46.99-.7l4.86-3.45c.06-.05.09-.03.09-.13v-3.01H7.41v14.33h4.29zm1.73-24.22l.08.02-.08-.02zM12.44 0h.5c.54.04 1.07.2 1.52.43 1.47.74 2.56 2.12 3.38 3.5.22.37.85 1.69.88 2.05.09-.06.22-.3.31-.41.34-.45.53-.71.94-1.12.48-.48.9-.87 1.56-1.19.8-.39 1.56-.29 1.92.44.33.66.28 1.6.12 2.39-.45 2.27-1.52 4.05-2.96 5.69-.17.19-.38.34-.53.49-.23.23-.69.49-.76.59 1.33 0 2.54-.47 3.76-.87 2.03-.67 2.53-1.01 4.83-1.33.34-.05 1.11-.09 1.47-.04 1.04.16 1.29.03 2.47.61.33.17.64.4.92.63 1.27 1.07 1.62 2.88.97 4.56-.15.38-.3.7-.47 1.03.59.14 1.17.28 1.77.41-.13.11-1.07.41-1.23.47-1 .33-2.11.77-3.11 1.1-.15.05-.5.19-.63.2 0-.17.06-.4.09-.59.2-1.21.39-2.92.11-4.13-.16-.69-.49-1.25-1.09-1.5-.44-.18-1.6-.33-2.23-.33-.27 0-.37-.05-.64-.04-.91.03-2.05.13-2.96.24-.96.12-3.73.58-4.65.45-1.47-.2-.36-.65-1.6-.09-1.51.68-2.28.54-3.85.27-1-.17-1.98-.42-3.05-.6-.38-.06-1.26-.16-1.64-.16-1.43.01-2.11.01-2.97.64-1.23.92-2.1 3.37-3.09 4.16-.37.3-.6.53-1.18.66-.59.13-.6.09-.64-.15l-.56-3.05c-.04-.2-.12-.55-.14-.76.28 0 .37-.05.53-.18.23-.18.42-.56.56-.79.81-1.4 1.54-3.49 3.43-4.05 1.58-.46 3.07.08 4.45.67l1.78.93c.29.15.59.33.87.49.18.1 1.59.85 1.8.9l-1.01-.99-.85-1.1c-.08-.11-.13-.21-.2-.32-1.31-2.03-2.09-4.97-1.58-7.44.24-1.18.98-2.4 2.21-2.71.15-.04.3-.06.45-.07zm5.15 12c-.05-.58-.23-.48.02-1.6.05-.24.13-.51.22-.72.06-.15.19-.52.3-.64 0 .22.04.64.07.84.06.44-.23 1.86-.59 2.13zm1.02.41c.09-.35.71-1.11.71-2.74 0-.82 0-1.07-.12-1.87-.07-.48-.19-.36.32-.87.17-.17.27-.26.45-.41.27-.22.76-.51 1.19-.42.46.09.58.57.64 1.06.02.14-.05.58-.07.74-.17.98-.6 1.86-1.12 2.68-.07.11-.12.16-.19.26-.34.5-1.2 1.43-1.81 1.57zM12.07 7v-.41c0-2.18 1.78-3.3 3.58-1.89.09.07.19.14.27.22.1.1.13.12.24.21.48.4 1.59 2.15 1.59 2.62 0 .05-.26.65-.3.75-.38.96-.78 2.51-.53 3.58.04.16.11.33.12.48-.24.06-.3.19-.86.19-1.15 0-2.29-1.18-2.87-2.05-.57-.86-1.23-2.29-1.23-3.7z"/><path class="fil0" d="M6.62 20.42c0 1.61-.14 1.33.41 1.32h21.31v-6.67H6.62v5.35zm11.03 16.43c.04-.01.08-.02.11-.03l4.31-3.06c1-.74 2.12-1.48 3.12-2.22l2.37-1.69v-3.27c-.11.03-.14.07-.23.14l-2.92 2.08c-.15.11-.3.22-.46.33l-1.81 1.28c-.15.1-.29.21-.44.31l-7.21 5.12c-.21.15-1.3.9-1.37 1h4.52zm5.89 0c.26-.01.26-.06.73-.4l.82-.57c.27-.2.54-.37.81-.58.09-.07 1.53-1.12 1.66-1.16v-3.27c-.2.02-.39.23-.56.35-1.5 1.02-3.23 2.31-4.75 3.38l-.53.38c-.18.13-.35.24-.53.37-.35.26-.7.49-1.05.75-.17.13-.35.25-.53.37-.1.07-.16.12-.26.19l-.26.2h4.44zm4.02 0v-1.73c-.12.03-.21.11-.31.18-.11.08-.19.13-.31.22l-1.23.88c-.13.09-.53.35-.6.45h2.44z"/><path d="M6.62 15.07h21.72v6.67H7.03c-.55 0-.41.28-.41-1.32v-5.35zm-.07 6.7H28.4v-6.73H6.55v6.73z" fill="#616161"/></g></g></svg>