<svg xmlns="http://www.w3.org/2000/svg" width="37.245" height="52.173" viewBox="0 0 42.36 59.34" shape-rendering="geometricPrecision" text-rendering="geometricPrecision" image-rendering="optimizeQuality" fill-rule="evenodd" clip-rule="evenodd"><defs><style>.fil0{fill:#000}</style></defs><g id="Layer_x0020_1"><g id="_2407464290976"><path class="fil0" d="M25.58 19.51c-.05-2.16-2.17-6.09-3.66-7.72-1.02-1.11-1.7-1.83-2.96-2.79-.47-.36-2.97-2.03-3.51-2.1 2.54.05 5.99 1.66 7.59 3.77 1.42 1.87 2.85 5.65 2.55 8.83zM14.66 39.73c7.59-3.63 12.57-9.45 13.39-18.13.85-9.06-5.49-17.45-13.9-17.54C1.51 3.93-4.78 21.27 4.28 32.85c1.9 2.43 5.23 5.26 8.91 6.79l-.85 1.9c.38.04 1.67-.3 2 1.55.23 1.25-.85 1.33-1.55 1.91-.69.57-.88 1.68-.18 2.5.43.51 1.52 1.16 1.7 1.72.36 1.13-.69 1.82-1.12 2.29-1.36 1.49-1.27 3.88-.59 5.53.36.88.87 1.49 1.18 2.29l.91-.51c-.46-1.08-2.93-4.46-.58-6.76 3.68-3.61-1.28-4.54-.84-5.97.4-.75 1.37-.81 1.89-1.66.5-.81.13-2.12-.29-2.74l.58-.26c-.39-.49-.63-1.1-.82-1.71z"/><path class="fil0" d="M39.45 11.87c-.44-.75-.89-1.85-1.34-2.69-1.08-2.02-2.88-4.15-4.64-5.52-.36-.28-.81-.56-1.14-.85 3.88.27 7.19 5.69 7.11 9.06zM28.97 35.71c.44-.33 1.08-.56 1.58-.85 3.57-2.05 6.46-4.43 8.75-8.01 5.62-8.76 3.49-21.94-6.25-25.93C30.59-.09 27.63-.3 24.92.48c-2.07.6-5.06 2.3-5.9 3.67 2.48.74 5.13 3.28 6.32 4.84 1.57 2.05 2.84 4.62 3.4 7.73.59 3.3.24 6.82-.67 9.79-1.32 4.3-3.65 6.56-3.91 7.24.86.76 2.34 1.26 3.3 1.85l-.77 1.87c.89.01.97-.11 1.41.43 1.63 2-.57 2.65-1 3.04-.71.65-.9 1.67-.16 2.52.48.55 1.49 1.1 1.68 1.74.6 2.04-4.85 2.95-.5 10.04l.84-.46c-.13-.6-.83-1.5-1.11-2.21-.32-.81-.46-1.78-.34-2.78.26-2.25 2.25-1.95 2.18-4.3-.07-2.2-3.31-2.6-1.8-3.86.61-.5 2.94-1.22 1.22-4.11.25-.1.34-.03.57-.23-.29-.48-.56-.99-.73-1.59z"/><path d="M25.58 19.51c.31-3.18-1.12-6.96-2.55-8.83-1.6-2.1-5.05-3.72-7.59-3.77.54.07 3.04 1.74 3.51 2.1 1.26.96 1.94 1.68 2.96 2.79 1.49 1.62 3.62 5.56 3.66 7.72zm13.87-7.64c.08-3.37-3.23-8.79-7.11-9.06.33.29.78.57 1.14.85 1.76 1.37 3.55 3.5 4.64 5.52.45.84.89 1.93 1.34 2.69z" fill="#f7f7f7"/></g></g></svg>